<svg id="Calque_1" data-name="Calque 1" xmlns="http://www.w3.org/2000/svg" xmlns:xlink="http://www.w3.org/1999/xlink" viewBox="0 0 739.21 291.27"><defs><linearGradient id="Dégradé_sans_nom_92" x1="439.73" y1="98.49" x2="482.41" y2="98.49" gradientUnits="userSpaceOnUse"><stop offset="0.33" stop-color="#a01929"/><stop offset="0.59" stop-color="#fff"/><stop offset="0.84" stop-color="#1b3a6a"/></linearGradient><linearGradient id="Dégradé_sans_nom_23" x1="607.58" y1="58.02" x2="626.35" y2="58.02" gradientUnits="userSpaceOnUse"><stop offset="0" stop-color="#1b3a6a"/><stop offset="0.13" stop-color="#fff"/><stop offset="1" stop-color="#a01929"/></linearGradient><linearGradient id="Dégradé_sans_nom_34" x1="607.58" y1="68.14" x2="626.35" y2="68.14" gradientUnits="userSpaceOnUse"><stop offset="0" stop-color="#1b3a6a"/><stop offset="0.28" stop-color="#fff"/><stop offset="1" stop-color="#a01929"/></linearGradient><linearGradient id="Dégradé_sans_nom_43" x1="607.58" y1="78.26" x2="626.35" y2="78.26" gradientUnits="userSpaceOnUse"><stop offset="0.04" stop-color="#1b3a6a"/><stop offset="0.19" stop-color="#fff"/><stop offset="0.78" stop-color="#a01929"/></linearGradient><linearGradient id="Dégradé_sans_nom_46" x1="607.58" y1="88.37" x2="626.35" y2="88.37" gradientUnits="userSpaceOnUse"><stop offset="0.24" stop-color="#1b3a6a"/><stop offset="0.43" stop-color="#fff"/><stop offset="0.85" stop-color="#a01929"/></linearGradient><linearGradient id="Dégradé_sans_nom_53" x1="607.58" y1="98.49" x2="626.35" y2="98.49" gradientUnits="userSpaceOnUse"><stop offset="0.42" stop-color="#1b3a6a"/><stop offset="0.62" stop-color="#fff"/><stop offset="1" stop-color="#a01929"/></linearGradient><linearGradient id="Dégradé_sans_nom_51" x1="607.58" y1="108.61" x2="626.35" y2="108.61" gradientUnits="userSpaceOnUse"><stop offset="0.52" stop-color="#1b3a6a"/><stop offset="0.7" stop-color="#fff"/><stop offset="1" stop-color="#a01929"/></linearGradient><linearGradient id="Dégradé_sans_nom_57" x1="607.58" y1="118.58" x2="626.35" y2="118.58" gradientUnits="userSpaceOnUse"><stop offset="0.51" stop-color="#1b3a6a"/><stop offset="0.8" stop-color="#fff"/><stop offset="1" stop-color="#a01929"/></linearGradient><linearGradient id="Dégradé_sans_nom_60" x1="691.3" y1="58.02" x2="711.97" y2="58.02" gradientUnits="userSpaceOnUse"><stop offset="0" stop-color="#1b3a6a"/><stop offset="0.21" stop-color="#fff"/><stop offset="0.39" stop-color="#a4242e"/><stop offset="1" stop-color="#a01929"/></linearGradient><linearGradient id="Dégradé_sans_nom_62" x1="691.3" y1="68.14" x2="711.97" y2="68.14" gradientUnits="userSpaceOnUse"><stop offset="0" stop-color="#1b3a6a"/><stop offset="0.28" stop-color="#fff"/><stop offset="0.6" stop-color="#a4242e"/><stop offset="1" stop-color="#a01929"/></linearGradient><linearGradient id="Dégradé_sans_nom_64" x1="691.3" y1="78.26" x2="711.97" y2="78.26" gradientUnits="userSpaceOnUse"><stop offset="0" stop-color="#1b3a6a"/><stop offset="0.28" stop-color="#fff"/><stop offset="0.53" stop-color="#a4242e"/><stop offset="1" stop-color="#a01929"/></linearGradient><linearGradient id="Dégradé_sans_nom_67" x1="691.3" y1="88.37" x2="711.97" y2="88.37" gradientUnits="userSpaceOnUse"><stop offset="0.15" stop-color="#1b3a6a"/><stop offset="0.37" stop-color="#fff"/><stop offset="0.62" stop-color="#a4242e"/><stop offset="1" stop-color="#a01929"/></linearGradient><linearGradient id="Dégradé_sans_nom_67-2" x1="691.3" y1="98.49" x2="711.97" y2="98.49" xlink:href="#Dégradé_sans_nom_67"/><linearGradient id="Dégradé_sans_nom_67-3" x1="691.3" y1="108.61" x2="711.97" y2="108.61" xlink:href="#Dégradé_sans_nom_67"/><linearGradient id="Dégradé_sans_nom_70" x1="691.3" y1="118.58" x2="711.97" y2="118.58" gradientUnits="userSpaceOnUse"><stop offset="0.37" stop-color="#1b3a6a"/><stop offset="0.72" stop-color="#fff"/><stop offset="0.89" stop-color="#a4242e"/><stop offset="1" stop-color="#a01929"/></linearGradient><linearGradient id="Dégradé_sans_nom_97" x1="439.73" y1="78.26" x2="482.41" y2="78.26" gradientUnits="userSpaceOnUse"><stop offset="0.16" stop-color="#a01929"/><stop offset="0.55" stop-color="#fff"/><stop offset="0.76" stop-color="#1b3a6a"/></linearGradient><linearGradient id="Dégradé_sans_nom_90" x1="439.73" y1="118.58" x2="482.41" y2="118.58" gradientUnits="userSpaceOnUse"><stop offset="0.49" stop-color="#a01929"/><stop offset="0.67" stop-color="#fff"/><stop offset="0.89" stop-color="#1b3a6a"/></linearGradient><linearGradient id="Dégradé_sans_nom_91" x1="439.73" y1="108.61" x2="482.41" y2="108.61" gradientUnits="userSpaceOnUse"><stop offset="0.33" stop-color="#a01929"/><stop offset="0.61" stop-color="#fff"/><stop offset="0.84" stop-color="#1b3a6a"/></linearGradient><linearGradient id="Dégradé_sans_nom_93" x1="439.73" y1="88.37" x2="482.41" y2="88.37" gradientUnits="userSpaceOnUse"><stop offset="0.33" stop-color="#a01929"/><stop offset="0.55" stop-color="#fff"/><stop offset="0.75" stop-color="#1b3a6a"/></linearGradient><linearGradient id="Dégradé_sans_nom_100" x1="439.73" y1="68.14" x2="482.41" y2="68.14" gradientUnits="userSpaceOnUse"><stop offset="0.11" stop-color="#a01929"/><stop offset="0.35" stop-color="#fff"/><stop offset="0.7" stop-color="#1b3a6a"/></linearGradient><linearGradient id="Dégradé_sans_nom_77" x1="439.73" y1="58.02" x2="482.41" y2="58.02" gradientUnits="userSpaceOnUse"><stop offset="0" stop-color="#a01929"/><stop offset="0.25" stop-color="#fff"/><stop offset="0.59" stop-color="#1b3a6a"/></linearGradient><linearGradient id="Dégradé_sans_nom_114" x1="439.73" y1="37.96" x2="482.41" y2="37.96" gradientUnits="userSpaceOnUse"><stop offset="0" stop-color="#3e1f51"/><stop offset="1" stop-color="#20a784"/></linearGradient><linearGradient id="Dégradé_sans_nom_152" x1="482.41" y1="37.96" x2="502.64" y2="37.96" gradientUnits="userSpaceOnUse"><stop offset="0" stop-color="#20a784"/><stop offset="1" stop-color="#fee824"/></linearGradient><linearGradient id="Dégradé_sans_nom_125" x1="502.64" y1="37.96" x2="521.42" y2="37.96" xlink:href="#Dégradé_sans_nom_152"/><linearGradient id="Dégradé_sans_nom_114-2" x1="544.66" y1="37.96" x2="587.34" y2="37.96" xlink:href="#Dégradé_sans_nom_114"/><linearGradient id="Dégradé_sans_nom_152-2" x1="587.34" y1="37.96" x2="607.58" y2="37.96" xlink:href="#Dégradé_sans_nom_152"/><linearGradient id="Dégradé_sans_nom_125-2" x1="607.58" y1="37.96" x2="626.35" y2="37.96" xlink:href="#Dégradé_sans_nom_152"/><linearGradient id="Dégradé_sans_nom_114-3" x1="648.84" y1="37.63" x2="691.51" y2="37.63" xlink:href="#Dégradé_sans_nom_114"/><linearGradient id="Dégradé_sans_nom_152-3" x1="691.51" y1="37.63" x2="711.75" y2="37.63" xlink:href="#Dégradé_sans_nom_152"/><linearGradient id="Dégradé_sans_nom_125-3" x1="711.75" y1="37.63" x2="730.52" y2="37.63" xlink:href="#Dégradé_sans_nom_152"/><linearGradient id="Dégradé_sans_nom_149" x1="106.79" y1="210.68" x2="106.79" y2="125.23" gradientUnits="userSpaceOnUse"><stop offset="0.01" stop-color="#fee824"/><stop offset="0.95" stop-color="#20a784"/></linearGradient><linearGradient id="Dégradé_sans_nom_149-2" x1="106.58" y1="210.68" x2="106.58" y2="125.23" xlink:href="#Dégradé_sans_nom_149"/><linearGradient id="Dégradé_sans_nom_150" x1="11.8" y1="174.01" x2="99.4" y2="123.43" gradientUnits="userSpaceOnUse"><stop offset="0" stop-color="#fee824"/><stop offset="1" stop-color="#20a784"/></linearGradient><linearGradient id="Dégradé_sans_nom_150-2" x1="7.95" y1="167.34" x2="95.55" y2="116.76" xlink:href="#Dégradé_sans_nom_150"/><linearGradient id="Dégradé_sans_nom_137" x1="105.39" y1="128.41" x2="105.39" y2="71.45" gradientUnits="userSpaceOnUse"><stop offset="0" stop-color="#20a784"/><stop offset="0.96" stop-color="#3e1f51"/></linearGradient></defs><title>scFates_summary</title><rect x="439.73" y="93.11" width="42.68" height="10.77" style="fill:url(#Dégradé_sans_nom_92)"/><rect x="544.66" y="93.11" width="42.68" height="10.77" style="fill:#1b3a6a"/><rect x="648.84" y="93.11" width="42.68" height="10.77" style="fill:#1b3a6a"/><rect x="544.66" y="52.63" width="42.68" height="10.77" style="fill:#1b3a6a"/><rect x="607.58" y="52.63" width="18.77" height="10.77" style="fill:url(#Dégradé_sans_nom_23)"/><rect x="587.12" y="52.63" width="20.67" height="10.77" style="fill:#1b3a6a"/><rect x="544.66" y="62.75" width="42.68" height="10.77" style="fill:#1b3a6a"/><rect x="607.58" y="62.75" width="18.77" height="10.77" style="fill:url(#Dégradé_sans_nom_34)"/><rect x="587.12" y="62.75" width="20.67" height="10.77" style="fill:#1b3a6a"/><rect x="544.66" y="72.87" width="42.68" height="10.77" style="fill:#1b3a6a"/><rect x="607.58" y="72.87" width="18.77" height="10.77" style="fill:url(#Dégradé_sans_nom_43)"/><rect x="587.12" y="72.87" width="20.67" height="10.77" style="fill:#1b3a6a"/><rect x="544.66" y="82.99" width="42.68" height="10.77" style="fill:#1b3a6a"/><rect x="607.58" y="82.99" width="18.77" height="10.77" style="fill:url(#Dégradé_sans_nom_46)"/><rect x="587.12" y="82.99" width="20.67" height="10.77" style="fill:#1b3a6a"/><rect x="607.58" y="93.11" width="18.77" height="10.77" style="fill:url(#Dégradé_sans_nom_53)"/><rect x="587.12" y="93.11" width="20.67" height="10.77" style="fill:#1b3a6a"/><rect x="544.66" y="103.23" width="42.68" height="10.77" style="fill:#1b3a6a"/><rect x="607.58" y="103.23" width="18.77" height="10.77" style="fill:url(#Dégradé_sans_nom_51)"/><rect x="587.12" y="103.23" width="20.67" height="10.77" style="fill:#1b3a6a"/><rect x="544.66" y="113.2" width="42.68" height="10.77" style="fill:#1b3a6a"/><rect x="607.58" y="113.2" width="18.77" height="10.77" style="fill:url(#Dégradé_sans_nom_57)"/><rect x="587.12" y="113.2" width="20.67" height="10.77" style="fill:#1b3a6a"/><line x1="62.99" y1="168.29" x2="134.42" y2="168.29" style="fill:none;stroke:#706f6f;stroke-miterlimit:10;stroke-width:1.9187563576648723px"/><polygon points="133.02 173.07 141.3 168.29 133.02 163.5 133.02 173.07" style="fill:#706f6f"/><line x1="62.99" y1="168.29" x2="40.58" y2="190.7" style="fill:none;stroke:#706f6f;stroke-miterlimit:10;stroke-width:1.9187563576648723px"/><polygon points="38.18 186.32 35.71 195.56 44.95 193.09 38.18 186.32" style="fill:#706f6f"/><circle cx="113.8" cy="85.08" r="4.18" style="fill:#009640"/><line x1="62.99" y1="167.58" x2="62.99" y2="96.15" style="fill:none;stroke:#706f6f;stroke-miterlimit:10;stroke-width:1.9187563576648723px"/><polygon points="67.77 97.55 62.99 89.26 58.2 97.55 67.77 97.55" style="fill:#706f6f"/><circle cx="106.42" cy="128.59" r="4.18" style="fill:#009640"/><circle cx="96.43" cy="110.49" r="4.18" style="fill:#009640"/><path d="M103.71,109.59a4.18,4.18,0,1,1,4.66,3.63A4.18,4.18,0,0,1,103.71,109.59Z" style="fill:#009640"/><circle cx="105.96" cy="93.84" r="4.18" style="fill:#009640"/><circle cx="100.26" cy="79.08" r="4.18" style="fill:#009640"/><circle cx="77.11" cy="139.62" r="4.18" style="fill:#e30613"/><circle cx="49.35" cy="147.44" r="4.18" style="fill:#e30613"/><circle cx="42.13" cy="154.73" r="4.18" style="fill:#e30613"/><circle cx="83.84" cy="147.44" r="4.18" style="fill:#e30613"/><circle cx="88.94" cy="129.37" r="4.18" style="fill:#009640"/><circle cx="102.86" cy="143.26" r="4.18" style="fill:#009fe3"/><circle cx="113.8" cy="147.44" r="4.18" style="fill:#009fe3"/><circle cx="111.44" cy="160.84" r="4.18" style="fill:#009fe3"/><circle cx="120.75" cy="173.05" r="4.18" style="fill:#009fe3"/><circle cx="108.05" cy="205.81" r="4.18" style="fill:#009fe3"/><circle cx="22.95" cy="158.57" r="4.18" style="fill:#e30613"/><circle cx="69" cy="154.73" r="4.18" style="fill:#e30613"/><circle cx="53.65" cy="158.57" r="4.18" style="fill:#e30613"/><circle cx="105.96" cy="191.91" r="4.18" style="fill:#009fe3"/><circle cx="108.05" cy="178.01" r="4.18" style="fill:#009fe3"/><circle cx="93.12" cy="191.29" r="4.18" style="fill:#009fe3"/><circle cx="98.68" cy="202.13" r="4.18" style="fill:#009fe3"/><circle cx="117.93" cy="187.11" r="4.18" style="fill:#009fe3"/><circle cx="64.12" cy="144.15" r="4.18" style="fill:#e30613"/><circle cx="37.34" cy="164.88" r="4.18" style="fill:#e30613"/><circle cx="24.28" cy="169.9" r="4.18" style="fill:#e30613"/><circle cx="117.93" cy="97.89" r="4.18" style="fill:#009640"/><line x1="254.48" y1="41.91" x2="254.48" y2="115.48" style="fill:none;stroke:#1d1d1b;stroke-linecap:round;stroke-miterlimit:10;stroke-width:0.9593781788324361px"/><polygon points="252.09 42.61 254.48 38.47 256.87 42.61 252.09 42.61" style="fill:#1d1d1b"/><line x1="397.85" y1="116.35" x2="254.48" y2="116.35" style="fill:none;stroke:#1d1d1b;stroke-linecap:round;stroke-miterlimit:10;stroke-width:0.9593781788324361px"/><polygon points="397.15 113.95 401.29 116.35 397.15 118.74 397.15 113.95" style="fill:#1d1d1b"/><path d="M268.87,108.2c10.68-.24,18.47-.47,24.06-.65,4.05-.13,8.93-.3,15.6,0,3.79.17,6.93.44,9.1.65" style="fill:none;stroke:#009640;stroke-linecap:round;stroke-miterlimit:10;stroke-width:1.9187563576648723px"/><path d="M318.4,107.39h0a212.58,212.58,0,0,1,8.45-19.51c6.94-14.07,10.54-21.17,16.9-24.7,4.38-2.43,10.72-2.7,23.41-3.25,7.88-.35,14.4-.2,18.85,0" style="fill:none;stroke:#e30613;stroke-linecap:round;stroke-miterlimit:10;stroke-width:1.9187563576648723px"/><path d="M377.29,104.83a130.91,130.91,0,0,0-17.23,1.32c-5.94.87-8.84,1.73-12.79,0s-4.18-4.06-7.78-4.61c-4.93-.76-10.57,2.63-10.57,2.63h0c-2.22,1.54-8.56,2.49-10.78,4" style="fill:none;stroke:#009fe3;stroke-linecap:round;stroke-miterlimit:10;stroke-width:1.9187563576648723px"/><rect x="544.66" y="39.32" width="81.69" height="84.47" style="fill:none;stroke:#1d1d1b;stroke-linecap:round;stroke-miterlimit:10;stroke-width:0.9593781788324361px"/><rect x="544.66" y="42.74" width="42.68" height="10.22" style="fill:#009640;stroke:#1d1d1b;stroke-linecap:round;stroke-miterlimit:10;stroke-width:0.9593781788324361px"/><rect x="587.34" y="42.74" width="20.24" height="10.22" style="fill:#e30613;stroke:#1d1d1b;stroke-linecap:round;stroke-miterlimit:10;stroke-width:0.9593781788324361px"/><rect x="607.58" y="42.74" width="18.77" height="10.22" style="fill:#009fe3;stroke:#1d1d1b;stroke-linecap:round;stroke-miterlimit:10;stroke-width:0.9593781788324361px"/><rect x="648.84" y="52.63" width="42.68" height="10.77" style="fill:#1b3a6a"/><rect x="711.75" y="52.63" width="18.77" height="10.77" style="fill:#1b3a6a"/><rect x="691.3" y="52.63" width="20.67" height="10.77" style="fill:url(#Dégradé_sans_nom_60)"/><rect x="648.84" y="62.75" width="42.68" height="10.77" style="fill:#1b3a6a"/><rect x="711.75" y="62.75" width="18.77" height="10.77" style="fill:#1b3a6a"/><rect x="691.3" y="62.75" width="20.67" height="10.77" style="fill:url(#Dégradé_sans_nom_62)"/><rect x="648.84" y="72.87" width="42.68" height="10.77" style="fill:#1b3a6a"/><rect x="711.75" y="72.87" width="18.77" height="10.77" style="fill:#1b3a6a"/><rect x="691.3" y="72.87" width="20.67" height="10.77" style="fill:url(#Dégradé_sans_nom_64)"/><rect x="648.84" y="82.99" width="42.68" height="10.77" style="fill:#1b3a6a"/><rect x="711.75" y="82.99" width="18.77" height="10.77" style="fill:#1b3a6a"/><rect x="691.3" y="82.99" width="20.67" height="10.77" style="fill:url(#Dégradé_sans_nom_67)"/><rect x="711.75" y="93.11" width="18.77" height="10.77" style="fill:#1b3a6a"/><rect x="691.3" y="93.11" width="20.67" height="10.77" style="fill:url(#Dégradé_sans_nom_67-2)"/><rect x="648.84" y="103.23" width="42.68" height="10.77" style="fill:#1b3a6a"/><rect x="711.75" y="103.23" width="18.77" height="10.77" style="fill:#1b3a6a"/><rect x="691.3" y="103.23" width="20.67" height="10.77" style="fill:url(#Dégradé_sans_nom_67-3)"/><rect x="648.84" y="113.2" width="42.68" height="10.77" style="fill:#1b3a6a"/><rect x="711.75" y="113.2" width="18.77" height="10.77" style="fill:#1b3a6a"/><rect x="691.3" y="113.2" width="20.67" height="10.77" style="fill:url(#Dégradé_sans_nom_70)"/><rect x="648.84" y="39.32" width="81.69" height="84.47" style="fill:none;stroke:#1d1d1b;stroke-linecap:round;stroke-miterlimit:10;stroke-width:0.9593781788324361px"/><rect x="648.84" y="42.74" width="42.68" height="10.22" style="fill:#009640;stroke:#1d1d1b;stroke-linecap:round;stroke-miterlimit:10;stroke-width:0.9593781788324361px"/><rect x="691.51" y="42.74" width="20.24" height="10.22" style="fill:#e30613;stroke:#1d1d1b;stroke-linecap:round;stroke-miterlimit:10;stroke-width:0.9593781788324361px"/><rect x="711.75" y="42.74" width="18.77" height="10.22" style="fill:#009fe3;stroke:#1d1d1b;stroke-linecap:round;stroke-miterlimit:10;stroke-width:0.9593781788324361px"/><rect x="439.73" y="72.87" width="42.68" height="10.77" style="fill:url(#Dégradé_sans_nom_97)"/><rect x="439.73" y="113.2" width="42.68" height="10.77" style="fill:url(#Dégradé_sans_nom_90)"/><rect x="502.64" y="52.63" width="18.77" height="10.77" style="fill:#1b3a6a"/><rect x="482.19" y="52.63" width="20.67" height="10.77" style="fill:#1b3a6a"/><rect x="439.73" y="103.23" width="42.68" height="10.77" style="fill:url(#Dégradé_sans_nom_91)"/><rect x="502.64" y="62.75" width="18.77" height="10.77" style="fill:#1b3a6a"/><rect x="482.19" y="62.75" width="20.67" height="10.77" style="fill:#1b3a6a"/><rect x="502.64" y="72.87" width="18.77" height="10.77" style="fill:#1b3a6a"/><rect x="482.19" y="72.87" width="20.67" height="10.77" style="fill:#1b3a6a"/><rect x="439.73" y="82.99" width="42.68" height="10.77" style="fill:url(#Dégradé_sans_nom_93)"/><rect x="502.64" y="82.99" width="18.77" height="10.77" style="fill:#1b3a6a"/><rect x="482.19" y="82.99" width="20.67" height="10.77" style="fill:#1b3a6a"/><rect x="502.64" y="93.11" width="18.77" height="10.77" style="fill:#1b3a6a"/><rect x="482.19" y="93.11" width="20.67" height="10.77" style="fill:#1b3a6a"/><rect x="439.73" y="62.75" width="42.68" height="10.77" style="fill:url(#Dégradé_sans_nom_100)"/><rect x="502.64" y="103.23" width="18.77" height="10.77" style="fill:#1b3a6a"/><rect x="482.19" y="103.23" width="20.67" height="10.77" style="fill:#1b3a6a"/><rect x="439.73" y="52.63" width="42.68" height="10.77" style="fill:url(#Dégradé_sans_nom_77)"/><rect x="502.64" y="113.2" width="18.77" height="10.77" style="fill:#1b3a6a"/><rect x="482.19" y="113.2" width="20.67" height="10.77" style="fill:#1b3a6a"/><rect x="439.73" y="39.32" width="81.69" height="84.47" style="fill:none;stroke:#1d1d1b;stroke-linecap:round;stroke-miterlimit:10;stroke-width:0.9593781788324361px"/><rect x="439.73" y="42.74" width="42.68" height="10.22" style="fill:#009640;stroke:#1d1d1b;stroke-linecap:round;stroke-miterlimit:10;stroke-width:0.9593781788324361px"/><rect x="482.41" y="42.74" width="20.24" height="10.22" style="fill:#e30613;stroke:#1d1d1b;stroke-linecap:round;stroke-miterlimit:10;stroke-width:0.9593781788324361px"/><rect x="502.64" y="42.74" width="18.77" height="10.22" style="fill:#009fe3;stroke:#1d1d1b;stroke-linecap:round;stroke-miterlimit:10;stroke-width:0.9593781788324361px"/><rect x="253.97" y="156.15" width="94.06" height="94.06" style="fill:none;stroke:#1d1d1b;stroke-miterlimit:10;stroke-width:0.9593781788324361px"/><circle cx="262.36" cy="243.29" r="2.39" style="fill:#009640"/><circle cx="266.74" cy="234.52" r="2.39" style="fill:#009640"/><circle cx="271.13" cy="243.29" r="2.39" style="fill:#009640"/><circle cx="275.52" cy="234.52" r="2.39" style="fill:#009640"/><circle cx="274.61" cy="227.95" r="2.39" style="fill:#009640"/><circle cx="282.51" cy="230.34" r="2.39" style="fill:#009640"/><circle cx="275.72" cy="221.14" r="2.39" style="fill:#009640"/><circle cx="283.45" cy="222.65" r="2.39" style="fill:#009640"/><circle cx="283.45" cy="213.87" r="2.39" style="fill:#009640"/><circle cx="292.22" cy="222.65" r="2.39" style="fill:#009640"/><circle cx="292.22" cy="213.87" r="2.39" style="fill:#009640"/><circle cx="292.22" cy="205.1" r="2.39" style="fill:#009640"/><circle cx="301" cy="213.87" r="2.39" style="fill:#e30613"/><circle cx="309.78" cy="213.87" r="2.39" style="fill:#e30613"/><circle cx="305.39" cy="218.26" r="2.39" style="fill:#e30613"/><circle cx="314.17" cy="222.65" r="2.39" style="fill:#e30613"/><circle cx="318.55" cy="213.87" r="2.39" style="fill:#e30613"/><circle cx="322.94" cy="222.65" r="2.39" style="fill:#e30613"/><circle cx="322.94" cy="231.43" r="2.39" style="fill:#e30613"/><circle cx="331.72" cy="227.04" r="2.39" style="fill:#e30613"/><circle cx="327.33" cy="218.26" r="2.39" style="fill:#e30613"/><circle cx="301" cy="205.1" r="2.39" style="fill:#e30613"/><circle cx="287.84" cy="194.87" r="2.39" style="fill:#009fe3"/><circle cx="279.06" cy="187.54" r="2.39" style="fill:#009fe3"/><circle cx="296.61" cy="196.32" r="2.39" style="fill:#009fe3"/><circle cx="287.84" cy="185.15" r="2.39" style="fill:#009fe3"/><circle cx="309.78" cy="205.1" r="2.39" style="fill:#e30613"/><circle cx="294.22" cy="188.74" r="2.39" style="fill:#009fe3"/><circle cx="280.38" cy="178.76" r="2.39" style="fill:#009fe3"/><circle cx="292.94" cy="179.92" r="2.39" style="fill:#009fe3"/><circle cx="285.84" cy="174.29" r="2.39" style="fill:#009fe3"/><circle cx="274.28" cy="172.6" r="2.39" style="fill:#009fe3"/><circle cx="278.67" cy="163.82" r="2.39" style="fill:#009fe3"/><rect x="383.16" y="156.15" width="94.06" height="94.06" style="fill:none;stroke:#1d1d1b;stroke-miterlimit:10;stroke-width:0.9593781788324361px"/><circle cx="391.55" cy="243.29" r="2.39" style="fill:#009640"/><circle cx="395.94" cy="234.52" r="2.39" style="fill:#009640"/><circle cx="400.32" cy="243.29" r="2.39" style="fill:#009640"/><circle cx="404.71" cy="234.52" r="2.39" style="fill:#009640"/><circle cx="403.8" cy="227.95" r="2.39" style="fill:#009640"/><circle cx="393.94" cy="243.87" r="2.39" style="fill:#009640"/><circle cx="395.94" cy="239.11" r="2.39" style="fill:#009640"/><circle cx="394.87" cy="236.18" r="2.39" style="fill:#009640"/><circle cx="394.87" cy="227.4" r="2.39" style="fill:#009640"/><circle cx="403.65" cy="236.18" r="2.39" style="fill:#009640"/><circle cx="399.65" cy="232.13" r="2.39" style="fill:#009640"/><circle cx="392.48" cy="236.18" r="2.39" style="fill:#009640"/><circle cx="419.06" cy="241.04" r="2.39" style="fill:#e30613"/><circle cx="425.93" cy="235.59" r="2.39" style="fill:#e30613"/><circle cx="425.22" cy="241.75" r="2.39" style="fill:#e30613"/><circle cx="434.82" cy="239.74" r="2.39" style="fill:#e30613"/><circle cx="464.34" cy="241.16" r="2.39" style="fill:#e30613"/><circle cx="441.7" cy="234.28" r="2.39" style="fill:#e30613"/><circle cx="447.16" cy="241.16" r="2.39" style="fill:#e30613"/><circle cx="451.3" cy="232.27" r="2.39" style="fill:#e30613"/><circle cx="457.17" cy="236.91" r="2.39" style="fill:#e30613"/><circle cx="413.6" cy="234.17" r="2.39" style="fill:#e30613"/><circle cx="394.59" cy="210.41" r="2.39" style="fill:#009fe3"/><circle cx="390.02" cy="199.92" r="2.39" style="fill:#009fe3"/><circle cx="396.33" cy="220.26" r="2.39" style="fill:#009fe3"/><circle cx="398.94" cy="201.71" r="2.39" style="fill:#009fe3"/><circle cx="461.95" cy="231.24" r="2.39" style="fill:#e30613"/><circle cx="403.46" cy="212.8" r="2.39" style="fill:#009fe3"/><circle cx="395.13" cy="192.66" r="2.39" style="fill:#009fe3"/><circle cx="396.33" cy="172.42" r="2.39" style="fill:#009fe3"/><circle cx="392.48" cy="166.03" r="2.39" style="fill:#009fe3"/><circle cx="392.42" cy="184.42" r="2.39" style="fill:#009fe3"/><circle cx="400.27" cy="178.53" r="2.39" style="fill:#009fe3"/><path d="M254.41,7.06V8.28h-5.28v3.84h4.51v1.21h-4.51v4.73h-1.5v-11Z" style="fill:#1d1d1b"/><path d="M257.93,7.85a1,1,0,0,1-.08.37,1.11,1.11,0,0,1-.22.3,1.16,1.16,0,0,1-.31.22.94.94,0,0,1-.37.07,1,1,0,0,1-.38-.07,1.29,1.29,0,0,1-.3-.22.9.9,0,0,1-.21-.3,1,1,0,0,1-.08-.37,1,1,0,0,1,.08-.38,1,1,0,0,1,.21-.32,1,1,0,0,1,.3-.21,1,1,0,0,1,.38-.08,1,1,0,0,1,.68.29,1.21,1.21,0,0,1,.22.32A1,1,0,0,1,257.93,7.85Zm-.31,2.44v7.77h-1.36V10.29Z" style="fill:#1d1d1b"/><path d="M262.39,18.18a1.88,1.88,0,0,1-1.42-.51,2.05,2.05,0,0,1-.49-1.48V11.43h-.94a.31.31,0,0,1-.21-.07.32.32,0,0,1-.08-.23v-.54l1.27-.17.32-2.4a.27.27,0,0,1,.1-.19.35.35,0,0,1,.21-.07h.69v2.68h2.23v1h-2.23V16.1a1,1,0,0,0,.24.72.83.83,0,0,0,.62.24,1.38,1.38,0,0,0,.37,0l.27-.13.19-.13a.29.29,0,0,1,.15-.06c.07,0,.13,0,.19.13l.4.66a2.7,2.7,0,0,1-.85.52A3.06,3.06,0,0,1,262.39,18.18Z" style="fill:#1d1d1b"/><path d="M268.11,18.18a1.87,1.87,0,0,1-1.41-.51,2.05,2.05,0,0,1-.5-1.48V11.43h-.93a.3.3,0,0,1-.21-.07.29.29,0,0,1-.09-.23v-.54l1.28-.17.31-2.4a.32.32,0,0,1,.1-.19.38.38,0,0,1,.22-.07h.69v2.68h2.22v1h-2.22V16.1a1,1,0,0,0,.24.72.81.81,0,0,0,.61.24,1.32,1.32,0,0,0,.37,0,2.51,2.51,0,0,0,.28-.13l.19-.13a.24.24,0,0,1,.14-.06.24.24,0,0,1,.19.13l.4.66a2.59,2.59,0,0,1-.85.52A3,3,0,0,1,268.11,18.18Z" style="fill:#1d1d1b"/><path d="M274.56,10.16a3.37,3.37,0,0,1,1.29.24,2.92,2.92,0,0,1,1,.67,3.08,3.08,0,0,1,.67,1.09,4.25,4.25,0,0,1,.24,1.48.85.85,0,0,1-.07.43.28.28,0,0,1-.26.11h-5.17a4.35,4.35,0,0,0,.2,1.28,2.51,2.51,0,0,0,.51.91,2,2,0,0,0,.76.54,2.66,2.66,0,0,0,1,.18,3,3,0,0,0,.89-.12,3.56,3.56,0,0,0,.64-.25,4.19,4.19,0,0,0,.45-.26.58.58,0,0,1,.31-.12.29.29,0,0,1,.26.13l.38.5a2.36,2.36,0,0,1-.6.53,3.6,3.6,0,0,1-.76.38,5.62,5.62,0,0,1-.83.22,6.22,6.22,0,0,1-.85.07,4,4,0,0,1-1.49-.27,3.39,3.39,0,0,1-1.17-.8,3.65,3.65,0,0,1-.77-1.3,5.16,5.16,0,0,1-.28-1.78,4.41,4.41,0,0,1,.25-1.52,3.6,3.6,0,0,1,.72-1.23,3.37,3.37,0,0,1,1.14-.81A3.72,3.72,0,0,1,274.56,10.16Zm0,1a2.11,2.11,0,0,0-1.56.57,2.67,2.67,0,0,0-.7,1.59h4.23a3.06,3.06,0,0,0-.13-.88,2,2,0,0,0-.39-.68,1.63,1.63,0,0,0-.62-.44A2,2,0,0,0,274.59,11.17Z" style="fill:#1d1d1b"/><path d="M285,18.06a.34.34,0,0,1-.37-.28l-.12-1a4.15,4.15,0,0,1-1.14,1,3.05,3.05,0,0,1-2.69.11,2.4,2.4,0,0,1-.92-.76,3.5,3.5,0,0,1-.6-1.24,6.75,6.75,0,0,1-.2-1.71,5.16,5.16,0,0,1,.23-1.6,3.94,3.94,0,0,1,.66-1.29,3.14,3.14,0,0,1,1.06-.85,3,3,0,0,1,1.41-.31,2.85,2.85,0,0,1,1.22.24,3,3,0,0,1,.91.68V6.76h1.36v11.3Zm-2.65-1a2.24,2.24,0,0,0,1.17-.3,3.6,3.6,0,0,0,.93-.87V12.13a2.17,2.17,0,0,0-.83-.71,2.31,2.31,0,0,0-1-.21A2,2,0,0,0,281,12a3.61,3.61,0,0,0-.58,2.21,5.43,5.43,0,0,0,.13,1.3,2.71,2.71,0,0,0,.38.89,1.55,1.55,0,0,0,.63.51A2,2,0,0,0,282.35,17.06Z" style="fill:#1d1d1b"/><path d="M291.38,18.06V11.45l-.86-.1a.56.56,0,0,1-.27-.12.26.26,0,0,1-.1-.23v-.56h1.23V9.69a3.63,3.63,0,0,1,.18-1.19,2.47,2.47,0,0,1,.54-.87,2.17,2.17,0,0,1,.84-.54,3,3,0,0,1,1.11-.19,3,3,0,0,1,1,.15l0,.69a.17.17,0,0,1-.13.18,1.46,1.46,0,0,1-.34,0h-.24a2.11,2.11,0,0,0-.64.09,1.48,1.48,0,0,0-.5.3,1.4,1.4,0,0,0-.32.55,2.8,2.8,0,0,0-.11.84v.71H295v1h-2.2v6.63Z" style="fill:#1d1d1b"/><path d="M299.32,10.16a3.44,3.44,0,0,1,1.29.24,2.92,2.92,0,0,1,1,.67,3.08,3.08,0,0,1,.67,1.09,4.25,4.25,0,0,1,.24,1.48.85.85,0,0,1-.07.43.28.28,0,0,1-.26.11H297a4.35,4.35,0,0,0,.2,1.28,2.51,2.51,0,0,0,.51.91,2,2,0,0,0,.76.54,2.66,2.66,0,0,0,1,.18,3,3,0,0,0,.89-.12,3.56,3.56,0,0,0,.64-.25,4.19,4.19,0,0,0,.45-.26.58.58,0,0,1,.31-.12.29.29,0,0,1,.26.13l.38.5a2.54,2.54,0,0,1-.6.53,3.6,3.6,0,0,1-.76.38,6,6,0,0,1-.83.22,6.22,6.22,0,0,1-.85.07,4,4,0,0,1-1.49-.27,3.39,3.39,0,0,1-1.17-.8,3.65,3.65,0,0,1-.77-1.3,5.16,5.16,0,0,1-.28-1.78,4.41,4.41,0,0,1,.25-1.52,3.44,3.44,0,0,1,.72-1.23,3.37,3.37,0,0,1,1.14-.81A3.72,3.72,0,0,1,299.32,10.16Zm0,1a2.11,2.11,0,0,0-1.56.57,2.67,2.67,0,0,0-.7,1.59h4.22a2.75,2.75,0,0,0-.13-.88,1.82,1.82,0,0,0-.38-.68,1.63,1.63,0,0,0-.62-.44A2,2,0,0,0,299.35,11.17Z" style="fill:#1d1d1b"/><path d="M310,18.06h-.6a.73.73,0,0,1-.32-.06.31.31,0,0,1-.16-.26l-.16-.72a6.46,6.46,0,0,1-.6.49,3.2,3.2,0,0,1-.61.37,3.29,3.29,0,0,1-.69.23,4,4,0,0,1-.81.07,3,3,0,0,1-.85-.12,2.14,2.14,0,0,1-.68-.38A1.85,1.85,0,0,1,304,17a2.32,2.32,0,0,1-.17-.92,1.72,1.72,0,0,1,.25-.89,2.25,2.25,0,0,1,.82-.76,5.36,5.36,0,0,1,1.48-.54,10.11,10.11,0,0,1,2.23-.21V13.1a2.1,2.1,0,0,0-.39-1.38,1.39,1.39,0,0,0-1.14-.47,2.47,2.47,0,0,0-.84.13,3,3,0,0,0-.59.28l-.43.29a.67.67,0,0,1-.36.12.4.4,0,0,1-.24-.07.58.58,0,0,1-.17-.18l-.24-.44a4.58,4.58,0,0,1,1.39-.93,4.32,4.32,0,0,1,1.64-.3,3,3,0,0,1,1.16.21,2.55,2.55,0,0,1,.86.6,2.64,2.64,0,0,1,.52.93,3.78,3.78,0,0,1,.17,1.2Zm-3.54-.84a2.73,2.73,0,0,0,.66-.07,2.49,2.49,0,0,0,.56-.21,2.72,2.72,0,0,0,.51-.32,4.81,4.81,0,0,0,.47-.44v-1.6a9.08,9.08,0,0,0-1.6.12A4.54,4.54,0,0,0,306,15a1.63,1.63,0,0,0-.6.45,1,1,0,0,0-.19.59,1.39,1.39,0,0,0,.1.53,1.14,1.14,0,0,0,.27.37,1.09,1.09,0,0,0,.4.21A2,2,0,0,0,306.45,17.22Z" style="fill:#1d1d1b"/><path d="M314.42,18.18a1.87,1.87,0,0,1-1.41-.51,2.05,2.05,0,0,1-.5-1.48V11.43h-.94a.27.27,0,0,1-.2-.07.29.29,0,0,1-.09-.23v-.54l1.28-.17.31-2.4a.32.32,0,0,1,.1-.19.38.38,0,0,1,.22-.07h.69v2.68h2.22v1h-2.22V16.1a1,1,0,0,0,.24.72.81.81,0,0,0,.61.24,1.32,1.32,0,0,0,.37,0,1.71,1.71,0,0,0,.27-.13l.2-.13a.24.24,0,0,1,.14-.06.24.24,0,0,1,.19.13l.4.66a2.59,2.59,0,0,1-.85.52A3,3,0,0,1,314.42,18.18Z" style="fill:#1d1d1b"/><path d="M319,10.29v5a2.07,2.07,0,0,0,.41,1.37,1.52,1.52,0,0,0,1.23.48,2.36,2.36,0,0,0,1.13-.28,3.55,3.55,0,0,0,1-.79V10.29h1.37v7.77h-.82a.34.34,0,0,1-.36-.28l-.11-.84a4.44,4.44,0,0,1-1.14.9,3,3,0,0,1-1.44.34,2.76,2.76,0,0,1-1.12-.21,2.24,2.24,0,0,1-.82-.59,2.6,2.6,0,0,1-.5-.93,4.17,4.17,0,0,1-.16-1.21v-5Z" style="fill:#1d1d1b"/><path d="M326.33,18.06V10.29h.78a.43.43,0,0,1,.31.08.57.57,0,0,1,.11.29l.09,1.21a3.7,3.7,0,0,1,1-1.27,2.2,2.2,0,0,1,1.38-.45,2.1,2.1,0,0,1,.58.07,2.39,2.39,0,0,1,.49.2l-.18,1a.24.24,0,0,1-.24.2,1.25,1.25,0,0,1-.33-.08,2.46,2.46,0,0,0-.62-.07,1.73,1.73,0,0,0-1.19.42,3.08,3.08,0,0,0-.81,1.2v4.95Z" style="fill:#1d1d1b"/><path d="M335.59,10.16a3.37,3.37,0,0,1,1.29.24,2.92,2.92,0,0,1,1,.67,3.08,3.08,0,0,1,.67,1.09,4.25,4.25,0,0,1,.24,1.48.85.85,0,0,1-.07.43.28.28,0,0,1-.26.11h-5.17a4.35,4.35,0,0,0,.2,1.28,2.51,2.51,0,0,0,.51.91,2,2,0,0,0,.76.54,2.66,2.66,0,0,0,1,.18,3,3,0,0,0,.89-.12,3.56,3.56,0,0,0,.64-.25,4.19,4.19,0,0,0,.45-.26.58.58,0,0,1,.31-.12.29.29,0,0,1,.26.13l.38.5a2.36,2.36,0,0,1-.6.53,3.6,3.6,0,0,1-.76.38,5.62,5.62,0,0,1-.83.22,6.22,6.22,0,0,1-.85.07,4,4,0,0,1-1.49-.27,3.39,3.39,0,0,1-1.17-.8,3.65,3.65,0,0,1-.77-1.3A5.16,5.16,0,0,1,332,14a4.41,4.41,0,0,1,.25-1.52,3.76,3.76,0,0,1,.72-1.23,3.37,3.37,0,0,1,1.14-.81A3.72,3.72,0,0,1,335.59,10.16Zm0,1a2.11,2.11,0,0,0-1.56.57,2.67,2.67,0,0,0-.7,1.59h4.23a3.06,3.06,0,0,0-.13-.88,2,2,0,0,0-.39-.68,1.63,1.63,0,0,0-.62-.44A2,2,0,0,0,335.62,11.17Z" style="fill:#1d1d1b"/><path d="M345,11.57a.31.31,0,0,1-.29.17.54.54,0,0,1-.26-.09l-.35-.19c-.15-.06-.31-.13-.51-.19a2.31,2.31,0,0,0-.69-.09,2,2,0,0,0-.62.09,1.6,1.6,0,0,0-.47.24,1.25,1.25,0,0,0-.3.36,1,1,0,0,0-.1.44.71.71,0,0,0,.17.5,1.63,1.63,0,0,0,.45.35,4.41,4.41,0,0,0,.65.25l.74.24.74.28a2.5,2.5,0,0,1,.65.39,1.77,1.77,0,0,1,.45.56,1.66,1.66,0,0,1,.18.8,2.55,2.55,0,0,1-.2,1,2.28,2.28,0,0,1-.56.79,2.88,2.88,0,0,1-.93.52,3.69,3.69,0,0,1-1.25.19,3.87,3.87,0,0,1-1.48-.26,3.77,3.77,0,0,1-1.12-.68l.32-.52a.46.46,0,0,1,.15-.16.48.48,0,0,1,.22,0,.53.53,0,0,1,.29.11l.38.24a3,3,0,0,0,.53.23,2.63,2.63,0,0,0,1.47,0,1.42,1.42,0,0,0,.5-.28,1.17,1.17,0,0,0,.3-.41,1.33,1.33,0,0,0,.09-.49.77.77,0,0,0-.17-.53,1.42,1.42,0,0,0-.46-.36,4.25,4.25,0,0,0-.64-.27l-.75-.23a6.61,6.61,0,0,1-.74-.28,2.37,2.37,0,0,1-.65-.4,1.77,1.77,0,0,1-.46-.58,2,2,0,0,1-.17-.85,2.14,2.14,0,0,1,.18-.86,2.2,2.2,0,0,1,.54-.72,2.44,2.44,0,0,1,.87-.49,3.26,3.26,0,0,1,1.17-.19,3.77,3.77,0,0,1,1.38.24,3.32,3.32,0,0,1,1.05.67Z" style="fill:#1d1d1b"/><path d="M355.48,11.67a.77.77,0,0,1-.12.13.29.29,0,0,1-.17,0,.45.45,0,0,1-.25-.09,3.33,3.33,0,0,0-.85-.42,2.2,2.2,0,0,0-.72-.1,2.46,2.46,0,0,0-1,.2,1.91,1.91,0,0,0-.73.59,2.69,2.69,0,0,0-.45.93,4.58,4.58,0,0,0-.15,1.22,4.68,4.68,0,0,0,.16,1.25,2.7,2.7,0,0,0,.46.93,1.94,1.94,0,0,0,.71.56,2.2,2.2,0,0,0,.94.2,2.41,2.41,0,0,0,.82-.12,3.41,3.41,0,0,0,.54-.26,4.4,4.4,0,0,0,.35-.27.41.41,0,0,1,.27-.12.3.3,0,0,1,.27.13l.38.5a2.9,2.9,0,0,1-1.27.91,4.5,4.5,0,0,1-1.6.29,3.4,3.4,0,0,1-1.36-.27,3.18,3.18,0,0,1-1.08-.78,3.75,3.75,0,0,1-.73-1.25,5.28,5.28,0,0,1-.26-1.7,5.11,5.11,0,0,1,.24-1.6,3.49,3.49,0,0,1,.71-1.27,3.19,3.19,0,0,1,1.14-.84,3.89,3.89,0,0,1,1.57-.3,3.63,3.63,0,0,1,1.44.27,3.34,3.34,0,0,1,1.12.75Z" style="fill:#1d1d1b"/><path d="M358.87,6.76v11.3H357.5V6.76Z" style="fill:#1d1d1b"/><path d="M362.46,10.29v5a2.07,2.07,0,0,0,.41,1.37,1.52,1.52,0,0,0,1.23.48,2.33,2.33,0,0,0,1.12-.28,3.45,3.45,0,0,0,1-.79V10.29h1.36v7.77h-.81a.35.35,0,0,1-.37-.28l-.1-.84a4.44,4.44,0,0,1-1.14.9,3,3,0,0,1-1.44.34,2.85,2.85,0,0,1-1.13-.21,2.33,2.33,0,0,1-.82-.59,2.58,2.58,0,0,1-.49-.93,4.16,4.16,0,0,1-.17-1.21v-5Z" style="fill:#1d1d1b"/><path d="M374.26,11.57a.3.3,0,0,1-.28.17.51.51,0,0,1-.26-.09l-.36-.19c-.14-.06-.31-.13-.5-.19a2.36,2.36,0,0,0-.69-.09,2,2,0,0,0-.62.09,1.66,1.66,0,0,0-.48.24,1.39,1.39,0,0,0-.29.36,1,1,0,0,0-.11.44.71.71,0,0,0,.18.5,1.5,1.5,0,0,0,.45.35,4.41,4.41,0,0,0,.65.25l.74.24.74.28a2.44,2.44,0,0,1,.64.39,1.63,1.63,0,0,1,.63,1.36,2.54,2.54,0,0,1-.19,1,2.31,2.31,0,0,1-.57.79A2.83,2.83,0,0,1,373,18a3.71,3.71,0,0,1-1.26.19,3.85,3.85,0,0,1-1.47-.26,3.77,3.77,0,0,1-1.12-.68l.32-.52a.46.46,0,0,1,.15-.16.45.45,0,0,1,.22,0,.53.53,0,0,1,.29.11l.37.24a3.82,3.82,0,0,0,.53.23,2.22,2.22,0,0,0,.78.11,2.11,2.11,0,0,0,.7-.1,1.42,1.42,0,0,0,.5-.28,1.14,1.14,0,0,0,.29-.41,1.16,1.16,0,0,0,.1-.49.82.82,0,0,0-.17-.53,1.54,1.54,0,0,0-.46-.36,4,4,0,0,0-.65-.27l-.74-.23a6.77,6.77,0,0,1-.75-.28,2.53,2.53,0,0,1-.65-.4,1.74,1.74,0,0,1-.45-.58,1.87,1.87,0,0,1-.18-.85,2.15,2.15,0,0,1,.19-.86,2.07,2.07,0,0,1,.54-.72,2.48,2.48,0,0,1,.86-.49,3.36,3.36,0,0,1,1.18-.19,3.77,3.77,0,0,1,1.38.24,3.56,3.56,0,0,1,1.05.67Z" style="fill:#1d1d1b"/><path d="M378.83,18.18a1.9,1.9,0,0,1-1.42-.51,2.05,2.05,0,0,1-.49-1.48V11.43H376a.27.27,0,0,1-.2-.07.29.29,0,0,1-.09-.23v-.54l1.28-.17.31-2.4a.27.27,0,0,1,.1-.19.38.38,0,0,1,.22-.07h.69v2.68h2.22v1h-2.22V16.1a1,1,0,0,0,.23.72.84.84,0,0,0,.62.24,1.32,1.32,0,0,0,.37,0,1.71,1.71,0,0,0,.27-.13l.2-.13a.24.24,0,0,1,.14-.06.24.24,0,0,1,.19.13l.4.66a2.59,2.59,0,0,1-.85.52A3,3,0,0,1,378.83,18.18Z" style="fill:#1d1d1b"/><path d="M385.28,10.16a3.44,3.44,0,0,1,1.29.24,2.92,2.92,0,0,1,1,.67,3.23,3.23,0,0,1,.67,1.09,4.25,4.25,0,0,1,.24,1.48.85.85,0,0,1-.07.43.28.28,0,0,1-.26.11H383a4,4,0,0,0,.2,1.28,2.65,2.65,0,0,0,.5.91,2.16,2.16,0,0,0,.77.54,2.66,2.66,0,0,0,1,.18,3,3,0,0,0,.89-.12,3.89,3.89,0,0,0,.64-.25,4.19,4.19,0,0,0,.45-.26.58.58,0,0,1,.31-.12.29.29,0,0,1,.26.13l.38.5a2.54,2.54,0,0,1-.6.53,3.6,3.6,0,0,1-.76.38,6,6,0,0,1-.83.22,6.22,6.22,0,0,1-.85.07,4,4,0,0,1-1.49-.27,3.39,3.39,0,0,1-1.17-.8,3.82,3.82,0,0,1-.78-1.3,5.41,5.41,0,0,1-.27-1.78,4.41,4.41,0,0,1,.25-1.52,3.44,3.44,0,0,1,.72-1.23,3.37,3.37,0,0,1,1.14-.81A3.72,3.72,0,0,1,385.28,10.16Zm0,1a2.11,2.11,0,0,0-1.56.57,2.73,2.73,0,0,0-.71,1.59h4.23a2.75,2.75,0,0,0-.13-.88,1.82,1.82,0,0,0-.38-.68,1.71,1.71,0,0,0-.62-.44A2,2,0,0,0,385.31,11.17Z" style="fill:#1d1d1b"/><path d="M390.24,18.06V10.29H391a.4.4,0,0,1,.3.08.49.49,0,0,1,.12.29l.09,1.21a3.7,3.7,0,0,1,1-1.27,2.37,2.37,0,0,1,2-.38,2.55,2.55,0,0,1,.48.2l-.18,1a.23.23,0,0,1-.23.2,1.17,1.17,0,0,1-.33-.08,2.46,2.46,0,0,0-.62-.07,1.76,1.76,0,0,0-1.2.42,3,3,0,0,0-.8,1.2v4.95Z" style="fill:#1d1d1b"/><path d="M398.26,7.85a1,1,0,0,1-.08.37,1.11,1.11,0,0,1-.22.3,1.16,1.16,0,0,1-.31.22,1,1,0,0,1-.38.07.94.94,0,0,1-.37-.07,1.09,1.09,0,0,1-.52-.52.94.94,0,0,1-.07-.37,1,1,0,0,1,.07-.38,1.48,1.48,0,0,1,.21-.32,1.06,1.06,0,0,1,.31-.21,1,1,0,0,1,.37-.08,1,1,0,0,1,.38.08,1,1,0,0,1,.31.21,1.21,1.21,0,0,1,.22.32A1,1,0,0,1,398.26,7.85ZM398,10.29v7.77h-1.37V10.29Z" style="fill:#1d1d1b"/><path d="M400.36,18.06V10.29h.81a.34.34,0,0,1,.37.28l.11.84a4.39,4.39,0,0,1,1.13-.9,3,3,0,0,1,1.45-.35,2.8,2.8,0,0,1,1.12.21,2,2,0,0,1,.81.6,2.57,2.57,0,0,1,.5.94,4.09,4.09,0,0,1,.17,1.2v4.95h-1.37V13.11a2.09,2.09,0,0,0-.4-1.37,1.52,1.52,0,0,0-1.23-.49,2.32,2.32,0,0,0-1.13.29,3.83,3.83,0,0,0-1,.8v5.72Z" style="fill:#1d1d1b"/><path d="M411.51,10.16a3.64,3.64,0,0,1,.95.11,3,3,0,0,1,.8.32h2.11v.51c0,.17-.11.28-.32.32l-.88.12a2.53,2.53,0,0,1,0,2.15,2.36,2.36,0,0,1-.61.79,2.74,2.74,0,0,1-.92.51,3.59,3.59,0,0,1-1.17.18,4.27,4.27,0,0,1-1-.13,1.36,1.36,0,0,0-.37.34.66.66,0,0,0-.13.35.49.49,0,0,0,.23.44,1.4,1.4,0,0,0,.59.21,5.13,5.13,0,0,0,.83.06h1a5,5,0,0,1,1,.09,2.6,2.6,0,0,1,.84.28,1.51,1.51,0,0,1,.59.53,1.61,1.61,0,0,1,.23.89,2.16,2.16,0,0,1-.25,1,2.83,2.83,0,0,1-.72.84,3.66,3.66,0,0,1-1.15.59,4.81,4.81,0,0,1-1.52.22,5.63,5.63,0,0,1-1.5-.17,3.45,3.45,0,0,1-1.06-.45,2,2,0,0,1-.63-.66,1.58,1.58,0,0,1-.21-.78,1.43,1.43,0,0,1,.36-1,2.5,2.5,0,0,1,1-.64,1.34,1.34,0,0,1-.52-.41,1.1,1.1,0,0,1-.2-.68,1.07,1.07,0,0,1,.06-.35,1.57,1.57,0,0,1,.19-.36,2.45,2.45,0,0,1,.31-.34,2.65,2.65,0,0,1,.43-.28,2.4,2.4,0,0,1-.9-.86,2.3,2.3,0,0,1-.33-1.24,2.43,2.43,0,0,1,.22-1,2.4,2.4,0,0,1,.61-.8,3,3,0,0,1,.93-.5A3.81,3.81,0,0,1,411.51,10.16Zm2.43,8.3a.73.73,0,0,0-.16-.48,1.15,1.15,0,0,0-.44-.28,2.88,2.88,0,0,0-.64-.14,4.62,4.62,0,0,0-.76,0h-.81a2.9,2.9,0,0,1-.79-.11,2.16,2.16,0,0,0-.71.51,1,1,0,0,0-.28.72.92.92,0,0,0,.14.48,1.05,1.05,0,0,0,.41.4,2.62,2.62,0,0,0,.69.26,4.78,4.78,0,0,0,1,.09,4.25,4.25,0,0,0,1-.1,2.38,2.38,0,0,0,.74-.29,1.43,1.43,0,0,0,.47-.44A1.17,1.17,0,0,0,413.94,18.46Zm-2.43-4.2a2.29,2.29,0,0,0,.73-.11,1.54,1.54,0,0,0,.54-.33,1.27,1.27,0,0,0,.32-.49,1.81,1.81,0,0,0,.11-.63,1.51,1.51,0,0,0-.44-1.14,1.74,1.74,0,0,0-1.26-.42,1.7,1.7,0,0,0-1.25.42,1.51,1.51,0,0,0-.44,1.14,1.81,1.81,0,0,0,.11.63,1.41,1.41,0,0,0,.33.49,1.49,1.49,0,0,0,.53.33A2.27,2.27,0,0,0,411.51,14.26Z" style="fill:#1d1d1b"/><path d="M423.64,6.94a2.82,2.82,0,0,1,1.11.2,2.92,2.92,0,0,1,.86.51,2.44,2.44,0,0,1,.58.75,2.36,2.36,0,0,1,.24.89l-.85.17h-.07a.32.32,0,0,1-.19-.05.27.27,0,0,1-.12-.19A2.41,2.41,0,0,0,425,8.8a1.61,1.61,0,0,0-.31-.39,1.66,1.66,0,0,0-.45-.29,1.46,1.46,0,0,0-.62-.11,1.92,1.92,0,0,0-.69.12,1.42,1.42,0,0,0-.52.34,1.57,1.57,0,0,0-.34.51,1.85,1.85,0,0,0,0,1.16,2.47,2.47,0,0,0,.19.49,3.54,3.54,0,0,0,.34.52,6,6,0,0,0,.5.56l3.16,3.21a5.19,5.19,0,0,0,.47-1.08,6.29,6.29,0,0,0,.23-1.13.4.4,0,0,1,.09-.23.26.26,0,0,1,.22-.08h.84A6,6,0,0,1,427,15.73l2.3,2.33H428a1.25,1.25,0,0,1-.36,0,.92.92,0,0,1-.3-.23l-1.11-1.11a5.37,5.37,0,0,1-1.66,1.11,5.2,5.2,0,0,1-2.07.4,3.78,3.78,0,0,1-1.2-.2,3.19,3.19,0,0,1-1.06-.61,3,3,0,0,1-.75-1,2.83,2.83,0,0,1-.28-1.28,2.88,2.88,0,0,1,.18-1,3.34,3.34,0,0,1,.5-.88,3.47,3.47,0,0,1,.75-.73,5.36,5.36,0,0,1,1-.56,4.55,4.55,0,0,1-.69-1.15,3.07,3.07,0,0,1-.22-1.16,2.84,2.84,0,0,1,.2-1.05,2.41,2.41,0,0,1,.59-.85,2.76,2.76,0,0,1,.93-.58A3.45,3.45,0,0,1,423.64,6.94Zm-3,8.08a2,2,0,0,0,.18.88,2,2,0,0,0,.49.64,2,2,0,0,0,.68.4,2.28,2.28,0,0,0,.78.13,3.62,3.62,0,0,0,1.54-.31,4.1,4.1,0,0,0,1.21-.84l-3.25-3.28a3.27,3.27,0,0,0-1.22,1A2.29,2.29,0,0,0,420.6,15Z" style="fill:#1d1d1b"/><path d="M432.47,10.29h1.12a.4.4,0,0,1,.27.08.48.48,0,0,1,.15.2l2,5c.07.19.12.37.17.56s.07.36.11.54c0-.18.08-.36.13-.54s.11-.37.18-.56l2-5a.43.43,0,0,1,.15-.2.38.38,0,0,1,.26-.08h1.07l-3.17,7.77h-1.24Z" style="fill:#1d1d1b"/><path d="M443.14,7.85a1,1,0,0,1-.08.37,1.11,1.11,0,0,1-.22.3,1.16,1.16,0,0,1-.31.22.94.94,0,0,1-.37.07,1,1,0,0,1-.38-.07,1.29,1.29,0,0,1-.3-.22.9.9,0,0,1-.21-.3.8.8,0,0,1-.08-.37.81.81,0,0,1,.08-.38,1,1,0,0,1,.21-.32,1,1,0,0,1,.3-.21,1,1,0,0,1,.38-.08,1,1,0,0,1,.68.29,1.21,1.21,0,0,1,.22.32A1,1,0,0,1,443.14,7.85Zm-.31,2.44v7.77h-1.36V10.29Z" style="fill:#1d1d1b"/><path d="M449.69,11.57a.3.3,0,0,1-.28.17.48.48,0,0,1-.26-.09l-.36-.19c-.14-.06-.31-.13-.5-.19a2.4,2.4,0,0,0-.69-.09,2,2,0,0,0-.62.09,1.54,1.54,0,0,0-.48.24,1.25,1.25,0,0,0-.3.36,1.09,1.09,0,0,0-.1.44.76.76,0,0,0,.17.5,1.69,1.69,0,0,0,.46.35,4.27,4.27,0,0,0,.64.25l.75.24.74.28a2.44,2.44,0,0,1,.64.39,1.63,1.63,0,0,1,.63,1.36,2.54,2.54,0,0,1-.19,1,2.31,2.31,0,0,1-.57.79,2.83,2.83,0,0,1-.92.52,3.71,3.71,0,0,1-1.26.19,3.85,3.85,0,0,1-1.47-.26,3.64,3.64,0,0,1-1.12-.68l.32-.52a.46.46,0,0,1,.15-.16.45.45,0,0,1,.22,0,.53.53,0,0,1,.29.11l.37.24a3.36,3.36,0,0,0,.53.23,2.22,2.22,0,0,0,.78.11,2.11,2.11,0,0,0,.7-.1,1.51,1.51,0,0,0,.5-.28,1.14,1.14,0,0,0,.29-.41,1.16,1.16,0,0,0,.1-.49.82.82,0,0,0-.17-.53,1.54,1.54,0,0,0-.46-.36,4.39,4.39,0,0,0-.65-.27l-.74-.23a6.09,6.09,0,0,1-.75-.28,2.53,2.53,0,0,1-.65-.4,1.62,1.62,0,0,1-.45-.58,1.87,1.87,0,0,1-.18-.85,2.15,2.15,0,0,1,.19-.86,2.07,2.07,0,0,1,.54-.72,2.48,2.48,0,0,1,.86-.49,3.36,3.36,0,0,1,1.18-.19,3.77,3.77,0,0,1,1.38.24,3.56,3.56,0,0,1,1.05.67Z" style="fill:#1d1d1b"/><path d="M453.09,10.29v5a2.07,2.07,0,0,0,.4,1.37,1.52,1.52,0,0,0,1.23.48,2.34,2.34,0,0,0,1.13-.28,3.41,3.41,0,0,0,1-.79V10.29h1.37v7.77h-.81a.34.34,0,0,1-.37-.28l-.11-.84a4.44,4.44,0,0,1-1.14.9,3,3,0,0,1-1.44.34A2.8,2.8,0,0,1,453.2,18a2.24,2.24,0,0,1-.82-.59,2.6,2.6,0,0,1-.5-.93,4.17,4.17,0,0,1-.16-1.21v-5Z" style="fill:#1d1d1b"/><path d="M466.15,18.06h-.61a.73.73,0,0,1-.32-.06.33.33,0,0,1-.16-.26l-.15-.72c-.21.18-.41.35-.6.49a3.28,3.28,0,0,1-.62.37,2.94,2.94,0,0,1-.69.23,4,4,0,0,1-.8.07,2.86,2.86,0,0,1-.85-.12,2.09,2.09,0,0,1-.69-.38,1.82,1.82,0,0,1-.46-.65,2.16,2.16,0,0,1-.18-.92,1.73,1.73,0,0,1,.26-.89,2.3,2.3,0,0,1,.81-.76,5.36,5.36,0,0,1,1.48-.54,10.11,10.11,0,0,1,2.23-.21V13.1a2.1,2.1,0,0,0-.38-1.38,1.41,1.41,0,0,0-1.15-.47,2.56,2.56,0,0,0-.84.13,3,3,0,0,0-.59.28l-.43.29a.65.65,0,0,1-.36.12.4.4,0,0,1-.24-.07.55.55,0,0,1-.16-.18l-.25-.44a4.58,4.58,0,0,1,1.39-.93,4.33,4.33,0,0,1,1.65-.3,3,3,0,0,1,1.16.21,2.51,2.51,0,0,1,.85.6,2.64,2.64,0,0,1,.52.93,3.78,3.78,0,0,1,.18,1.2Zm-3.55-.84a2.73,2.73,0,0,0,.66-.07,2.78,2.78,0,0,0,.57-.21,3,3,0,0,0,.5-.32,4.81,4.81,0,0,0,.47-.44v-1.6a9.16,9.16,0,0,0-1.6.12,4.31,4.31,0,0,0-1.07.31,1.59,1.59,0,0,0-.61.45,1,1,0,0,0-.18.59,1.22,1.22,0,0,0,.1.53,1,1,0,0,0,.26.37,1.18,1.18,0,0,0,.4.21A2,2,0,0,0,462.6,17.22Z" style="fill:#1d1d1b"/><path d="M469.74,6.76v11.3h-1.37V6.76Z" style="fill:#1d1d1b"/><path d="M474,7.85a1,1,0,0,1-.08.37,1.11,1.11,0,0,1-.22.3,1.16,1.16,0,0,1-.31.22,1,1,0,0,1-.38.07.94.94,0,0,1-.37-.07,1.09,1.09,0,0,1-.52-.52.94.94,0,0,1-.07-.37,1,1,0,0,1,.07-.38,1.48,1.48,0,0,1,.21-.32,1.06,1.06,0,0,1,.31-.21,1,1,0,0,1,.37-.08,1,1,0,0,1,.38.08,1,1,0,0,1,.31.21,1.21,1.21,0,0,1,.22.32A1,1,0,0,1,474,7.85Zm-.31,2.44v7.77H472.3V10.29Z" style="fill:#1d1d1b"/><path d="M480.53,11.57a.31.31,0,0,1-.28.17.48.48,0,0,1-.26-.09l-.36-.19c-.14-.06-.31-.13-.5-.19a2.4,2.4,0,0,0-.69-.09,2,2,0,0,0-.63.09,1.6,1.6,0,0,0-.47.24,1.25,1.25,0,0,0-.3.36,1,1,0,0,0-.1.44.76.76,0,0,0,.17.5,1.69,1.69,0,0,0,.46.35,4.27,4.27,0,0,0,.64.25l.74.24.74.28a2.5,2.5,0,0,1,.65.39,1.63,1.63,0,0,1,.63,1.36,2.74,2.74,0,0,1-.19,1,2.31,2.31,0,0,1-.57.79,2.83,2.83,0,0,1-.92.52,4,4,0,0,1-3.86-.75l.33-.52a.56.56,0,0,1,.14-.16.49.49,0,0,1,.23,0,.55.55,0,0,1,.29.11l.37.24a3.36,3.36,0,0,0,.53.23,2.22,2.22,0,0,0,.78.11,2.15,2.15,0,0,0,.7-.1,1.37,1.37,0,0,0,.49-.28,1.06,1.06,0,0,0,.3-.41,1.34,1.34,0,0,0,.1-.49.77.77,0,0,0-.18-.53,1.38,1.38,0,0,0-.45-.36,4.39,4.39,0,0,0-.65-.27l-.75-.23a6.61,6.61,0,0,1-.74-.28,2.53,2.53,0,0,1-.65-.4,1.77,1.77,0,0,1-.46-.58,2.12,2.12,0,0,1,0-1.71,2.17,2.17,0,0,1,.53-.72,2.63,2.63,0,0,1,.87-.49,3.28,3.28,0,0,1,1.18-.19,3.68,3.68,0,0,1,1.37.24,3.48,3.48,0,0,1,1.06.67Z" style="fill:#1d1d1b"/><path d="M488.45,18.06h-.6a.75.75,0,0,1-.33-.06.36.36,0,0,1-.16-.26l-.15-.72c-.21.18-.41.35-.6.49a3.55,3.55,0,0,1-.61.37,3.29,3.29,0,0,1-.69.23,4,4,0,0,1-.81.07,2.91,2.91,0,0,1-.85-.12,2.31,2.31,0,0,1-.69-.38,2,2,0,0,1-.46-.65,2.16,2.16,0,0,1-.17-.92,1.72,1.72,0,0,1,.25-.89,2.25,2.25,0,0,1,.82-.76,5.28,5.28,0,0,1,1.47-.54,10.21,10.21,0,0,1,2.24-.21V13.1a2.1,2.1,0,0,0-.39-1.38,1.41,1.41,0,0,0-1.15-.47,2.56,2.56,0,0,0-.84.13,3.6,3.6,0,0,0-.59.28l-.43.29a.64.64,0,0,1-.35.12.41.41,0,0,1-.25-.07.55.55,0,0,1-.16-.18l-.25-.44a4.71,4.71,0,0,1,1.39-.93,4.4,4.4,0,0,1,1.65-.3,3,3,0,0,1,1.16.21,2.51,2.51,0,0,1,.85.6,2.66,2.66,0,0,1,.53.93,4.09,4.09,0,0,1,.17,1.2Zm-3.54-.84a2.73,2.73,0,0,0,.66-.07,2.69,2.69,0,0,0,.56-.21,2.72,2.72,0,0,0,.51-.32,6.31,6.31,0,0,0,.47-.44v-1.6a9.2,9.2,0,0,0-1.61.12,4.45,4.45,0,0,0-1.07.31,1.47,1.47,0,0,0-.6.45,1,1,0,0,0-.19.59,1.22,1.22,0,0,0,.1.53A1.14,1.14,0,0,0,484,17a1,1,0,0,0,.4.21A2,2,0,0,0,484.91,17.22Z" style="fill:#1d1d1b"/><path d="M492.88,18.18a1.9,1.9,0,0,1-1.42-.51,2.05,2.05,0,0,1-.49-1.48V11.43H490a.31.31,0,0,1-.21-.07.32.32,0,0,1-.08-.23v-.54l1.27-.17.32-2.4a.27.27,0,0,1,.1-.19.38.38,0,0,1,.21-.07h.69v2.68h2.23v1h-2.23V16.1a1,1,0,0,0,.24.72.84.84,0,0,0,.62.24,1.38,1.38,0,0,0,.37,0l.27-.13.2-.13a.24.24,0,0,1,.14-.06c.07,0,.13,0,.19.13l.4.66a2.59,2.59,0,0,1-.85.52A3,3,0,0,1,492.88,18.18Z" style="fill:#1d1d1b"/><path d="M498.08,7.85a.81.81,0,0,1-.09.37.9.9,0,0,1-.21.3,1.16,1.16,0,0,1-.31.22,1,1,0,0,1-.38.07.94.94,0,0,1-.37-.07,1.34,1.34,0,0,1-.31-.22.9.9,0,0,1-.21-.3.94.94,0,0,1-.07-.37,1,1,0,0,1,.07-.38,1,1,0,0,1,.21-.32,1.06,1.06,0,0,1,.31-.21,1,1,0,0,1,.37-.08,1,1,0,0,1,.38.08,1,1,0,0,1,.31.21,1,1,0,0,1,.21.32A.82.82,0,0,1,498.08,7.85Zm-.31,2.44v7.77H496.4V10.29Z" style="fill:#1d1d1b"/><path d="M503.33,10.16a4,4,0,0,1,1.54.29,3.26,3.26,0,0,1,1.16.8,3.55,3.55,0,0,1,.74,1.27,5,5,0,0,1,.26,1.65,5.07,5.07,0,0,1-.26,1.66,3.59,3.59,0,0,1-.74,1.26,3.39,3.39,0,0,1-1.16.8,4.22,4.22,0,0,1-1.54.28,4.14,4.14,0,0,1-1.54-.28,3.34,3.34,0,0,1-1.17-.8,3.61,3.61,0,0,1-.75-1.26,5.07,5.07,0,0,1-.26-1.66,5,5,0,0,1,.26-1.65,3.57,3.57,0,0,1,.75-1.27,3.21,3.21,0,0,1,1.17-.8A4,4,0,0,1,503.33,10.16Zm0,6.94a2,2,0,0,0,1.71-.77,3.55,3.55,0,0,0,.57-2.15A3.61,3.61,0,0,0,505,12a2,2,0,0,0-1.71-.77,2.32,2.32,0,0,0-1,.2,2,2,0,0,0-.72.57,2.67,2.67,0,0,0-.43.93,5.16,5.16,0,0,0-.14,1.24,5.08,5.08,0,0,0,.14,1.23,2.62,2.62,0,0,0,.43.92,2,2,0,0,0,.72.57A2.47,2.47,0,0,0,503.33,17.1Z" style="fill:#1d1d1b"/><path d="M508.71,18.06V10.29h.82a.36.36,0,0,1,.37.28l.1.84a4.57,4.57,0,0,1,1.13-.9,3,3,0,0,1,1.45-.35,2.85,2.85,0,0,1,1.13.21,2.2,2.2,0,0,1,.81.6,2.55,2.55,0,0,1,.49.94,3.78,3.78,0,0,1,.17,1.2v4.95h-1.36V13.11a2.09,2.09,0,0,0-.41-1.37,1.5,1.5,0,0,0-1.23-.49,2.35,2.35,0,0,0-1.13.29,3.79,3.79,0,0,0-1,.8v5.72Z" style="fill:#1d1d1b"/><path d="M247.63,278.08v-11h3.51a6.83,6.83,0,0,1,1.74.2,3.32,3.32,0,0,1,1.21.57,2.2,2.2,0,0,1,.7.9A3.06,3.06,0,0,1,255,270a2.54,2.54,0,0,1-.12.78,2.41,2.41,0,0,1-.39.7,2.57,2.57,0,0,1-.64.58,3.63,3.63,0,0,1-.91.41,3.42,3.42,0,0,1,1.82.87,2.27,2.27,0,0,1,.61,1.66,3,3,0,0,1-.26,1.27,2.77,2.77,0,0,1-.75,1,3.4,3.4,0,0,1-1.21.64,5.51,5.51,0,0,1-1.64.23Zm1.49-6.07h2a3.85,3.85,0,0,0,1.09-.14,2.31,2.31,0,0,0,.77-.38,1.64,1.64,0,0,0,.45-.6,2.1,2.1,0,0,0,.14-.76,1.67,1.67,0,0,0-.58-1.42,3,3,0,0,0-1.81-.46h-2Zm0,1.06v3.83h2.38a3.5,3.5,0,0,0,1.09-.15,1.92,1.92,0,0,0,.75-.41,1.71,1.71,0,0,0,.44-.63,2.28,2.28,0,0,0,.13-.8,1.66,1.66,0,0,0-.6-1.35,2.82,2.82,0,0,0-1.82-.49Z" style="fill:#1d1d1b"/><path d="M257.35,278.08V270.3h.78a.43.43,0,0,1,.31.09.53.53,0,0,1,.11.29l.09,1.21a3.7,3.7,0,0,1,1-1.27,2.2,2.2,0,0,1,1.38-.45,2.1,2.1,0,0,1,.58.07,1.87,1.87,0,0,1,.48.2l-.17,1a.23.23,0,0,1-.24.19,1.13,1.13,0,0,1-.33-.07,2.07,2.07,0,0,0-.62-.07,1.8,1.8,0,0,0-1.2.41,3.19,3.19,0,0,0-.8,1.21v4.95Z" style="fill:#1d1d1b"/><path d="M269,278.08h-.61A.73.73,0,0,1,268,278a.36.36,0,0,1-.16-.26l-.15-.73c-.21.19-.41.35-.6.5a3.28,3.28,0,0,1-.62.37,3,3,0,0,1-.68.22,3.48,3.48,0,0,1-.81.08,2.61,2.61,0,0,1-.85-.13,1.94,1.94,0,0,1-.69-.38,1.78,1.78,0,0,1-.46-.64,2.19,2.19,0,0,1-.17-.92,1.72,1.72,0,0,1,.25-.89,2.25,2.25,0,0,1,.82-.76,5.28,5.28,0,0,1,1.47-.54,10.21,10.21,0,0,1,2.24-.21v-.61a2.1,2.1,0,0,0-.39-1.38,1.41,1.41,0,0,0-1.15-.47,2.32,2.32,0,0,0-.84.13,3.25,3.25,0,0,0-.59.28l-.43.28a.59.59,0,0,1-.36.13.4.4,0,0,1-.24-.07.55.55,0,0,1-.16-.18l-.25-.44a4.58,4.58,0,0,1,1.39-.93,4.4,4.4,0,0,1,1.65-.3,3,3,0,0,1,1.16.21,2.26,2.26,0,0,1,.85.6,2.35,2.35,0,0,1,.52.93,3.76,3.76,0,0,1,.18,1.19Zm-3.54-.84a2.73,2.73,0,0,0,.66-.07,2.92,2.92,0,0,0,.56-.21,3.94,3.94,0,0,0,.51-.32,6.31,6.31,0,0,0,.47-.44v-1.61a9.2,9.2,0,0,0-1.61.12,4.28,4.28,0,0,0-1.07.32,1.39,1.39,0,0,0-.6.45,1,1,0,0,0-.19.59,1.25,1.25,0,0,0,.1.53.91.91,0,0,0,.27.37,1.17,1.17,0,0,0,.4.21A2,2,0,0,0,265.41,277.24Z" style="fill:#1d1d1b"/><path d="M271,278.08V270.3h.82a.35.35,0,0,1,.36.29l.11.84a4.57,4.57,0,0,1,1.13-.9,3,3,0,0,1,1.45-.35,2.85,2.85,0,0,1,1.13.21,2.2,2.2,0,0,1,.81.6,2.58,2.58,0,0,1,.49.93,3.89,3.89,0,0,1,.17,1.21v4.95h-1.36v-4.95a2.07,2.07,0,0,0-.41-1.37,1.49,1.49,0,0,0-1.23-.49,2.35,2.35,0,0,0-1.13.29,4,4,0,0,0-1,.79v5.73Z" style="fill:#1d1d1b"/><path d="M284.86,271.69l-.12.13a.3.3,0,0,1-.18,0,.45.45,0,0,1-.25-.09,2.89,2.89,0,0,0-.34-.22,5,5,0,0,0-.5-.21,2.55,2.55,0,0,0-.73-.09,2.41,2.41,0,0,0-1,.2,2,2,0,0,0-.74.59,2.68,2.68,0,0,0-.44.93,4.58,4.58,0,0,0-.15,1.22,4.31,4.31,0,0,0,.16,1.25,2.82,2.82,0,0,0,.45.92,2,2,0,0,0,.71.57,2.2,2.2,0,0,0,.94.2,2.33,2.33,0,0,0,.82-.12,2.26,2.26,0,0,0,.54-.27,2.89,2.89,0,0,0,.35-.26.45.45,0,0,1,.28-.12.27.27,0,0,1,.26.13l.39.5a3,3,0,0,1-1.27.91,4.54,4.54,0,0,1-1.6.29,3.4,3.4,0,0,1-1.36-.27,3.12,3.12,0,0,1-1.09-.78,3.85,3.85,0,0,1-.72-1.26,5.37,5.37,0,0,1,0-3.3,3.65,3.65,0,0,1,.7-1.27,3.24,3.24,0,0,1,1.15-.83,3.84,3.84,0,0,1,1.56-.3,3.64,3.64,0,0,1,1.45.27,3.32,3.32,0,0,1,1.11.74Z" style="fill:#1d1d1b"/><path d="M286.73,278.08V266.77h1.36v4.58a3.91,3.91,0,0,1,1.11-.85,3,3,0,0,1,1.39-.32,2.85,2.85,0,0,1,1.13.21,2.2,2.2,0,0,1,.81.6,2.77,2.77,0,0,1,.5.93,4.21,4.21,0,0,1,.17,1.21v4.95h-1.37v-4.95a2.07,2.07,0,0,0-.4-1.37,1.49,1.49,0,0,0-1.23-.49,2.36,2.36,0,0,0-1.14.29,4,4,0,0,0-1,.79v5.73Z" style="fill:#1d1d1b"/><path d="M302.67,271.59a.29.29,0,0,1-.28.16.48.48,0,0,1-.26-.08l-.36-.19a3.51,3.51,0,0,0-.5-.19,2.36,2.36,0,0,0-.69-.09,2,2,0,0,0-.62.09,1.48,1.48,0,0,0-.47.24,1,1,0,0,0-.3.36.93.93,0,0,0-.11.44.71.71,0,0,0,.18.5,1.33,1.33,0,0,0,.45.34,3.52,3.52,0,0,0,.65.26l.74.24c.25.08.5.18.74.28a2.71,2.71,0,0,1,.64.38,1.84,1.84,0,0,1,.46.57,1.78,1.78,0,0,1,.17.8,2.46,2.46,0,0,1-.19,1,2.14,2.14,0,0,1-.57.79,2.68,2.68,0,0,1-.92.53,3.71,3.71,0,0,1-1.26.19,4,4,0,0,1-1.47-.26,4,4,0,0,1-1.12-.68l.32-.53a.54.54,0,0,1,.15-.15.45.45,0,0,1,.22-.05.46.46,0,0,1,.29.11l.37.23a2.91,2.91,0,0,0,.53.24,2.48,2.48,0,0,0,.78.11,2.1,2.1,0,0,0,.7-.11,1.4,1.4,0,0,0,.5-.27,1.14,1.14,0,0,0,.29-.41,1.19,1.19,0,0,0,.1-.49.85.85,0,0,0-.17-.54,1.54,1.54,0,0,0-.46-.36,4,4,0,0,0-.65-.26l-.74-.23c-.26-.08-.5-.18-.75-.28a2.83,2.83,0,0,1-.65-.4,1.85,1.85,0,0,1-.45-.58,1.87,1.87,0,0,1-.18-.85,2.15,2.15,0,0,1,.19-.86,2.07,2.07,0,0,1,.54-.72,2.67,2.67,0,0,1,.86-.5,3.61,3.61,0,0,1,1.18-.18,3.77,3.77,0,0,1,1.38.24,3.2,3.2,0,0,1,1.05.67Z" style="fill:#1d1d1b"/><path d="M304.88,280.71V270.3h.82a.36.36,0,0,1,.37.29l.11.92a4.07,4.07,0,0,1,1.14-1,3,3,0,0,1,1.48-.36,2.82,2.82,0,0,1,1.21.25,2.6,2.6,0,0,1,.93.76,3.63,3.63,0,0,1,.59,1.25,6.35,6.35,0,0,1,.21,1.71,5.47,5.47,0,0,1-.23,1.6,4.19,4.19,0,0,1-.66,1.28,3,3,0,0,1-1.06.85,3.08,3.08,0,0,1-1.41.32,2.87,2.87,0,0,1-1.23-.24,2.82,2.82,0,0,1-.9-.68v3.44Zm3.47-9.44a2.19,2.19,0,0,0-1.18.31,3.36,3.36,0,0,0-.92.86v3.77a2.33,2.33,0,0,0,.82.71,2.37,2.37,0,0,0,1,.21,2,2,0,0,0,1.66-.78,3.61,3.61,0,0,0,.59-2.21,5.38,5.38,0,0,0-.14-1.3,2.5,2.5,0,0,0-.39-.9,1.52,1.52,0,0,0-.62-.51A2,2,0,0,0,308.35,271.27Z" style="fill:#1d1d1b"/><path d="M316.44,270.18a3.55,3.55,0,0,1,1.28.23,3,3,0,0,1,1,.68,3.14,3.14,0,0,1,.67,1.09,4.21,4.21,0,0,1,.24,1.48.85.85,0,0,1-.07.43.29.29,0,0,1-.26.1h-5.17a4.11,4.11,0,0,0,.2,1.29,2.75,2.75,0,0,0,.5.91,2.07,2.07,0,0,0,.77.54,2.66,2.66,0,0,0,1,.18,2.84,2.84,0,0,0,.88-.12,3.26,3.26,0,0,0,.64-.26,4.3,4.3,0,0,0,.45-.25.61.61,0,0,1,.31-.12.31.31,0,0,1,.27.13l.38.5a2.62,2.62,0,0,1-.61.53,3.27,3.27,0,0,1-.75.37,4.71,4.71,0,0,1-.84.22,4.89,4.89,0,0,1-.85.08,3.94,3.94,0,0,1-1.48-.28,3.09,3.09,0,0,1-1.18-.8,3.71,3.71,0,0,1-.77-1.3,5.37,5.37,0,0,1-.27-1.78,4.7,4.7,0,0,1,.24-1.52,3.62,3.62,0,0,1,.72-1.22,3.16,3.16,0,0,1,1.15-.81A3.68,3.68,0,0,1,316.44,270.18Zm0,1a2.11,2.11,0,0,0-1.56.57,2.67,2.67,0,0,0-.71,1.58h4.23a2.73,2.73,0,0,0-.13-.87,2,2,0,0,0-.38-.68,1.87,1.87,0,0,0-.62-.45A2.16,2.16,0,0,0,316.47,271.19Z" style="fill:#1d1d1b"/><path d="M326.7,271.69l-.12.13a.29.29,0,0,1-.17,0,.43.43,0,0,1-.25-.09,3.12,3.12,0,0,0-.35-.22,3.59,3.59,0,0,0-.5-.21,2.53,2.53,0,0,0-.72-.09,2.46,2.46,0,0,0-1,.2,1.91,1.91,0,0,0-.73.59,2.52,2.52,0,0,0-.45.93,4.58,4.58,0,0,0-.15,1.22,4.68,4.68,0,0,0,.16,1.25,2.65,2.65,0,0,0,.46.92,1.87,1.87,0,0,0,.71.57,2.2,2.2,0,0,0,.94.2,2.41,2.41,0,0,0,.82-.12,2.38,2.38,0,0,0,.53-.27,2.42,2.42,0,0,0,.36-.26.41.41,0,0,1,.27-.12.3.3,0,0,1,.27.13l.38.5a3,3,0,0,1-1.27.91,4.5,4.5,0,0,1-1.6.29,3.4,3.4,0,0,1-1.36-.27,3.18,3.18,0,0,1-1.08-.78,3.7,3.7,0,0,1-.73-1.26,5.57,5.57,0,0,1,0-3.3,3.67,3.67,0,0,1,.71-1.27,3.29,3.29,0,0,1,1.14-.83,3.89,3.89,0,0,1,1.57-.3,3.63,3.63,0,0,1,1.44.27,3.47,3.47,0,0,1,1.12.74Z" style="fill:#1d1d1b"/><path d="M330.4,267.86a.75.75,0,0,1-.09.37,1,1,0,0,1-.52.52,1,1,0,0,1-.38.08,1,1,0,0,1-.37-.08,1.06,1.06,0,0,1-.31-.21,1,1,0,0,1-.21-.31.87.87,0,0,1-.07-.37,1,1,0,0,1,.07-.38,1,1,0,0,1,.21-.31A1.06,1.06,0,0,1,329,267a1,1,0,0,1,.37-.08,1,1,0,0,1,.38.08,1,1,0,0,1,.52.52A.85.85,0,0,1,330.4,267.86Zm-.31,2.44v7.78h-1.37V270.3Z" style="fill:#1d1d1b"/><path d="M332.81,278.08v-6.61l-.86-.1a.85.85,0,0,1-.27-.12.26.26,0,0,1-.1-.23v-.56h1.23V270a3.68,3.68,0,0,1,.22-1.31,2.74,2.74,0,0,1,.67-1,2.94,2.94,0,0,1,1.1-.66,4.59,4.59,0,0,1,1.55-.24,4.12,4.12,0,0,1,.6,0,1.89,1.89,0,0,1,.52.12l0,.71a.14.14,0,0,1-.1.12.61.61,0,0,1-.22,0h-.38a2.91,2.91,0,0,0-2,.56,2.2,2.2,0,0,0-.62,1.7v.39h4.7v7.62h-1.37v-6.63h-3.28v6.63Z" style="fill:#1d1d1b"/><path d="M346.55,271.69l-.12.13a.3.3,0,0,1-.18,0,.45.45,0,0,1-.25-.09,2.89,2.89,0,0,0-.34-.22,5,5,0,0,0-.5-.21,2.55,2.55,0,0,0-.73-.09,2.41,2.41,0,0,0-1,.2,2,2,0,0,0-.74.59,2.68,2.68,0,0,0-.44.93,4.58,4.58,0,0,0-.15,1.22,4.31,4.31,0,0,0,.16,1.25,2.82,2.82,0,0,0,.45.92,2,2,0,0,0,.71.57,2.23,2.23,0,0,0,.94.2,2.33,2.33,0,0,0,.82-.12,3,3,0,0,0,.89-.53.45.45,0,0,1,.28-.12.27.27,0,0,1,.26.13l.39.5a3,3,0,0,1-1.27.91,4.54,4.54,0,0,1-1.6.29,3.4,3.4,0,0,1-1.36-.27,3.12,3.12,0,0,1-1.09-.78,3.85,3.85,0,0,1-.72-1.26,4.92,4.92,0,0,1-.26-1.69,5.18,5.18,0,0,1,.24-1.61,3.65,3.65,0,0,1,.7-1.27,3.24,3.24,0,0,1,1.15-.83,3.86,3.86,0,0,1,1.57-.3,3.63,3.63,0,0,1,1.44.27,3.32,3.32,0,0,1,1.11.74Z" style="fill:#1d1d1b"/><path d="M351.69,278.08v-6.61l-.86-.1a.85.85,0,0,1-.27-.12.26.26,0,0,1-.1-.23v-.56h1.23v-.76a3.57,3.57,0,0,1,.18-1.18,2.51,2.51,0,0,1,.54-.88,2.43,2.43,0,0,1,.84-.54,3.23,3.23,0,0,1,1.11-.18,3,3,0,0,1,1,.15l0,.69a.17.17,0,0,1-.13.18,1.52,1.52,0,0,1-.34,0h-.24a2.11,2.11,0,0,0-.64.09,1.22,1.22,0,0,0-.5.3,1.4,1.4,0,0,0-.32.55,2.78,2.78,0,0,0-.11.83v.72h2.25v1h-2.2v6.63Z" style="fill:#1d1d1b"/><path d="M359.63,270.18a3.65,3.65,0,0,1,1.29.23,3.09,3.09,0,0,1,1,.68,3,3,0,0,1,.67,1.09,4.21,4.21,0,0,1,.24,1.48.85.85,0,0,1-.07.43c0,.07-.13.1-.26.1h-5.17a4.42,4.42,0,0,0,.2,1.29,2.6,2.6,0,0,0,.51.91,2,2,0,0,0,.76.54,2.66,2.66,0,0,0,1,.18,3,3,0,0,0,.89-.12,3.87,3.87,0,0,0,.64-.26,4.3,4.3,0,0,0,.45-.25.58.58,0,0,1,.31-.12.29.29,0,0,1,.26.13l.38.5a2.78,2.78,0,0,1-.6.53,3.56,3.56,0,0,1-.76.37,4.84,4.84,0,0,1-.83.22,5,5,0,0,1-.85.08,4,4,0,0,1-1.49-.28,3.14,3.14,0,0,1-1.17-.8,3.56,3.56,0,0,1-.77-1.3A5.12,5.12,0,0,1,356,274a4.45,4.45,0,0,1,.25-1.52,3.32,3.32,0,0,1,.72-1.22,3.12,3.12,0,0,1,1.14-.81A3.72,3.72,0,0,1,359.63,270.18Zm0,1a2.11,2.11,0,0,0-1.56.57,2.66,2.66,0,0,0-.7,1.58h4.22a2.73,2.73,0,0,0-.13-.87,1.82,1.82,0,0,0-.38-.68,1.77,1.77,0,0,0-.62-.45A2.16,2.16,0,0,0,359.66,271.19Z" style="fill:#1d1d1b"/><path d="M370.31,278.08h-.61a.73.73,0,0,1-.32-.06.31.31,0,0,1-.16-.26l-.16-.73a6.62,6.62,0,0,1-.6.5,3.2,3.2,0,0,1-.61.37,3.09,3.09,0,0,1-.69.22,3.37,3.37,0,0,1-.81.08,2.65,2.65,0,0,1-.85-.13,1.85,1.85,0,0,1-1.15-1,2.36,2.36,0,0,1-.17-.92,1.82,1.82,0,0,1,.25-.89,2.25,2.25,0,0,1,.82-.76,5.36,5.36,0,0,1,1.48-.54,10.11,10.11,0,0,1,2.23-.21v-.61a2.1,2.1,0,0,0-.39-1.38,1.39,1.39,0,0,0-1.14-.47,2.25,2.25,0,0,0-.84.13,3,3,0,0,0-.59.28l-.43.28a.59.59,0,0,1-.36.13A.4.4,0,0,1,365,272a.58.58,0,0,1-.17-.18l-.24-.44a4.58,4.58,0,0,1,1.39-.93,4.33,4.33,0,0,1,1.65-.3,3,3,0,0,1,1.15.21,2.3,2.3,0,0,1,.86.6,2.47,2.47,0,0,1,.52.93,3.76,3.76,0,0,1,.18,1.19Zm-3.55-.84a2.73,2.73,0,0,0,.66-.07A2.49,2.49,0,0,0,368,277a3.36,3.36,0,0,0,.51-.32,4.81,4.81,0,0,0,.47-.44v-1.61a9.08,9.08,0,0,0-1.6.12,4.51,4.51,0,0,0-1.08.32,1.53,1.53,0,0,0-.6.45,1,1,0,0,0-.19.59,1.43,1.43,0,0,0,.1.53,1.14,1.14,0,0,0,.27.37,1.27,1.27,0,0,0,.4.21A2,2,0,0,0,366.76,277.24Z" style="fill:#1d1d1b"/><path d="M374.73,278.2a1.87,1.87,0,0,1-1.41-.51,2.07,2.07,0,0,1-.5-1.48v-4.76h-.93a.3.3,0,0,1-.21-.08.25.25,0,0,1-.09-.22v-.55l1.28-.16.31-2.4a.29.29,0,0,1,.32-.26h.69v2.68h2.22v1h-2.22v4.66a1,1,0,0,0,.24.73.81.81,0,0,0,.61.24,1,1,0,0,0,.37-.06l.28-.12.19-.13a.24.24,0,0,1,.14-.06.24.24,0,0,1,.19.13l.4.65a2.43,2.43,0,0,1-.85.52A2.77,2.77,0,0,1,374.73,278.2Z" style="fill:#1d1d1b"/><path d="M379.28,270.3v5a2.07,2.07,0,0,0,.41,1.37,1.52,1.52,0,0,0,1.23.48,2.34,2.34,0,0,0,1.13-.28,3.59,3.59,0,0,0,1-.79V270.3h1.37v7.78h-.82a.35.35,0,0,1-.36-.29l-.11-.83a4.44,4.44,0,0,1-1.14.9,3,3,0,0,1-1.44.34,2.8,2.8,0,0,1-1.12-.21,2.24,2.24,0,0,1-.82-.59,2.6,2.6,0,0,1-.5-.93,4.22,4.22,0,0,1-.16-1.21v-5Z" style="fill:#1d1d1b"/><path d="M386.64,278.08V270.3h.78a.43.43,0,0,1,.31.09.53.53,0,0,1,.11.29l.09,1.21a3.7,3.7,0,0,1,1-1.27,2.2,2.2,0,0,1,1.38-.45,2.1,2.1,0,0,1,.58.07,1.94,1.94,0,0,1,.49.2l-.18,1a.23.23,0,0,1-.24.19,1.13,1.13,0,0,1-.33-.07,2.07,2.07,0,0,0-.62-.07,1.76,1.76,0,0,0-1.19.41,3.2,3.2,0,0,0-.81,1.21v4.95Z" style="fill:#1d1d1b"/><path d="M395.9,270.18a3.57,3.57,0,0,1,1.29.23,3.09,3.09,0,0,1,1,.68,3,3,0,0,1,.67,1.09,4.21,4.21,0,0,1,.24,1.48.85.85,0,0,1-.07.43c0,.07-.13.1-.26.1h-5.17a4.42,4.42,0,0,0,.2,1.29,2.6,2.6,0,0,0,.51.91,2,2,0,0,0,.76.54,2.66,2.66,0,0,0,1,.18A3,3,0,0,0,397,277a3.54,3.54,0,0,0,.64-.26,4.3,4.3,0,0,0,.45-.25.58.58,0,0,1,.31-.12.29.29,0,0,1,.26.13l.38.5a2.56,2.56,0,0,1-.6.53,3.56,3.56,0,0,1-.76.37,4.61,4.61,0,0,1-.83.22,5,5,0,0,1-.85.08,4,4,0,0,1-1.49-.28,3.14,3.14,0,0,1-1.17-.8,3.56,3.56,0,0,1-.77-1.3,5.12,5.12,0,0,1-.28-1.78,4.45,4.45,0,0,1,.25-1.52,3.46,3.46,0,0,1,.72-1.22,3.12,3.12,0,0,1,1.14-.81A3.72,3.72,0,0,1,395.9,270.18Zm0,1a2.11,2.11,0,0,0-1.56.57,2.66,2.66,0,0,0-.7,1.58h4.23a3,3,0,0,0-.13-.87,2,2,0,0,0-.39-.68,1.77,1.77,0,0,0-.62-.45A2.16,2.16,0,0,0,395.93,271.19Z" style="fill:#1d1d1b"/><path d="M407.77,267a3,3,0,0,1,1.11.19,3,3,0,0,1,.86.52,2.44,2.44,0,0,1,.58.75,2.31,2.31,0,0,1,.24.89l-.85.16h-.07a.41.41,0,0,1-.19-.05.34.34,0,0,1-.13-.19,1.66,1.66,0,0,0-.48-.81,1.45,1.45,0,0,0-.45-.29,1.49,1.49,0,0,0-.62-.12,1.93,1.93,0,0,0-.69.13,1.42,1.42,0,0,0-.52.34,1.47,1.47,0,0,0-.34.51,1.69,1.69,0,0,0-.12.64,1.81,1.81,0,0,0,.07.52,2,2,0,0,0,.19.49,3.54,3.54,0,0,0,.34.52,5.94,5.94,0,0,0,.5.55l3.16,3.22a5.16,5.16,0,0,0,.46-1.08,5.7,5.7,0,0,0,.24-1.13.37.37,0,0,1,.09-.23.27.27,0,0,1,.22-.09h.84a6.46,6.46,0,0,1-.28,1.74,6.09,6.09,0,0,1-.78,1.6l2.3,2.33h-1.32a.9.9,0,0,1-.36-.06,1,1,0,0,1-.31-.22l-1.1-1.11a5.65,5.65,0,0,1-1.66,1.1,5,5,0,0,1-2.07.41,3.63,3.63,0,0,1-1.21-.21,3.22,3.22,0,0,1-1.05-.6,3,3,0,0,1-.75-1,2.83,2.83,0,0,1-.28-1.28,2.88,2.88,0,0,1,.18-1,3.13,3.13,0,0,1,.5-.89,4,4,0,0,1,.75-.73,5,5,0,0,1,1-.55,4.73,4.73,0,0,1-.69-1.15,3.07,3.07,0,0,1-.22-1.16,2.84,2.84,0,0,1,.2-1,2.54,2.54,0,0,1,.59-.86,2.91,2.91,0,0,1,.93-.57A3.45,3.45,0,0,1,407.77,267Zm-3,8.08a2.07,2.07,0,0,0,.18.88,2,2,0,0,0,.48.64,2.13,2.13,0,0,0,.69.39,2.29,2.29,0,0,0,.78.14,3.62,3.62,0,0,0,1.54-.32,4.27,4.27,0,0,0,1.21-.83l-3.25-3.28a3.27,3.27,0,0,0-1.22,1A2.27,2.27,0,0,0,404.73,275Z" style="fill:#1d1d1b"/><path d="M417.63,278.08V266.77H419v4.65a4,4,0,0,1,1.11-.9,2.93,2.93,0,0,1,1.43-.34,3,3,0,0,1,1.22.25,2.36,2.36,0,0,1,.93.76,3.66,3.66,0,0,1,.59,1.24,6.35,6.35,0,0,1,.21,1.71,5.47,5.47,0,0,1-.23,1.6,4,4,0,0,1-.66,1.28,3.12,3.12,0,0,1-2.47,1.17,2.55,2.55,0,0,1-1.28-.3,2.82,2.82,0,0,1-.92-.81l-.07.71a.33.33,0,0,1-.35.29Zm3.47-6.81a2.13,2.13,0,0,0-1.17.31,3.26,3.26,0,0,0-.93.86v3.77a2.25,2.25,0,0,0,.82.71,2.33,2.33,0,0,0,1,.21,1.94,1.94,0,0,0,1.67-.78,3.61,3.61,0,0,0,.59-2.21,5.38,5.38,0,0,0-.14-1.3,2.68,2.68,0,0,0-.38-.9,1.55,1.55,0,0,0-.63-.51A2,2,0,0,0,421.1,271.27Z" style="fill:#1d1d1b"/><path d="M428,267.86a.87.87,0,0,1-.08.37,1.16,1.16,0,0,1-.22.31,1,1,0,0,1-.68.29,1,1,0,0,1-.38-.08,1,1,0,0,1-.3-.21,1,1,0,0,1-.21-.31.87.87,0,0,1-.08-.37,1,1,0,0,1,.08-.38,1,1,0,0,1,.21-.31,1,1,0,0,1,.3-.21,1,1,0,0,1,.38-.08,1,1,0,0,1,.68.29,1.16,1.16,0,0,1,.22.31A1,1,0,0,1,428,267.86Zm-.31,2.44v7.78h-1.36V270.3Z" style="fill:#1d1d1b"/><path d="M430.4,278.08v-6.61l-.86-.1a.85.85,0,0,1-.27-.12.29.29,0,0,1-.1-.23v-.56h1.23v-.76a3.32,3.32,0,0,1,.19-1.18,2.36,2.36,0,0,1,.53-.88,2.63,2.63,0,0,1,.84-.54,3.23,3.23,0,0,1,1.11-.18,3,3,0,0,1,1,.15l0,.69c0,.1-.05.16-.13.18a1.62,1.62,0,0,1-.35,0h-.24a2.15,2.15,0,0,0-.64.09,1.12,1.12,0,0,0-.49.3,1.29,1.29,0,0,0-.32.55,2.49,2.49,0,0,0-.11.83v.72H434v1h-2.21v6.63Z" style="fill:#1d1d1b"/><path d="M436.45,270.3v5a2.07,2.07,0,0,0,.4,1.37,1.52,1.52,0,0,0,1.23.48,2.34,2.34,0,0,0,1.13-.28,3.59,3.59,0,0,0,1-.79V270.3h1.37v7.78h-.81a.35.35,0,0,1-.37-.29l-.11-.83a4.57,4.57,0,0,1-1.13.9,3,3,0,0,1-1.45.34,2.8,2.8,0,0,1-1.12-.21,2.24,2.24,0,0,1-.82-.59,2.58,2.58,0,0,1-.49-.93,4.21,4.21,0,0,1-.17-1.21v-5Z" style="fill:#1d1d1b"/><path d="M443.8,278.08V270.3h.78a.43.43,0,0,1,.31.09.46.46,0,0,1,.11.29l.1,1.21a3.56,3.56,0,0,1,1-1.27,2.2,2.2,0,0,1,1.38-.45,2.1,2.1,0,0,1,.58.07,1.94,1.94,0,0,1,.49.2l-.18,1a.23.23,0,0,1-.24.19,1.13,1.13,0,0,1-.33-.07,2,2,0,0,0-.62-.07,1.79,1.79,0,0,0-1.19.41,3.2,3.2,0,0,0-.81,1.21v4.95Z" style="fill:#1d1d1b"/><path d="M455.29,271.69l-.12.13a.32.32,0,0,1-.18,0,.45.45,0,0,1-.25-.09,2.89,2.89,0,0,0-.34-.22,5,5,0,0,0-.5-.21,2.55,2.55,0,0,0-.73-.09,2.49,2.49,0,0,0-1,.2,2,2,0,0,0-.73.59,2.68,2.68,0,0,0-.44.93,4.58,4.58,0,0,0-.15,1.22,4.31,4.31,0,0,0,.16,1.25,2.82,2.82,0,0,0,.45.92,2,2,0,0,0,.71.57,2.2,2.2,0,0,0,.94.2,2.37,2.37,0,0,0,.82-.12,2.26,2.26,0,0,0,.54-.27,2.89,2.89,0,0,0,.35-.26.45.45,0,0,1,.28-.12.28.28,0,0,1,.26.13l.38.5a3,3,0,0,1-1.26.91,4.55,4.55,0,0,1-1.61.29,3.39,3.39,0,0,1-1.35-.27,3.12,3.12,0,0,1-1.09-.78,3.68,3.68,0,0,1-.72-1.26,4.91,4.91,0,0,1-.27-1.69,5.18,5.18,0,0,1,.24-1.61,3.83,3.83,0,0,1,.71-1.27,3.24,3.24,0,0,1,1.15-.83,3.84,3.84,0,0,1,1.56-.3,3.64,3.64,0,0,1,1.45.27,3.32,3.32,0,0,1,1.11.74Z" style="fill:#1d1d1b"/><path d="M462.86,278.08h-.6a.7.7,0,0,1-.32-.06.34.34,0,0,1-.17-.26l-.15-.73a6.62,6.62,0,0,1-.6.5,3.2,3.2,0,0,1-.61.37,3.26,3.26,0,0,1-.69.22,3.37,3.37,0,0,1-.81.08,2.65,2.65,0,0,1-.85-.13,1.85,1.85,0,0,1-1.15-1,2.36,2.36,0,0,1-.17-.92,1.72,1.72,0,0,1,.25-.89,2.25,2.25,0,0,1,.82-.76,5.36,5.36,0,0,1,1.48-.54,10.11,10.11,0,0,1,2.23-.21v-.61a2.1,2.1,0,0,0-.39-1.38,1.41,1.41,0,0,0-1.14-.47,2.25,2.25,0,0,0-.84.13,3.36,3.36,0,0,0-.6.28l-.43.28a.56.56,0,0,1-.35.13.38.38,0,0,1-.24-.07.58.58,0,0,1-.17-.18l-.24-.44a4.54,4.54,0,0,1,1.38-.93,4.4,4.4,0,0,1,1.65-.3,3,3,0,0,1,1.16.21,2.3,2.3,0,0,1,.86.6,2.47,2.47,0,0,1,.52.93,4.07,4.07,0,0,1,.17,1.19Zm-3.54-.84a2.73,2.73,0,0,0,.66-.07,2.49,2.49,0,0,0,.56-.21,3.36,3.36,0,0,0,.51-.32,4.81,4.81,0,0,0,.47-.44v-1.61a9.08,9.08,0,0,0-1.6.12,4.51,4.51,0,0,0-1.08.32,1.53,1.53,0,0,0-.6.45,1,1,0,0,0-.19.59,1.25,1.25,0,0,0,.1.53,1.14,1.14,0,0,0,.27.37,1.27,1.27,0,0,0,.4.21A2,2,0,0,0,459.32,277.24Z" style="fill:#1d1d1b"/><path d="M467.29,278.2a1.87,1.87,0,0,1-1.41-.51,2.07,2.07,0,0,1-.5-1.48v-4.76h-.94a.28.28,0,0,1-.2-.08.25.25,0,0,1-.09-.22v-.55l1.28-.16.31-2.4a.27.27,0,0,1,.1-.19.32.32,0,0,1,.22-.07h.69v2.68H469v1h-2.22v4.66a1,1,0,0,0,.24.73.81.81,0,0,0,.61.24A1,1,0,0,0,468,277l.27-.12.2-.13a.24.24,0,0,1,.14-.06.24.24,0,0,1,.19.13l.4.65a2.43,2.43,0,0,1-.85.52A2.77,2.77,0,0,1,467.29,278.2Z" style="fill:#1d1d1b"/><path d="M472.49,267.86a.87.87,0,0,1-.08.37,1.16,1.16,0,0,1-.22.31,1,1,0,0,1-.68.29,1,1,0,0,1-.38-.08,1,1,0,0,1-.3-.21,1,1,0,0,1-.21-.31.75.75,0,0,1-.08-.37.84.84,0,0,1,.08-.38,1,1,0,0,1,.21-.31,1,1,0,0,1,.3-.21,1,1,0,0,1,.38-.08,1,1,0,0,1,.68.29,1.16,1.16,0,0,1,.22.31A1,1,0,0,1,472.49,267.86Zm-.31,2.44v7.78h-1.36V270.3Z" style="fill:#1d1d1b"/><path d="M477.74,270.18a4.18,4.18,0,0,1,1.54.28,3.28,3.28,0,0,1,1.16.81,3.59,3.59,0,0,1,.74,1.26,5.12,5.12,0,0,1,.26,1.66,5,5,0,0,1-.26,1.65,3.42,3.42,0,0,1-.74,1.26,3.28,3.28,0,0,1-1.16.81,4.37,4.37,0,0,1-3.08,0,3.23,3.23,0,0,1-1.17-.81,3.58,3.58,0,0,1-.75-1.26,5,5,0,0,1-.26-1.65,5.12,5.12,0,0,1,.26-1.66,3.77,3.77,0,0,1,.75-1.26,3.23,3.23,0,0,1,1.17-.81A4.18,4.18,0,0,1,477.74,270.18Zm0,6.94a2,2,0,0,0,1.72-.77,4.38,4.38,0,0,0,0-4.32,2,2,0,0,0-1.72-.78,2.47,2.47,0,0,0-1,.2,2,2,0,0,0-.71.58,2.5,2.5,0,0,0-.43.93,5.52,5.52,0,0,0,0,2.47,2.53,2.53,0,0,0,.43.92,1.87,1.87,0,0,0,.71.57A2.47,2.47,0,0,0,477.74,277.12Z" style="fill:#1d1d1b"/><path d="M483.13,278.08V270.3h.81a.36.36,0,0,1,.37.29l.11.84a4.23,4.23,0,0,1,1.13-.9,2.92,2.92,0,0,1,1.44-.35,2.85,2.85,0,0,1,1.13.21,2.2,2.2,0,0,1,.81.6,2.6,2.6,0,0,1,.5.93,4.21,4.21,0,0,1,.17,1.21v4.95h-1.37v-4.95a2.07,2.07,0,0,0-.4-1.37,1.49,1.49,0,0,0-1.23-.49,2.36,2.36,0,0,0-1.14.29,4,4,0,0,0-1,.79v5.73Z" style="fill:#1d1d1b"/><path d="M500.33,278.08h-.6a.7.7,0,0,1-.32-.06.34.34,0,0,1-.17-.26l-.15-.73a6.62,6.62,0,0,1-.6.5,3.2,3.2,0,0,1-.61.37,3.26,3.26,0,0,1-.69.22,3.37,3.37,0,0,1-.81.08,2.65,2.65,0,0,1-.85-.13,1.85,1.85,0,0,1-1.15-1,2.36,2.36,0,0,1-.17-.92,1.72,1.72,0,0,1,.25-.89,2.25,2.25,0,0,1,.82-.76,5.36,5.36,0,0,1,1.48-.54,10.11,10.11,0,0,1,2.23-.21v-.61a2.1,2.1,0,0,0-.39-1.38,1.41,1.41,0,0,0-1.14-.47,2.25,2.25,0,0,0-.84.13,3.36,3.36,0,0,0-.6.28l-.43.28a.56.56,0,0,1-.35.13A.38.38,0,0,1,495,272a.58.58,0,0,1-.17-.18l-.25-.44a4.71,4.71,0,0,1,1.39-.93,4.4,4.4,0,0,1,1.65-.3,3,3,0,0,1,1.16.21,2.3,2.3,0,0,1,.86.6,2.47,2.47,0,0,1,.52.93,4.07,4.07,0,0,1,.17,1.19Zm-3.54-.84a2.73,2.73,0,0,0,.66-.07A2.49,2.49,0,0,0,498,277a3.36,3.36,0,0,0,.51-.32,4.81,4.81,0,0,0,.47-.44v-1.61a9.08,9.08,0,0,0-1.6.12,4.51,4.51,0,0,0-1.08.32,1.46,1.46,0,0,0-.6.45,1,1,0,0,0-.19.59,1.25,1.25,0,0,0,.1.53,1.14,1.14,0,0,0,.27.37,1.27,1.27,0,0,0,.4.21A2,2,0,0,0,496.79,277.24Z" style="fill:#1d1d1b"/><path d="M502.41,278.08V270.3h.81a.36.36,0,0,1,.37.29l.11.84a4.23,4.23,0,0,1,1.13-.9,2.92,2.92,0,0,1,1.44-.35,2.85,2.85,0,0,1,1.13.21,2.2,2.2,0,0,1,.81.6,2.77,2.77,0,0,1,.5.93,4.21,4.21,0,0,1,.17,1.21v4.95h-1.37v-4.95a2.13,2.13,0,0,0-.4-1.37,1.5,1.5,0,0,0-1.24-.49,2.35,2.35,0,0,0-1.13.29,4,4,0,0,0-1,.79v5.73Z" style="fill:#1d1d1b"/><path d="M516.65,278.08H516a.73.73,0,0,1-.32-.06.36.36,0,0,1-.16-.26l-.15-.73c-.21.19-.41.35-.6.5a3.28,3.28,0,0,1-.62.37,3,3,0,0,1-.68.22,3.48,3.48,0,0,1-.81.08,2.61,2.61,0,0,1-.85-.13,1.94,1.94,0,0,1-.69-.38,1.78,1.78,0,0,1-.46-.64,2.19,2.19,0,0,1-.17-.92,1.72,1.72,0,0,1,.25-.89,2.25,2.25,0,0,1,.82-.76,5.16,5.16,0,0,1,1.47-.54,10.21,10.21,0,0,1,2.24-.21v-.61a2.1,2.1,0,0,0-.39-1.38,1.41,1.41,0,0,0-1.15-.47,2.32,2.32,0,0,0-.84.13,3.25,3.25,0,0,0-.59.28l-.43.28a.59.59,0,0,1-.36.13.4.4,0,0,1-.24-.07.55.55,0,0,1-.16-.18l-.25-.44a4.58,4.58,0,0,1,1.39-.93,4.4,4.4,0,0,1,1.65-.3,3,3,0,0,1,1.16.21,2.26,2.26,0,0,1,.85.6,2.35,2.35,0,0,1,.52.93,3.76,3.76,0,0,1,.18,1.19Zm-3.55-.84a2.73,2.73,0,0,0,.66-.07,2.78,2.78,0,0,0,.57-.21,3.84,3.84,0,0,0,.5-.32,4.9,4.9,0,0,0,.48-.44v-1.61a9.2,9.2,0,0,0-1.61.12,4.28,4.28,0,0,0-1.07.32,1.39,1.39,0,0,0-.6.45,1,1,0,0,0-.19.59,1.25,1.25,0,0,0,.1.53.91.91,0,0,0,.27.37,1.17,1.17,0,0,0,.4.21A1.88,1.88,0,0,0,513.1,277.24Z" style="fill:#1d1d1b"/><path d="M520.24,266.77v11.31h-1.36V266.77Z" style="fill:#1d1d1b"/><path d="M524.93,280.37a.69.69,0,0,1-.17.25.49.49,0,0,1-.32.09h-1l1.42-3.08-3.21-7.33h1.18a.41.41,0,0,1,.28.09.66.66,0,0,1,.14.2l2.08,4.89a2.79,2.79,0,0,1,.12.34l.09.35c0-.12.07-.24.11-.35a2.3,2.3,0,0,1,.12-.34l2-4.89a.46.46,0,0,1,.16-.21.41.41,0,0,1,.24-.08h1.09Z" style="fill:#1d1d1b"/><path d="M532.34,267.86a.87.87,0,0,1-.08.37,1.16,1.16,0,0,1-.22.31,1,1,0,0,1-.68.29,1,1,0,0,1-.38-.08,1,1,0,0,1-.3-.21,1.16,1.16,0,0,1-.22-.31.87.87,0,0,1-.07-.37,1,1,0,0,1,.07-.38,1.16,1.16,0,0,1,.22-.31,1,1,0,0,1,.3-.21,1,1,0,0,1,.38-.08,1,1,0,0,1,.68.29,1.16,1.16,0,0,1,.22.31A1,1,0,0,1,532.34,267.86ZM532,270.3v7.78h-1.37V270.3Z" style="fill:#1d1d1b"/><path d="M538.89,271.59a.29.29,0,0,1-.28.16.46.46,0,0,1-.26-.08l-.36-.19a3.51,3.51,0,0,0-.5-.19,2.4,2.4,0,0,0-.69-.09,2,2,0,0,0-.62.09,1.54,1.54,0,0,0-.48.24,1,1,0,0,0-.3.36.92.92,0,0,0-.1.44.76.76,0,0,0,.17.5,1.49,1.49,0,0,0,.46.34,3.42,3.42,0,0,0,.64.26l.75.24c.25.08.5.18.74.28a2.71,2.71,0,0,1,.64.38,1.84,1.84,0,0,1,.46.57,1.78,1.78,0,0,1,.17.8,2.46,2.46,0,0,1-.19,1,2.14,2.14,0,0,1-.57.79,2.68,2.68,0,0,1-.92.53,3.71,3.71,0,0,1-1.26.19,4,4,0,0,1-1.47-.26,3.85,3.85,0,0,1-1.12-.68l.32-.53a.67.67,0,0,1,.14-.15.49.49,0,0,1,.23-.05.46.46,0,0,1,.29.11,3.51,3.51,0,0,0,.37.23,2.62,2.62,0,0,0,.53.24,2.48,2.48,0,0,0,.78.11,2.1,2.1,0,0,0,.7-.11,1.5,1.5,0,0,0,.5-.27,1.14,1.14,0,0,0,.29-.41,1.19,1.19,0,0,0,.1-.49.8.8,0,0,0-.18-.54,1.38,1.38,0,0,0-.45-.36,4.4,4.4,0,0,0-.65-.26l-.74-.23c-.26-.08-.51-.18-.75-.28a2.83,2.83,0,0,1-.65-.4,1.71,1.71,0,0,1-.45-.58,1.87,1.87,0,0,1-.18-.85,2,2,0,0,1,.19-.86,2.17,2.17,0,0,1,.53-.72,2.83,2.83,0,0,1,.87-.5,3.57,3.57,0,0,1,1.18-.18,3.68,3.68,0,0,1,1.37.24,3.14,3.14,0,0,1,1.06.67Z" style="fill:#1d1d1b"/><line x1="160.63" y1="118.48" x2="212.44" y2="88.56" style="fill:none;stroke:#1d1d1b;stroke-miterlimit:10;stroke-width:2.878134536497308px"/><polygon points="214.21 95.83 221.38 83.4 207.03 83.4 214.21 95.83" style="fill:#1d1d1b"/><rect x="513.09" y="201.8" width="49.39" height="49.39" style="fill:none;stroke:#1d1d1b;stroke-miterlimit:10;stroke-width:0.9593781788324361px"/><rect x="569.24" y="201.8" width="49.39" height="49.39" style="fill:none;stroke:#1d1d1b;stroke-miterlimit:10;stroke-width:0.9593781788324361px"/><rect x="625.4" y="201.8" width="49.39" height="49.39" style="fill:none;stroke:#1d1d1b;stroke-miterlimit:10;stroke-width:0.9593781788324361px"/><rect x="681.26" y="201.8" width="49.39" height="49.39" style="fill:none;stroke:#1d1d1b;stroke-miterlimit:10;stroke-width:0.9593781788324361px"/><circle cx="554.24" cy="148.79" r="1.64" style="fill:#1d1d1b"/><circle cx="551.34" cy="165.84" r="1.64" style="fill:#c6c6c6"/><circle cx="547.43" cy="158.75" r="1.64" style="fill:#c6c6c6"/><path d="M550.28,158.39a1.64,1.64,0,1,1,1.83,1.43A1.64,1.64,0,0,1,550.28,158.39Z" style="fill:#c6c6c6"/><circle cx="551.16" cy="152.22" r="1.64" style="fill:#1d1d1b"/><circle cx="548.93" cy="146.43" r="1.64" style="fill:#1d1d1b"/><circle cx="539.85" cy="170.17" r="1.64" style="fill:#c6c6c6"/><circle cx="528.96" cy="173.23" r="1.64" style="fill:#c6c6c6"/><circle cx="526.13" cy="176.09" r="1.64" style="fill:#c6c6c6"/><circle cx="542.49" cy="173.23" r="1.64" style="fill:#c6c6c6"/><circle cx="544.49" cy="166.15" r="1.64" style="fill:#c6c6c6"/><circle cx="549.95" cy="171.6" r="1.64" style="fill:#c6c6c6"/><circle cx="554.24" cy="173.23" r="1.64" style="fill:#c6c6c6"/><circle cx="553.31" cy="178.49" r="1.64" style="fill:#c6c6c6"/><circle cx="556.96" cy="183.28" r="1.64" style="fill:#c6c6c6"/><circle cx="551.98" cy="196.12" r="1.64" style="fill:#c6c6c6"/><circle cx="518.61" cy="177.6" r="1.64" style="fill:#c6c6c6"/><circle cx="536.67" cy="176.09" r="1.64" style="fill:#c6c6c6"/><circle cx="530.65" cy="177.6" r="1.64" style="fill:#c6c6c6"/><circle cx="551.16" cy="190.67" r="1.64" style="fill:#c6c6c6"/><circle cx="551.98" cy="185.22" r="1.64" style="fill:#c6c6c6"/><circle cx="546.13" cy="190.43" r="1.64" style="fill:#c6c6c6"/><circle cx="548.31" cy="194.68" r="1.64" style="fill:#c6c6c6"/><circle cx="555.85" cy="188.79" r="1.64" style="fill:#c6c6c6"/><circle cx="534.76" cy="171.94" r="1.64" style="fill:#c6c6c6"/><circle cx="524.25" cy="180.07" r="1.64" style="fill:#c6c6c6"/><circle cx="519.13" cy="182.04" r="1.64" style="fill:#c6c6c6"/><circle cx="555.85" cy="153.8" r="1.64" style="fill:#1d1d1b"/><circle cx="610.21" cy="148.79" r="1.64" style="fill:#c6c6c6"/><circle cx="607.31" cy="165.84" r="1.64" style="fill:#1d1d1b"/><circle cx="603.39" cy="158.75" r="1.64" style="fill:#1d1d1b"/><path d="M606.25,158.39a1.64,1.64,0,1,1,1.83,1.43A1.64,1.64,0,0,1,606.25,158.39Z" style="fill:#1d1d1b"/><circle cx="607.13" cy="152.22" r="1.64" style="fill:#c6c6c6"/><circle cx="604.89" cy="146.43" r="1.64" style="fill:#c6c6c6"/><circle cx="595.82" cy="170.17" r="1.64" style="fill:#c6c6c6"/><circle cx="584.93" cy="173.23" r="1.64" style="fill:#c6c6c6"/><circle cx="582.1" cy="176.09" r="1.64" style="fill:#c6c6c6"/><circle cx="598.46" cy="173.23" r="1.64" style="fill:#c6c6c6"/><circle cx="600.46" cy="166.15" r="1.64" style="fill:#1d1d1b"/><circle cx="605.91" cy="171.6" r="1.64" style="fill:#c6c6c6"/><circle cx="610.21" cy="173.23" r="1.64" style="fill:#c6c6c6"/><circle cx="609.28" cy="178.49" r="1.64" style="fill:#c6c6c6"/><circle cx="612.93" cy="183.28" r="1.64" style="fill:#c6c6c6"/><circle cx="607.95" cy="196.12" r="1.64" style="fill:#c6c6c6"/><circle cx="574.58" cy="177.6" r="1.64" style="fill:#c6c6c6"/><circle cx="592.64" cy="176.09" r="1.64" style="fill:#c6c6c6"/><circle cx="586.62" cy="177.6" r="1.64" style="fill:#c6c6c6"/><circle cx="607.13" cy="190.67" r="1.64" style="fill:#c6c6c6"/><circle cx="607.95" cy="185.22" r="1.64" style="fill:#c6c6c6"/><circle cx="602.1" cy="190.43" r="1.64" style="fill:#c6c6c6"/><circle cx="604.27" cy="194.68" r="1.64" style="fill:#c6c6c6"/><circle cx="611.82" cy="188.79" r="1.64" style="fill:#c6c6c6"/><circle cx="590.72" cy="171.94" r="1.64" style="fill:#c6c6c6"/><circle cx="580.22" cy="180.07" r="1.64" style="fill:#c6c6c6"/><circle cx="575.1" cy="182.04" r="1.64" style="fill:#c6c6c6"/><circle cx="611.82" cy="153.8" r="1.64" style="fill:#c6c6c6"/><circle cx="666.17" cy="148.79" r="1.64" style="fill:#c6c6c6"/><circle cx="663.28" cy="165.84" r="1.64" style="fill:#c6c6c6"/><circle cx="659.36" cy="158.75" r="1.64" style="fill:#c6c6c6"/><path d="M662.21,158.39a1.64,1.64,0,1,1,1.83,1.43A1.65,1.65,0,0,1,662.21,158.39Z" style="fill:#c6c6c6"/><circle cx="663.1" cy="152.22" r="1.64" style="fill:#c6c6c6"/><circle cx="660.86" cy="146.43" r="1.64" style="fill:#c6c6c6"/><circle cx="651.79" cy="170.17" r="1.64" style="fill:#1d1d1b"/><circle cx="640.9" cy="173.23" r="1.64" style="fill:#1d1d1b"/><circle cx="638.07" cy="176.09" r="1.64" style="fill:#c6c6c6"/><circle cx="654.42" cy="173.23" r="1.64" style="fill:#1d1d1b"/><circle cx="656.42" cy="166.15" r="1.64" style="fill:#1d1d1b"/><circle cx="661.88" cy="171.6" r="1.64" style="fill:#c6c6c6"/><circle cx="666.17" cy="173.23" r="1.64" style="fill:#c6c6c6"/><circle cx="665.25" cy="178.49" r="1.64" style="fill:#c6c6c6"/><circle cx="668.9" cy="183.28" r="1.64" style="fill:#c6c6c6"/><circle cx="663.92" cy="196.12" r="1.64" style="fill:#c6c6c6"/><circle cx="630.55" cy="177.6" r="1.64" style="fill:#c6c6c6"/><circle cx="648.6" cy="176.09" r="1.64" style="fill:#1d1d1b"/><circle cx="642.59" cy="177.6" r="1.64" style="fill:#1d1d1b"/><circle cx="663.1" cy="190.67" r="1.64" style="fill:#c6c6c6"/><circle cx="663.92" cy="185.22" r="1.64" style="fill:#c6c6c6"/><circle cx="658.06" cy="190.43" r="1.64" style="fill:#c6c6c6"/><circle cx="660.24" cy="194.68" r="1.64" style="fill:#c6c6c6"/><circle cx="667.79" cy="188.79" r="1.64" style="fill:#c6c6c6"/><circle cx="646.69" cy="171.94" r="1.64" style="fill:#1d1d1b"/><circle cx="636.19" cy="180.07" r="1.64" style="fill:#c6c6c6"/><circle cx="631.07" cy="182.04" r="1.64" style="fill:#c6c6c6"/><circle cx="667.79" cy="153.8" r="1.64" style="fill:#c6c6c6"/><circle cx="722.14" cy="148.79" r="1.64" style="fill:#c6c6c6"/><circle cx="719.24" cy="165.84" r="1.64" style="fill:#c6c6c6"/><circle cx="715.33" cy="158.75" r="1.64" style="fill:#c6c6c6"/><path d="M718.18,158.39a1.64,1.64,0,1,1,1.83,1.43A1.65,1.65,0,0,1,718.18,158.39Z" style="fill:#c6c6c6"/><circle cx="719.07" cy="152.22" r="1.64" style="fill:#c6c6c6"/><circle cx="716.83" cy="146.43" r="1.64" style="fill:#c6c6c6"/><circle cx="707.76" cy="170.17" r="1.64" style="fill:#c6c6c6"/><circle cx="696.87" cy="173.23" r="1.64" style="fill:#c6c6c6"/><circle cx="694.04" cy="176.09" r="1.64" style="fill:#c6c6c6"/><circle cx="710.39" cy="173.23" r="1.64" style="fill:#c6c6c6"/><circle cx="712.39" cy="166.15" r="1.64" style="fill:#c6c6c6"/><circle cx="717.85" cy="171.6" r="1.64" style="fill:#1d1d1b"/><circle cx="722.14" cy="173.23" r="1.64" style="fill:#1d1d1b"/><circle cx="721.21" cy="178.49" r="1.64" style="fill:#1d1d1b"/><circle cx="724.86" cy="183.28" r="1.64" style="fill:#1d1d1b"/><circle cx="719.88" cy="196.12" r="1.64" style="fill:#c6c6c6"/><circle cx="686.51" cy="177.6" r="1.64" style="fill:#c6c6c6"/><circle cx="704.57" cy="176.09" r="1.64" style="fill:#c6c6c6"/><circle cx="698.55" cy="177.6" r="1.64" style="fill:#c6c6c6"/><circle cx="719.07" cy="190.67" r="1.64" style="fill:#c6c6c6"/><circle cx="719.88" cy="185.22" r="1.64" style="fill:#1d1d1b"/><circle cx="714.03" cy="190.43" r="1.64" style="fill:#c6c6c6"/><circle cx="716.21" cy="194.68" r="1.64" style="fill:#c6c6c6"/><circle cx="723.76" cy="188.79" r="1.64" style="fill:#c6c6c6"/><circle cx="702.66" cy="171.94" r="1.64" style="fill:#c6c6c6"/><circle cx="692.16" cy="180.07" r="1.64" style="fill:#c6c6c6"/><circle cx="687.04" cy="182.04" r="1.64" style="fill:#c6c6c6"/><circle cx="723.76" cy="153.8" r="1.64" style="fill:#c6c6c6"/><line x1="537.79" y1="202.22" x2="537.79" y2="203.18" style="fill:none;stroke:#1d1d1b;stroke-linecap:square;stroke-miterlimit:10;stroke-width:0.5756269301728181px"/><line x1="537.79" y1="205.06" x2="537.79" y2="249.29" style="fill:none;stroke:#1d1d1b;stroke-linecap:square;stroke-miterlimit:10;stroke-width:0.5756269301728181px;stroke-dasharray:1.8821945190429688,1.8821945190429688"/><line x1="537.79" y1="250.23" x2="537.79" y2="251.19" style="fill:none;stroke:#1d1d1b;stroke-linecap:square;stroke-miterlimit:10;stroke-width:0.5756269301728181px"/><line x1="562.27" y1="226.7" x2="561.31" y2="226.7" style="fill:none;stroke:#1d1d1b;stroke-linecap:square;stroke-miterlimit:10;stroke-width:0.5756269301728181px"/><line x1="559.42" y1="226.7" x2="515" y2="226.7" style="fill:none;stroke:#1d1d1b;stroke-linecap:square;stroke-miterlimit:10;stroke-width:0.5756269301728181px;stroke-dasharray:1.8902010917663574,1.8902010917663574"/><line x1="514.05" y1="226.7" x2="513.09" y2="226.7" style="fill:none;stroke:#1d1d1b;stroke-linecap:square;stroke-miterlimit:10;stroke-width:0.5756269301728181px"/><line x1="594.04" y1="202.22" x2="594.04" y2="203.18" style="fill:none;stroke:#1d1d1b;stroke-linecap:square;stroke-miterlimit:10;stroke-width:0.5756269301728181px"/><line x1="594.04" y1="205.06" x2="594.04" y2="249.29" style="fill:none;stroke:#1d1d1b;stroke-linecap:square;stroke-miterlimit:10;stroke-width:0.5756269301728181px;stroke-dasharray:1.8821945190429688,1.8821945190429688"/><line x1="594.04" y1="250.23" x2="594.04" y2="251.19" style="fill:none;stroke:#1d1d1b;stroke-linecap:square;stroke-miterlimit:10;stroke-width:0.5756269301728181px"/><line x1="618.52" y1="226.7" x2="617.56" y2="226.7" style="fill:none;stroke:#1d1d1b;stroke-linecap:square;stroke-miterlimit:10;stroke-width:0.5756269301728181px"/><line x1="615.67" y1="226.7" x2="571.25" y2="226.7" style="fill:none;stroke:#1d1d1b;stroke-linecap:square;stroke-miterlimit:10;stroke-width:0.5756269301728181px;stroke-dasharray:1.8902010917663574,1.8902010917663574"/><line x1="570.31" y1="226.7" x2="569.35" y2="226.7" style="fill:none;stroke:#1d1d1b;stroke-linecap:square;stroke-miterlimit:10;stroke-width:0.5756269301728181px"/><line x1="650.05" y1="202.01" x2="650.05" y2="202.97" style="fill:none;stroke:#1d1d1b;stroke-linecap:square;stroke-miterlimit:10;stroke-width:0.5756269301728181px"/><line x1="650.05" y1="204.85" x2="650.05" y2="249.08" style="fill:none;stroke:#1d1d1b;stroke-linecap:square;stroke-miterlimit:10;stroke-width:0.5756269301728181px;stroke-dasharray:1.8821945190429688,1.8821945190429688"/><line x1="650.05" y1="250.02" x2="650.05" y2="250.98" style="fill:none;stroke:#1d1d1b;stroke-linecap:square;stroke-miterlimit:10;stroke-width:0.5756269301728181px"/><line x1="674.53" y1="226.5" x2="673.57" y2="226.5" style="fill:none;stroke:#1d1d1b;stroke-linecap:square;stroke-miterlimit:10;stroke-width:0.5756269301728181px"/><line x1="671.68" y1="226.5" x2="627.26" y2="226.5" style="fill:none;stroke:#1d1d1b;stroke-linecap:square;stroke-miterlimit:10;stroke-width:0.5756269301728181px;stroke-dasharray:1.8902010917663574,1.8902010917663574"/><line x1="626.32" y1="226.5" x2="625.36" y2="226.5" style="fill:none;stroke:#1d1d1b;stroke-linecap:square;stroke-miterlimit:10;stroke-width:0.5756269301728181px"/><line x1="706.22" y1="202.22" x2="706.22" y2="203.18" style="fill:none;stroke:#1d1d1b;stroke-linecap:square;stroke-miterlimit:10;stroke-width:0.5756269301728181px"/><line x1="706.22" y1="205.06" x2="706.22" y2="249.29" style="fill:none;stroke:#1d1d1b;stroke-linecap:square;stroke-miterlimit:10;stroke-width:0.5756269301728181px;stroke-dasharray:1.8821945190429688,1.8821945190429688"/><line x1="706.22" y1="250.23" x2="706.22" y2="251.19" style="fill:none;stroke:#1d1d1b;stroke-linecap:square;stroke-miterlimit:10;stroke-width:0.5756269301728181px"/><line x1="730.7" y1="226.7" x2="729.74" y2="226.7" style="fill:none;stroke:#1d1d1b;stroke-linecap:square;stroke-miterlimit:10;stroke-width:0.5756269301728181px"/><line x1="727.85" y1="226.7" x2="683.43" y2="226.7" style="fill:none;stroke:#1d1d1b;stroke-linecap:square;stroke-miterlimit:10;stroke-width:0.5756269301728181px;stroke-dasharray:1.8902010917663574,1.8902010917663574"/><line x1="682.49" y1="226.7" x2="681.53" y2="226.7" style="fill:none;stroke:#1d1d1b;stroke-linecap:square;stroke-miterlimit:10;stroke-width:0.5756269301728181px"/><circle cx="539.53" cy="223.91" r="0.99" style="fill:#009fe3"/><circle cx="535.49" cy="224.5" r="0.99" style="fill:#009fe3"/><circle cx="535.71" cy="228.05" r="0.99" style="fill:#009fe3"/><circle cx="539.41" cy="228.05" r="0.99" style="fill:#009fe3"/><circle cx="539.41" cy="220.37" r="0.99" style="fill:#009fe3"/><circle cx="541.39" cy="225.9" r="0.99" style="fill:#009fe3"/><circle cx="537.51" cy="225.33" r="0.99" style="fill:#009fe3"/><circle cx="535.94" cy="223.05" r="0.99" style="fill:#e30613"/><circle cx="541.93" cy="230.25" r="0.99" style="fill:#e30613"/><circle cx="536.93" cy="226.89" r="0.99" style="fill:#e30613"/><circle cx="538.78" cy="225.33" r="0.99" style="fill:#e30613"/><circle cx="534.86" cy="225.33" r="0.99" style="fill:#e30613"/><circle cx="608.77" cy="238.11" r="0.99" style="fill:#e30613"/><circle cx="610.09" cy="241.55" r="0.99" style="fill:#e30613"/><circle cx="605" cy="237.12" r="0.99" style="fill:#e30613"/><circle cx="606.27" cy="239.18" r="0.99" style="fill:#e30613"/><circle cx="607.65" cy="240.56" r="0.99" style="fill:#e30613"/><circle cx="583.6" cy="218.22" r="0.99" style="fill:#009fe3"/><circle cx="580.08" cy="216.37" r="0.99" style="fill:#009fe3"/><circle cx="585.82" cy="220.71" r="0.99" style="fill:#009fe3"/><circle cx="580.79" cy="214.08" r="0.99" style="fill:#009fe3"/><circle cx="583.1" cy="215.65" r="0.99" style="fill:#009fe3"/><circle cx="586.27" cy="218.22" r="0.99" style="fill:#009fe3"/><circle cx="577.84" cy="214.47" r="0.99" style="fill:#009fe3"/><circle cx="578.49" cy="212.1" r="0.99" style="fill:#009fe3"/><circle cx="655.1" cy="229.6" r="0.99" style="fill:#e30613"/><circle cx="656.42" cy="233.04" r="0.99" style="fill:#e30613"/><circle cx="651.33" cy="228.61" r="0.99" style="fill:#e30613"/><circle cx="652.6" cy="230.67" r="0.99" style="fill:#e30613"/><circle cx="653.98" cy="232.05" r="0.99" style="fill:#e30613"/><circle cx="643.33" cy="223.45" r="0.99" style="fill:#009fe3"/><circle cx="645.18" cy="219.93" r="0.99" style="fill:#009fe3"/><circle cx="647.48" cy="224.91" r="0.99" style="fill:#009fe3"/><circle cx="647.48" cy="220.64" r="0.99" style="fill:#009fe3"/><circle cx="645.91" cy="222.94" r="0.99" style="fill:#009fe3"/><circle cx="645.05" cy="225.22" r="0.99" style="fill:#009fe3"/><circle cx="649.41" cy="224.91" r="0.99" style="fill:#009fe3"/><circle cx="642.59" cy="219.93" r="0.99" style="fill:#009fe3"/><circle cx="710.07" cy="228.38" r="0.99" style="fill:#e30613"/><circle cx="711.39" cy="231.82" r="0.99" style="fill:#e30613"/><circle cx="706.3" cy="227.39" r="0.99" style="fill:#e30613"/><circle cx="707.57" cy="229.45" r="0.99" style="fill:#e30613"/><circle cx="708.95" cy="230.82" r="0.99" style="fill:#e30613"/><circle cx="703.76" cy="226.57" r="0.99" style="fill:#009fe3"/><circle cx="705.61" cy="223.05" r="0.99" style="fill:#009fe3"/><circle cx="707.91" cy="228.02" r="0.99" style="fill:#009fe3"/><circle cx="707.91" cy="223.76" r="0.99" style="fill:#009fe3"/><circle cx="706.34" cy="226.06" r="0.99" style="fill:#009fe3"/><circle cx="705.49" cy="228.33" r="0.99" style="fill:#009fe3"/><circle cx="709.85" cy="228.02" r="0.99" style="fill:#009fe3"/><circle cx="703.02" cy="223.05" r="0.99" style="fill:#009fe3"/><circle cx="537.55" cy="229.29" r="0.99" style="fill:#e30613"/><circle cx="541.39" cy="227.08" r="0.99" style="fill:#e30613"/><circle cx="603.03" cy="234.48" r="0.99" style="fill:#e30613"/><circle cx="606.41" cy="235.7" r="0.99" style="fill:#e30613"/><circle cx="648.95" cy="227.31" r="0.99" style="fill:#e30613"/><circle cx="651.61" cy="226.5" r="0.99" style="fill:#e30613"/><circle cx="707.91" cy="226.06" r="0.99" style="fill:#e30613"/><circle cx="706.67" cy="227.76" r="0.99" style="fill:#e30613"/><line x1="160.63" y1="159.99" x2="212.44" y2="189.9" style="fill:none;stroke:#1d1d1b;stroke-miterlimit:10;stroke-width:2.878134536497308px"/><polygon points="207.03 195.07 221.38 195.07 214.21 182.64 207.03 195.07" style="fill:#1d1d1b"/><path d="M46.78,39v1.25H43.22V50H41.73V40.23H38.17V39Z" style="fill:#1d1d1b"/><path d="M46.9,50V42.2h.78a.48.48,0,0,1,.31.08.6.6,0,0,1,.12.3l.09,1.21a3.48,3.48,0,0,1,1-1.27,2.15,2.15,0,0,1,1.38-.46,2.49,2.49,0,0,1,.58.07,2,2,0,0,1,.49.21l-.18,1a.22.22,0,0,1-.24.19,1.13,1.13,0,0,1-.33-.07,1.94,1.94,0,0,0-.62-.08,1.75,1.75,0,0,0-1.19.42,3.11,3.11,0,0,0-.8,1.2V50Z" style="fill:#1d1d1b"/><path d="M56.16,42.08a3.57,3.57,0,0,1,1.29.23,2.77,2.77,0,0,1,1,.68,3.07,3.07,0,0,1,.68,1.09,4.2,4.2,0,0,1,.24,1.47,1,1,0,0,1-.07.43.27.27,0,0,1-.26.11H53.88a4.35,4.35,0,0,0,.2,1.28,2.74,2.74,0,0,0,.51.91,2,2,0,0,0,.77.55,2.62,2.62,0,0,0,1,.18,2.88,2.88,0,0,0,.88-.12,4.45,4.45,0,0,0,.64-.26,4.19,4.19,0,0,0,.45-.26.68.68,0,0,1,.31-.11.28.28,0,0,1,.26.13l.39.49a2.44,2.44,0,0,1-.61.54,4,4,0,0,1-.75.37,4.71,4.71,0,0,1-.84.22,4.88,4.88,0,0,1-.85.07,3.94,3.94,0,0,1-1.48-.27,3.21,3.21,0,0,1-1.18-.8,3.56,3.56,0,0,1-.77-1.3,5.41,5.41,0,0,1-.28-1.78,4.7,4.7,0,0,1,.25-1.52,3.62,3.62,0,0,1,.72-1.22,3.27,3.27,0,0,1,1.14-.82A3.89,3.89,0,0,1,56.16,42.08Zm0,1a2.07,2.07,0,0,0-1.55.57,2.7,2.7,0,0,0-.71,1.59h4.23a2.65,2.65,0,0,0-.13-.87,2,2,0,0,0-.38-.68,1.63,1.63,0,0,0-.62-.45A2,2,0,0,0,56.19,43.08Z" style="fill:#1d1d1b"/><path d="M64.21,42.08a3.65,3.65,0,0,1,1.29.23,3,3,0,0,1,1,.68,3,3,0,0,1,.67,1.09,4.2,4.2,0,0,1,.24,1.47.83.83,0,0,1-.07.43c0,.08-.13.11-.26.11H61.93a4,4,0,0,0,.2,1.28,2.56,2.56,0,0,0,.5.91,2,2,0,0,0,.77.55,2.66,2.66,0,0,0,1,.18,3,3,0,0,0,.89-.12,5,5,0,0,0,.64-.26,4.19,4.19,0,0,0,.45-.26.65.65,0,0,1,.31-.11.29.29,0,0,1,.26.13l.38.49a2.44,2.44,0,0,1-.61.54,3.74,3.74,0,0,1-.75.37,4.84,4.84,0,0,1-.83.22,5,5,0,0,1-.86.07,4,4,0,0,1-1.48-.27,3.3,3.3,0,0,1-1.18-.8,3.71,3.71,0,0,1-.77-1.3,5.41,5.41,0,0,1-.27-1.78,4.45,4.45,0,0,1,.25-1.52,3.44,3.44,0,0,1,.71-1.22,3.4,3.4,0,0,1,1.15-.82A3.85,3.85,0,0,1,64.21,42.08Zm0,1a2.11,2.11,0,0,0-1.56.57A2.76,2.76,0,0,0,62,45.24H66.2a2.65,2.65,0,0,0-.13-.87,1.74,1.74,0,0,0-.38-.68,1.63,1.63,0,0,0-.62-.45A2,2,0,0,0,64.24,43.08Z" style="fill:#1d1d1b"/><path d="M73.65,38.67V50H72.29V38.67Z" style="fill:#1d1d1b"/><path d="M79.14,42.08a3.57,3.57,0,0,1,1.29.23,2.77,2.77,0,0,1,1,.68,2.91,2.91,0,0,1,.67,1.09,4,4,0,0,1,.25,1.47,1,1,0,0,1-.07.43.28.28,0,0,1-.26.11H76.86a4.35,4.35,0,0,0,.2,1.28,2.57,2.57,0,0,0,.51.91,1.92,1.92,0,0,0,.77.55,2.61,2.61,0,0,0,1,.18,2.9,2.9,0,0,0,.89-.12,4.45,4.45,0,0,0,.64-.26,4.19,4.19,0,0,0,.45-.26.65.65,0,0,1,.31-.11.29.29,0,0,1,.26.13l.39.49a2.44,2.44,0,0,1-.61.54,4.11,4.11,0,0,1-.76.37,4.4,4.4,0,0,1-.83.22,5,5,0,0,1-.85.07,4,4,0,0,1-1.49-.27,3.26,3.26,0,0,1-1.17-.8,3.56,3.56,0,0,1-.77-1.3,5.16,5.16,0,0,1-.28-1.78,4.7,4.7,0,0,1,.25-1.52,3.62,3.62,0,0,1,.72-1.22,3.27,3.27,0,0,1,1.14-.82A3.89,3.89,0,0,1,79.14,42.08Zm0,1a2.07,2.07,0,0,0-1.55.57,2.7,2.7,0,0,0-.71,1.59h4.23a2.94,2.94,0,0,0-.13-.87,1.89,1.89,0,0,0-.39-.68,1.59,1.59,0,0,0-.61-.45A2,2,0,0,0,79.17,43.08Z" style="fill:#1d1d1b"/><path d="M89.82,50h-.61a.73.73,0,0,1-.32-.06.31.31,0,0,1-.16-.26l-.16-.72c-.2.19-.4.35-.59.5a3.85,3.85,0,0,1-.62.36,3,3,0,0,1-.68.23,4.12,4.12,0,0,1-.81.08A2.57,2.57,0,0,1,85,50a1.86,1.86,0,0,1-.69-.38,1.78,1.78,0,0,1-.46-.64,2.19,2.19,0,0,1-.18-.92,1.7,1.7,0,0,1,.26-.89,2.21,2.21,0,0,1,.81-.76,5.68,5.68,0,0,1,1.48-.55,10.21,10.21,0,0,1,2.24-.21V45a2.14,2.14,0,0,0-.39-1.38,1.41,1.41,0,0,0-1.15-.46,2.57,2.57,0,0,0-.84.12,3.24,3.24,0,0,0-.59.29c-.17.1-.31.2-.43.28a.59.59,0,0,1-.36.13.48.48,0,0,1-.24-.07.49.49,0,0,1-.16-.19l-.25-.43a4.18,4.18,0,0,1,3-1.24,2.86,2.86,0,0,1,1.16.22,2.26,2.26,0,0,1,.85.6,2.51,2.51,0,0,1,.52.92,3.87,3.87,0,0,1,.18,1.2Zm-3.55-.83a3.34,3.34,0,0,0,.66-.07,2.78,2.78,0,0,0,.57-.21,3.08,3.08,0,0,0,.5-.33,4.79,4.79,0,0,0,.48-.44v-1.6a9.2,9.2,0,0,0-1.61.12,4.31,4.31,0,0,0-1.07.31,1.51,1.51,0,0,0-.61.46A1,1,0,0,0,85,48a1.27,1.27,0,0,0,.1.54.88.88,0,0,0,.26.36,1,1,0,0,0,.4.21A1.63,1.63,0,0,0,86.27,49.14Z" style="fill:#1d1d1b"/><path d="M91.89,50V42.2h.78a.48.48,0,0,1,.31.08.6.6,0,0,1,.12.3l.09,1.21a3.48,3.48,0,0,1,1-1.27,2.17,2.17,0,0,1,1.38-.46,2.49,2.49,0,0,1,.58.07,2,2,0,0,1,.49.21l-.18,1a.22.22,0,0,1-.24.19,1.13,1.13,0,0,1-.33-.07,1.94,1.94,0,0,0-.62-.08,1.75,1.75,0,0,0-1.19.42,3.11,3.11,0,0,0-.8,1.2V50Z" style="fill:#1d1d1b"/><path d="M98.08,50V42.2h.81a.35.35,0,0,1,.37.28l.11.85a4.08,4.08,0,0,1,1.13-.91,2.92,2.92,0,0,1,1.44-.34,2.85,2.85,0,0,1,1.13.21,2.2,2.2,0,0,1,.81.6,2.77,2.77,0,0,1,.5.93,4.09,4.09,0,0,1,.17,1.2V50h-1.37V45a2.11,2.11,0,0,0-.4-1.37,1.52,1.52,0,0,0-1.23-.48,2.25,2.25,0,0,0-1.14.29,3.75,3.75,0,0,0-1,.79V50Z" style="fill:#1d1d1b"/><path d="M108.44,39.76a.91.91,0,0,1-.08.37,1.16,1.16,0,0,1-.22.31,1,1,0,0,1-.68.29,1,1,0,0,1-.38-.08,1,1,0,0,1-.3-.21,1,1,0,0,1-.21-.31.77.77,0,0,1-.08-.37.84.84,0,0,1,.08-.38,1,1,0,0,1,.21-.32,1.25,1.25,0,0,1,.3-.21,1,1,0,0,1,.38-.07.94.94,0,0,1,.37.07,1.13,1.13,0,0,1,.31.21,1.21,1.21,0,0,1,.22.32A1,1,0,0,1,108.44,39.76Zm-.31,2.44V50h-1.37V42.2Z" style="fill:#1d1d1b"/><path d="M110.54,50V42.2h.81a.34.34,0,0,1,.37.28l.11.85a4.23,4.23,0,0,1,1.13-.91,3,3,0,0,1,1.45-.34,2.8,2.8,0,0,1,1.12.21,2.16,2.16,0,0,1,.82.6,2.75,2.75,0,0,1,.49.93A4.09,4.09,0,0,1,117,45V50h-1.37V45a2.11,2.11,0,0,0-.4-1.37,1.52,1.52,0,0,0-1.23-.48,2.24,2.24,0,0,0-1.13.29,3.59,3.59,0,0,0-1,.79V50Z" style="fill:#1d1d1b"/><path d="M121.69,42.07a4.06,4.06,0,0,1,1,.11,2.7,2.7,0,0,1,.8.33h2.11V43c0,.17-.1.28-.32.33l-.88.12a2.39,2.39,0,0,1,.26,1.11,2.32,2.32,0,0,1-.22,1,2.4,2.4,0,0,1-.61.8,2.48,2.48,0,0,1-.92.5,3.59,3.59,0,0,1-1.17.18,3.88,3.88,0,0,1-1-.13,1.54,1.54,0,0,0-.37.34.66.66,0,0,0-.13.36.49.49,0,0,0,.23.43,1.46,1.46,0,0,0,.59.21,5,5,0,0,0,.83.07h1a5.11,5.11,0,0,1,1,.08,2.9,2.9,0,0,1,.83.28,1.47,1.47,0,0,1,.59.54,1.55,1.55,0,0,1,.23.88,2.13,2.13,0,0,1-.25,1,2.61,2.61,0,0,1-.72.84,3.41,3.41,0,0,1-1.14.59,4.82,4.82,0,0,1-1.53.23,5.93,5.93,0,0,1-1.49-.17,3.66,3.66,0,0,1-1.07-.46,1.94,1.94,0,0,1-.63-.65,1.58,1.58,0,0,1-.21-.78,1.41,1.41,0,0,1,.36-1,2.47,2.47,0,0,1,1-.64,1.44,1.44,0,0,1-.52-.41,1.2,1.2,0,0,1-.14-1,1.7,1.7,0,0,1,.19-.35,2.45,2.45,0,0,1,.31-.34,2.69,2.69,0,0,1,.43-.29,2.45,2.45,0,0,1-.9-.85,2.33,2.33,0,0,1-.33-1.25,2.47,2.47,0,0,1,.22-1,2.36,2.36,0,0,1,.61-.79,2.65,2.65,0,0,1,.94-.5A3.7,3.7,0,0,1,121.69,42.07Zm2.43,8.3a.73.73,0,0,0-.16-.48,1.15,1.15,0,0,0-.44-.28,3.58,3.58,0,0,0-.64-.14,6.06,6.06,0,0,0-.76,0h-.81a2.9,2.9,0,0,1-.79-.1,2.27,2.27,0,0,0-.71.51,1,1,0,0,0-.27.71,1,1,0,0,0,.13.49,1.19,1.19,0,0,0,.41.39,2.28,2.28,0,0,0,.7.26,4,4,0,0,0,1,.1,4.87,4.87,0,0,0,1-.1,2.66,2.66,0,0,0,.74-.29,1.56,1.56,0,0,0,.47-.45A1.11,1.11,0,0,0,124.12,50.37Zm-2.43-4.19a2.13,2.13,0,0,0,.74-.12,1.47,1.47,0,0,0,.53-.32,1.3,1.3,0,0,0,.32-.5,1.81,1.81,0,0,0,.11-.63,1.53,1.53,0,0,0-.44-1.14,2.09,2.09,0,0,0-2.51,0,1.53,1.53,0,0,0-.44,1.14,1.61,1.61,0,0,0,.12.63,1.3,1.3,0,0,0,.32.5,1.47,1.47,0,0,0,.53.32A2,2,0,0,0,121.69,46.18Z" style="fill:#1d1d1b"/><rect x="439.73" y="32.85" width="42.68" height="10.22" style="stroke:#1d1d1b;stroke-linecap:round;stroke-miterlimit:10;stroke-width:0.9593781788324361px;fill:url(#Dégradé_sans_nom_114)"/><rect x="482.41" y="32.85" width="20.24" height="10.22" style="stroke:#1d1d1b;stroke-linecap:round;stroke-miterlimit:10;stroke-width:0.9593781788324361px;fill:url(#Dégradé_sans_nom_152)"/><rect x="502.64" y="32.85" width="18.77" height="10.22" style="stroke:#1d1d1b;stroke-linecap:round;stroke-miterlimit:10;stroke-width:0.9593781788324361px;fill:url(#Dégradé_sans_nom_125)"/><rect x="544.66" y="32.85" width="42.68" height="10.22" style="stroke:#1d1d1b;stroke-linecap:round;stroke-miterlimit:10;stroke-width:0.9593781788324361px;fill:url(#Dégradé_sans_nom_114-2)"/><rect x="587.34" y="32.85" width="20.24" height="10.22" style="stroke:#1d1d1b;stroke-linecap:round;stroke-miterlimit:10;stroke-width:0.9593781788324361px;fill:url(#Dégradé_sans_nom_152-2)"/><rect x="607.58" y="32.85" width="18.77" height="10.22" style="stroke:#1d1d1b;stroke-linecap:round;stroke-miterlimit:10;stroke-width:0.9593781788324361px;fill:url(#Dégradé_sans_nom_125-2)"/><rect x="648.84" y="32.52" width="42.68" height="10.22" style="stroke:#1d1d1b;stroke-linecap:round;stroke-miterlimit:10;stroke-width:0.9593781788324361px;fill:url(#Dégradé_sans_nom_114-3)"/><rect x="691.51" y="32.52" width="20.24" height="10.22" style="stroke:#1d1d1b;stroke-linecap:round;stroke-miterlimit:10;stroke-width:0.9593781788324361px;fill:url(#Dégradé_sans_nom_152-3)"/><rect x="711.75" y="32.52" width="18.77" height="10.22" style="stroke:#1d1d1b;stroke-linecap:round;stroke-miterlimit:10;stroke-width:0.9593781788324361px;fill:url(#Dégradé_sans_nom_125-3)"/><path d="M100.05,127.15a43.07,43.07,0,0,1,9.87,13.57c5.09,11.15,3.74,21.43,2.34,31.09a95.55,95.55,0,0,1-6.78,23.95" style="fill:none;stroke:#1d1d1b;stroke-linecap:round;stroke-miterlimit:10;stroke-width:7.675025430659489px"/><polygon points="98.77 208.76 100.51 186.56 105.83 194.72 115.56 194.13 98.77 208.76" style="fill:#1d1d1b"/><path d="M20.11,159.87c17.52-8,30-10.43,38.77-10.94a53.56,53.56,0,0,0,21.76-5.32,52,52,0,0,0,14.57-11.07,49.48,49.48,0,0,0,4.16-5.33" style="fill:none;stroke:#1d1d1b;stroke-linecap:round;stroke-miterlimit:10;stroke-width:7.675025430659489px"/><polygon points="28.73 164.34 22.46 158.85 22.05 150.53 9.02 165.35 28.73 164.34" style="fill:#1d1d1b"/><path d="M111.05,73.36a80.58,80.58,0,0,0-4.73,12.1c-2,6.74-2.38,11.22-4,22.88-.55,4.11-1.43,10.38-2.64,18.15" style="fill:none;stroke:#1d1d1b;stroke-linecap:round;stroke-miterlimit:10;stroke-width:7.675025430659489px"/><path d="M100.05,127.15a43.07,43.07,0,0,1,9.87,13.57c5.09,11.15,3.74,21.43,2.34,31.09a95.78,95.78,0,0,1-7.21,24.95" style="fill:none;stroke-linecap:round;stroke-miterlimit:10;stroke-width:3.8375127153297446px;stroke:url(#Dégradé_sans_nom_149)"/><polygon points="98.77 208.76 100.49 188.21 105.38 195.79 114.39 195.3 98.77 208.76" style="fill:url(#Dégradé_sans_nom_149-2)"/><path d="M19.28,160.26C37.23,152,50,149.45,58.88,148.93a53.56,53.56,0,0,0,21.76-5.32,52,52,0,0,0,14.57-11.07,49.48,49.48,0,0,0,4.16-5.33" style="fill:none;stroke-linecap:round;stroke-miterlimit:10;stroke-width:3.8375127153297446px;stroke:url(#Dégradé_sans_nom_150)"/><polygon points="27.27 164.37 21.45 159.31 21.05 151.59 9.02 165.35 27.27 164.37" style="fill:url(#Dégradé_sans_nom_150-2)"/><path d="M111.05,73.36a80.58,80.58,0,0,0-4.73,12.1c-2,6.74-2.38,11.22-4,22.88-.55,4.11-1.43,10.38-2.64,18.15" style="fill:none;stroke-linecap:round;stroke-miterlimit:10;stroke-width:3.8375127153297446px;stroke:url(#Dégradé_sans_nom_137)"/></svg>