<svg id="Calque_1" data-name="Calque 1" xmlns="http://www.w3.org/2000/svg" xmlns:xlink="http://www.w3.org/1999/xlink" viewBox="0 0 739.21 425.2"><defs><style>.cls-1{fill:url(#Dégradé_sans_nom_92);}.cls-2{fill:#1b3a6a;}.cls-3{fill:url(#Dégradé_sans_nom_23);}.cls-4{fill:url(#Dégradé_sans_nom_34);}.cls-5{fill:url(#Dégradé_sans_nom_43);}.cls-6{fill:url(#Dégradé_sans_nom_46);}.cls-7{fill:url(#Dégradé_sans_nom_53);}.cls-8{fill:url(#Dégradé_sans_nom_51);}.cls-9{fill:url(#Dégradé_sans_nom_57);}.cls-10,.cls-12,.cls-13,.cls-14,.cls-33,.cls-38,.cls-39,.cls-40,.cls-50,.cls-53,.cls-54,.cls-56,.cls-58,.cls-59,.cls-64,.cls-65{fill:none;}.cls-10,.cls-15,.cls-16,.cls-17,.cls-33,.cls-38,.cls-39,.cls-40,.cls-41,.cls-42,.cls-43,.cls-44,.cls-45,.cls-46,.cls-47,.cls-48,.cls-49,.cls-53,.cls-59,.cls-63,.cls-64,.cls-65{stroke:#1d1d1b;}.cls-10,.cls-12,.cls-13,.cls-14,.cls-15,.cls-16,.cls-17,.cls-41,.cls-42,.cls-43,.cls-44,.cls-45,.cls-46,.cls-47,.cls-48,.cls-49,.cls-53,.cls-54,.cls-56,.cls-58{stroke-linecap:round;}.cls-10,.cls-12,.cls-13,.cls-14,.cls-15,.cls-16,.cls-17,.cls-33,.cls-38,.cls-39,.cls-40,.cls-41,.cls-42,.cls-43,.cls-44,.cls-45,.cls-46,.cls-47,.cls-48,.cls-49,.cls-50,.cls-53,.cls-54,.cls-56,.cls-58,.cls-59,.cls-63,.cls-64,.cls-65{stroke-miterlimit:10;}.cls-10,.cls-15,.cls-16,.cls-17,.cls-33,.cls-41,.cls-42,.cls-43,.cls-44,.cls-45,.cls-46,.cls-47,.cls-48,.cls-49{stroke-width:0.96px;}.cls-11,.cls-31,.cls-62{fill:#1d1d1b;}.cls-12{stroke:#009640;}.cls-12,.cls-13,.cls-14,.cls-50{stroke-width:1.92px;}.cls-13{stroke:#e30613;}.cls-14{stroke:#009fe3;}.cls-15,.cls-34{fill:#009640;}.cls-16,.cls-35{fill:#e30613;}.cls-17,.cls-36{fill:#009fe3;}.cls-18{fill:url(#Dégradé_sans_nom_60);}.cls-19{fill:url(#Dégradé_sans_nom_62);}.cls-20{fill:url(#Dégradé_sans_nom_64);}.cls-21{fill:url(#Dégradé_sans_nom_67);}.cls-22{fill:url(#Dégradé_sans_nom_67-2);}.cls-23{fill:url(#Dégradé_sans_nom_67-3);}.cls-24{fill:url(#Dégradé_sans_nom_70);}.cls-25{fill:url(#Dégradé_sans_nom_97);}.cls-26{fill:url(#Dégradé_sans_nom_90);}.cls-27{fill:url(#Dégradé_sans_nom_91);}.cls-28{fill:url(#Dégradé_sans_nom_93);}.cls-29{fill:url(#Dégradé_sans_nom_100);}.cls-30{fill:url(#Dégradé_sans_nom_77);}.cls-31{font-size:15.35px;}.cls-31,.cls-62{font-family:Lato-Regular, Lato;}.cls-32{letter-spacing:-0.02em;}.cls-37{fill:#c6c6c6;}.cls-38,.cls-39,.cls-40,.cls-59{stroke-linecap:square;}.cls-38,.cls-39,.cls-40{stroke-width:0.58px;}.cls-39{stroke-dasharray:1.88 1.88;}.cls-40{stroke-dasharray:1.89 1.89;}.cls-41{fill:url(#Dégradé_sans_nom_114);}.cls-42{fill:url(#Dégradé_sans_nom_152);}.cls-43{fill:url(#Dégradé_sans_nom_125);}.cls-44{fill:url(#Dégradé_sans_nom_114-2);}.cls-45{fill:url(#Dégradé_sans_nom_152-2);}.cls-46{fill:url(#Dégradé_sans_nom_125-2);}.cls-47{fill:url(#Dégradé_sans_nom_114-3);}.cls-48{fill:url(#Dégradé_sans_nom_152-3);}.cls-49{fill:url(#Dégradé_sans_nom_125-3);}.cls-50{stroke:#706f6f;}.cls-51{fill:#706f6f;}.cls-52{letter-spacing:-0.08em;}.cls-53{stroke-width:7.68px;}.cls-54,.cls-56,.cls-58{stroke-width:3.84px;}.cls-54{stroke:url(#Dégradé_sans_nom_149);}.cls-55{fill:url(#Dégradé_sans_nom_149-2);}.cls-56{stroke:url(#Dégradé_sans_nom_150);}.cls-57{fill:url(#Dégradé_sans_nom_150-2);}.cls-58{stroke:url(#Dégradé_sans_nom_137);}.cls-59{stroke-width:2.88px;}.cls-60{letter-spacing:-0.03em;}.cls-61{letter-spacing:0em;}.cls-62{font-size:12px;}.cls-63{fill:#fff;}.cls-65{stroke-dasharray:5.81 5.81;}</style><linearGradient id="Dégradé_sans_nom_92" x1="439.73" y1="98.49" x2="482.41" y2="98.49" gradientUnits="userSpaceOnUse"><stop offset="0.33" stop-color="#a01929"/><stop offset="0.59" stop-color="#fff"/><stop offset="0.84" stop-color="#1b3a6a"/></linearGradient><linearGradient id="Dégradé_sans_nom_23" x1="607.58" y1="58.02" x2="626.35" y2="58.02" gradientUnits="userSpaceOnUse"><stop offset="0" stop-color="#1b3a6a"/><stop offset="0.13" stop-color="#fff"/><stop offset="1" stop-color="#a01929"/></linearGradient><linearGradient id="Dégradé_sans_nom_34" x1="607.58" y1="68.14" x2="626.35" y2="68.14" gradientUnits="userSpaceOnUse"><stop offset="0" stop-color="#1b3a6a"/><stop offset="0.28" stop-color="#fff"/><stop offset="1" stop-color="#a01929"/></linearGradient><linearGradient id="Dégradé_sans_nom_43" x1="607.58" y1="78.26" x2="626.35" y2="78.26" gradientUnits="userSpaceOnUse"><stop offset="0.04" stop-color="#1b3a6a"/><stop offset="0.19" stop-color="#fff"/><stop offset="0.78" stop-color="#a01929"/></linearGradient><linearGradient id="Dégradé_sans_nom_46" x1="607.58" y1="88.37" x2="626.35" y2="88.37" gradientUnits="userSpaceOnUse"><stop offset="0.24" stop-color="#1b3a6a"/><stop offset="0.43" stop-color="#fff"/><stop offset="0.85" stop-color="#a01929"/></linearGradient><linearGradient id="Dégradé_sans_nom_53" x1="607.58" y1="98.49" x2="626.35" y2="98.49" gradientUnits="userSpaceOnUse"><stop offset="0.42" stop-color="#1b3a6a"/><stop offset="0.62" stop-color="#fff"/><stop offset="1" stop-color="#a01929"/></linearGradient><linearGradient id="Dégradé_sans_nom_51" x1="607.58" y1="108.61" x2="626.35" y2="108.61" gradientUnits="userSpaceOnUse"><stop offset="0.52" stop-color="#1b3a6a"/><stop offset="0.7" stop-color="#fff"/><stop offset="1" stop-color="#a01929"/></linearGradient><linearGradient id="Dégradé_sans_nom_57" x1="607.58" y1="118.58" x2="626.35" y2="118.58" gradientUnits="userSpaceOnUse"><stop offset="0.51" stop-color="#1b3a6a"/><stop offset="0.8" stop-color="#fff"/><stop offset="1" stop-color="#a01929"/></linearGradient><linearGradient id="Dégradé_sans_nom_60" x1="691.3" y1="58.02" x2="711.97" y2="58.02" gradientUnits="userSpaceOnUse"><stop offset="0" stop-color="#1b3a6a"/><stop offset="0.21" stop-color="#fff"/><stop offset="0.39" stop-color="#a4242e"/><stop offset="1" stop-color="#a01929"/></linearGradient><linearGradient id="Dégradé_sans_nom_62" x1="691.3" y1="68.14" x2="711.97" y2="68.14" gradientUnits="userSpaceOnUse"><stop offset="0" stop-color="#1b3a6a"/><stop offset="0.28" stop-color="#fff"/><stop offset="0.6" stop-color="#a4242e"/><stop offset="1" stop-color="#a01929"/></linearGradient><linearGradient id="Dégradé_sans_nom_64" x1="691.3" y1="78.26" x2="711.97" y2="78.26" gradientUnits="userSpaceOnUse"><stop offset="0" stop-color="#1b3a6a"/><stop offset="0.28" stop-color="#fff"/><stop offset="0.53" stop-color="#a4242e"/><stop offset="1" stop-color="#a01929"/></linearGradient><linearGradient id="Dégradé_sans_nom_67" x1="691.3" y1="88.37" x2="711.97" y2="88.37" gradientUnits="userSpaceOnUse"><stop offset="0.15" stop-color="#1b3a6a"/><stop offset="0.37" stop-color="#fff"/><stop offset="0.62" stop-color="#a4242e"/><stop offset="1" stop-color="#a01929"/></linearGradient><linearGradient id="Dégradé_sans_nom_67-2" x1="691.3" y1="98.49" x2="711.97" y2="98.49" xlink:href="#Dégradé_sans_nom_67"/><linearGradient id="Dégradé_sans_nom_67-3" x1="691.3" y1="108.61" x2="711.97" y2="108.61" xlink:href="#Dégradé_sans_nom_67"/><linearGradient id="Dégradé_sans_nom_70" x1="691.3" y1="118.58" x2="711.97" y2="118.58" gradientUnits="userSpaceOnUse"><stop offset="0.37" stop-color="#1b3a6a"/><stop offset="0.72" stop-color="#fff"/><stop offset="0.89" stop-color="#a4242e"/><stop offset="1" stop-color="#a01929"/></linearGradient><linearGradient id="Dégradé_sans_nom_97" x1="439.73" y1="78.26" x2="482.41" y2="78.26" gradientUnits="userSpaceOnUse"><stop offset="0.16" stop-color="#a01929"/><stop offset="0.55" stop-color="#fff"/><stop offset="0.76" stop-color="#1b3a6a"/></linearGradient><linearGradient id="Dégradé_sans_nom_90" x1="439.73" y1="118.58" x2="482.41" y2="118.58" gradientUnits="userSpaceOnUse"><stop offset="0.49" stop-color="#a01929"/><stop offset="0.67" stop-color="#fff"/><stop offset="0.89" stop-color="#1b3a6a"/></linearGradient><linearGradient id="Dégradé_sans_nom_91" x1="439.73" y1="108.61" x2="482.41" y2="108.61" gradientUnits="userSpaceOnUse"><stop offset="0.33" stop-color="#a01929"/><stop offset="0.61" stop-color="#fff"/><stop offset="0.84" stop-color="#1b3a6a"/></linearGradient><linearGradient id="Dégradé_sans_nom_93" x1="439.73" y1="88.37" x2="482.41" y2="88.37" gradientUnits="userSpaceOnUse"><stop offset="0.33" stop-color="#a01929"/><stop offset="0.55" stop-color="#fff"/><stop offset="0.75" stop-color="#1b3a6a"/></linearGradient><linearGradient id="Dégradé_sans_nom_100" x1="439.73" y1="68.14" x2="482.41" y2="68.14" gradientUnits="userSpaceOnUse"><stop offset="0.11" stop-color="#a01929"/><stop offset="0.35" stop-color="#fff"/><stop offset="0.7" stop-color="#1b3a6a"/></linearGradient><linearGradient id="Dégradé_sans_nom_77" x1="439.73" y1="58.02" x2="482.41" y2="58.02" gradientUnits="userSpaceOnUse"><stop offset="0" stop-color="#a01929"/><stop offset="0.25" stop-color="#fff"/><stop offset="0.59" stop-color="#1b3a6a"/></linearGradient><linearGradient id="Dégradé_sans_nom_114" x1="439.73" y1="37.96" x2="482.41" y2="37.96" gradientUnits="userSpaceOnUse"><stop offset="0" stop-color="#3e1f51"/><stop offset="1" stop-color="#20a784"/></linearGradient><linearGradient id="Dégradé_sans_nom_152" x1="482.41" y1="37.96" x2="502.64" y2="37.96" gradientUnits="userSpaceOnUse"><stop offset="0" stop-color="#20a784"/><stop offset="1" stop-color="#fee823"/></linearGradient><linearGradient id="Dégradé_sans_nom_125" x1="502.64" y1="37.96" x2="521.42" y2="37.96" xlink:href="#Dégradé_sans_nom_152"/><linearGradient id="Dégradé_sans_nom_114-2" x1="544.66" y1="37.96" x2="587.34" y2="37.96" xlink:href="#Dégradé_sans_nom_114"/><linearGradient id="Dégradé_sans_nom_152-2" x1="587.34" y1="37.96" x2="607.58" y2="37.96" xlink:href="#Dégradé_sans_nom_152"/><linearGradient id="Dégradé_sans_nom_125-2" x1="607.58" y1="37.96" x2="626.35" y2="37.96" xlink:href="#Dégradé_sans_nom_152"/><linearGradient id="Dégradé_sans_nom_114-3" x1="648.84" y1="37.63" x2="691.51" y2="37.63" xlink:href="#Dégradé_sans_nom_114"/><linearGradient id="Dégradé_sans_nom_152-3" x1="691.51" y1="37.63" x2="711.75" y2="37.63" xlink:href="#Dégradé_sans_nom_152"/><linearGradient id="Dégradé_sans_nom_125-3" x1="711.75" y1="37.63" x2="730.52" y2="37.63" xlink:href="#Dégradé_sans_nom_152"/><linearGradient id="Dégradé_sans_nom_149" x1="102.59" y1="287.86" x2="102.59" y2="202.4" gradientUnits="userSpaceOnUse"><stop offset="0.01" stop-color="#fee823"/><stop offset="0.95" stop-color="#20a784"/></linearGradient><linearGradient id="Dégradé_sans_nom_149-2" x1="102.37" y1="287.86" x2="102.37" y2="202.4" xlink:href="#Dégradé_sans_nom_149"/><linearGradient id="Dégradé_sans_nom_150" x1="7.59" y1="251.18" x2="95.2" y2="200.6" gradientUnits="userSpaceOnUse"><stop offset="0" stop-color="#fee823"/><stop offset="1" stop-color="#20a784"/></linearGradient><linearGradient id="Dégradé_sans_nom_150-2" x1="3.74" y1="244.52" x2="91.35" y2="193.94" xlink:href="#Dégradé_sans_nom_150"/><linearGradient id="Dégradé_sans_nom_137" x1="101.18" y1="205.58" x2="101.18" y2="148.62" gradientUnits="userSpaceOnUse"><stop offset="0" stop-color="#20a784"/><stop offset="0.96" stop-color="#3e1f51"/></linearGradient></defs><rect class="cls-1" x="439.73" y="93.11" width="42.68" height="10.77"/><rect class="cls-2" x="544.66" y="93.11" width="42.68" height="10.77"/><rect class="cls-2" x="648.84" y="93.11" width="42.68" height="10.77"/><rect class="cls-2" x="544.66" y="52.63" width="42.68" height="10.77"/><rect class="cls-3" x="607.58" y="52.63" width="18.77" height="10.77"/><rect class="cls-2" x="587.12" y="52.63" width="20.67" height="10.77"/><rect class="cls-2" x="544.66" y="62.75" width="42.68" height="10.77"/><rect class="cls-4" x="607.58" y="62.75" width="18.77" height="10.77"/><rect class="cls-2" x="587.12" y="62.75" width="20.67" height="10.77"/><rect class="cls-2" x="544.66" y="72.87" width="42.68" height="10.77"/><rect class="cls-5" x="607.58" y="72.87" width="18.77" height="10.77"/><rect class="cls-2" x="587.12" y="72.87" width="20.67" height="10.77"/><rect class="cls-2" x="544.66" y="82.99" width="42.68" height="10.77"/><rect class="cls-6" x="607.58" y="82.99" width="18.77" height="10.77"/><rect class="cls-2" x="587.12" y="82.99" width="20.67" height="10.77"/><rect class="cls-7" x="607.58" y="93.11" width="18.77" height="10.77"/><rect class="cls-2" x="587.12" y="93.11" width="20.67" height="10.77"/><rect class="cls-2" x="544.66" y="103.23" width="42.68" height="10.77"/><rect class="cls-8" x="607.58" y="103.23" width="18.77" height="10.77"/><rect class="cls-2" x="587.12" y="103.23" width="20.67" height="10.77"/><rect class="cls-2" x="544.66" y="113.2" width="42.68" height="10.77"/><rect class="cls-9" x="607.58" y="113.2" width="18.77" height="10.77"/><rect class="cls-2" x="587.12" y="113.2" width="20.67" height="10.77"/><line class="cls-10" x1="254.48" y1="41.91" x2="254.48" y2="115.48"/><polygon class="cls-11" points="252.09 42.61 254.48 38.47 256.87 42.61 252.09 42.61"/><line class="cls-10" x1="397.85" y1="116.35" x2="254.48" y2="116.35"/><polygon class="cls-11" points="397.15 113.95 401.29 116.35 397.15 118.74 397.15 113.95"/><path class="cls-12" d="M268.87,108.2c10.68-.24,18.47-.47,24.06-.65,4.05-.13,8.93-.3,15.6,0,3.79.17,6.93.44,9.1.65"/><path class="cls-13" d="M318.4,107.39h0a212.58,212.58,0,0,1,8.45-19.51c6.94-14.07,10.54-21.17,16.9-24.7,4.38-2.43,10.72-2.7,23.41-3.25,7.88-.35,14.4-.2,18.85,0"/><path class="cls-14" d="M377.29,104.83a130.91,130.91,0,0,0-17.23,1.32c-5.94.87-8.84,1.73-12.79,0s-4.18-4.06-7.78-4.61c-4.93-.76-10.57,2.63-10.57,2.63h0c-2.22,1.54-8.56,2.49-10.78,4"/><rect class="cls-10" x="544.66" y="39.32" width="81.69" height="84.47"/><rect class="cls-15" x="544.66" y="42.74" width="42.68" height="10.22"/><rect class="cls-16" x="587.34" y="42.74" width="20.24" height="10.22"/><rect class="cls-17" x="607.58" y="42.74" width="18.77" height="10.22"/><rect class="cls-2" x="648.84" y="52.63" width="42.68" height="10.77"/><rect class="cls-2" x="711.75" y="52.63" width="18.77" height="10.77"/><rect class="cls-18" x="691.3" y="52.63" width="20.67" height="10.77"/><rect class="cls-2" x="648.84" y="62.75" width="42.68" height="10.77"/><rect class="cls-2" x="711.75" y="62.75" width="18.77" height="10.77"/><rect class="cls-19" x="691.3" y="62.75" width="20.67" height="10.77"/><rect class="cls-2" x="648.84" y="72.87" width="42.68" height="10.77"/><rect class="cls-2" x="711.75" y="72.87" width="18.77" height="10.77"/><rect class="cls-20" x="691.3" y="72.87" width="20.67" height="10.77"/><rect class="cls-2" x="648.84" y="82.99" width="42.68" height="10.77"/><rect class="cls-2" x="711.75" y="82.99" width="18.77" height="10.77"/><rect class="cls-21" x="691.3" y="82.99" width="20.67" height="10.77"/><rect class="cls-2" x="711.75" y="93.11" width="18.77" height="10.77"/><rect class="cls-22" x="691.3" y="93.11" width="20.67" height="10.77"/><rect class="cls-2" x="648.84" y="103.23" width="42.68" height="10.77"/><rect class="cls-2" x="711.75" y="103.23" width="18.77" height="10.77"/><rect class="cls-23" x="691.3" y="103.23" width="20.67" height="10.77"/><rect class="cls-2" x="648.84" y="113.2" width="42.68" height="10.77"/><rect class="cls-2" x="711.75" y="113.2" width="18.77" height="10.77"/><rect class="cls-24" x="691.3" y="113.2" width="20.67" height="10.77"/><rect class="cls-10" x="648.84" y="39.32" width="81.69" height="84.47"/><rect class="cls-15" x="648.84" y="42.74" width="42.68" height="10.22"/><rect class="cls-16" x="691.51" y="42.74" width="20.24" height="10.22"/><rect class="cls-17" x="711.75" y="42.74" width="18.77" height="10.22"/><rect class="cls-25" x="439.73" y="72.87" width="42.68" height="10.77"/><rect class="cls-26" x="439.73" y="113.2" width="42.68" height="10.77"/><rect class="cls-2" x="502.64" y="52.63" width="18.77" height="10.77"/><rect class="cls-2" x="482.19" y="52.63" width="20.67" height="10.77"/><rect class="cls-27" x="439.73" y="103.23" width="42.68" height="10.77"/><rect class="cls-2" x="502.64" y="62.75" width="18.77" height="10.77"/><rect class="cls-2" x="482.19" y="62.75" width="20.67" height="10.77"/><rect class="cls-2" x="502.64" y="72.87" width="18.77" height="10.77"/><rect class="cls-2" x="482.19" y="72.87" width="20.67" height="10.77"/><rect class="cls-28" x="439.73" y="82.99" width="42.68" height="10.77"/><rect class="cls-2" x="502.64" y="82.99" width="18.77" height="10.77"/><rect class="cls-2" x="482.19" y="82.99" width="20.67" height="10.77"/><rect class="cls-2" x="502.64" y="93.11" width="18.77" height="10.77"/><rect class="cls-2" x="482.19" y="93.11" width="20.67" height="10.77"/><rect class="cls-29" x="439.73" y="62.75" width="42.68" height="10.77"/><rect class="cls-2" x="502.64" y="103.23" width="18.77" height="10.77"/><rect class="cls-2" x="482.19" y="103.23" width="20.67" height="10.77"/><rect class="cls-30" x="439.73" y="52.63" width="42.68" height="10.77"/><rect class="cls-2" x="502.64" y="113.2" width="18.77" height="10.77"/><rect class="cls-2" x="482.19" y="113.2" width="20.67" height="10.77"/><rect class="cls-10" x="439.73" y="39.32" width="81.69" height="84.47"/><rect class="cls-15" x="439.73" y="42.74" width="42.68" height="10.22"/><rect class="cls-16" x="482.41" y="42.74" width="20.24" height="10.22"/><rect class="cls-17" x="502.64" y="42.74" width="18.77" height="10.22"/><text class="cls-31" transform="translate(246.29 18.06)">Fitted features clustering &amp; visualisation</text><text class="cls-31" transform="translate(246.29 158.08)">B<tspan class="cls-32" x="9.93" y="0">r</tspan><tspan x="15.83" y="0">anch specific feature &amp; bifurcation analysis</tspan></text><rect class="cls-33" x="248.4" y="180.27" width="94.06" height="94.06"/><circle class="cls-34" cx="256.79" cy="267.41" r="2.39"/><circle class="cls-34" cx="261.17" cy="258.64" r="2.39"/><circle class="cls-34" cx="265.56" cy="267.41" r="2.39"/><circle class="cls-34" cx="269.95" cy="258.64" r="2.39"/><circle class="cls-34" cx="269.04" cy="252.07" r="2.39"/><circle class="cls-34" cx="276.94" cy="254.46" r="2.39"/><circle class="cls-34" cx="270.15" cy="245.26" r="2.39"/><circle class="cls-34" cx="277.88" cy="246.77" r="2.39"/><circle class="cls-34" cx="277.88" cy="237.99" r="2.39"/><circle class="cls-34" cx="286.65" cy="246.77" r="2.39"/><circle class="cls-34" cx="286.65" cy="237.99" r="2.39"/><circle class="cls-34" cx="286.65" cy="229.22" r="2.39"/><circle class="cls-35" cx="295.43" cy="237.99" r="2.39"/><circle class="cls-35" cx="304.21" cy="237.99" r="2.39"/><circle class="cls-35" cx="299.82" cy="242.38" r="2.39"/><circle class="cls-35" cx="308.6" cy="246.77" r="2.39"/><circle class="cls-35" cx="312.98" cy="237.99" r="2.39"/><circle class="cls-35" cx="317.37" cy="246.77" r="2.39"/><circle class="cls-35" cx="317.37" cy="255.55" r="2.39"/><circle class="cls-35" cx="326.15" cy="251.16" r="2.39"/><circle class="cls-35" cx="321.76" cy="242.38" r="2.39"/><circle class="cls-35" cx="295.43" cy="229.22" r="2.39"/><circle class="cls-36" cx="282.26" cy="218.99" r="2.39"/><circle class="cls-36" cx="273.49" cy="211.66" r="2.39"/><circle class="cls-36" cx="291.04" cy="220.44" r="2.39"/><circle class="cls-36" cx="282.26" cy="209.27" r="2.39"/><circle class="cls-35" cx="304.21" cy="229.22" r="2.39"/><circle class="cls-36" cx="288.65" cy="212.86" r="2.39"/><circle class="cls-36" cx="274.81" cy="202.89" r="2.39"/><circle class="cls-36" cx="287.37" cy="204.04" r="2.39"/><circle class="cls-36" cx="280.27" cy="198.41" r="2.39"/><circle class="cls-36" cx="268.71" cy="196.72" r="2.39"/><circle class="cls-36" cx="273.1" cy="187.94" r="2.39"/><rect class="cls-33" x="377.59" y="180.27" width="94.06" height="94.06"/><circle class="cls-34" cx="385.98" cy="267.41" r="2.39"/><circle class="cls-34" cx="390.36" cy="258.64" r="2.39"/><circle class="cls-34" cx="394.75" cy="267.41" r="2.39"/><circle class="cls-34" cx="399.14" cy="258.64" r="2.39"/><circle class="cls-34" cx="398.23" cy="252.07" r="2.39"/><circle class="cls-34" cx="388.37" cy="267.99" r="2.39"/><circle class="cls-34" cx="390.36" cy="263.23" r="2.39"/><circle class="cls-34" cx="389.3" cy="260.3" r="2.39"/><circle class="cls-34" cx="389.3" cy="251.52" r="2.39"/><circle class="cls-34" cx="398.08" cy="260.3" r="2.39"/><circle class="cls-34" cx="394.08" cy="256.25" r="2.39"/><circle class="cls-34" cx="386.91" cy="260.3" r="2.39"/><circle class="cls-35" cx="413.48" cy="265.16" r="2.39"/><circle class="cls-35" cx="420.36" cy="259.71" r="2.39"/><circle class="cls-35" cx="419.65" cy="265.87" r="2.39"/><circle class="cls-35" cx="429.25" cy="263.86" r="2.39"/><circle class="cls-35" cx="458.77" cy="265.28" r="2.39"/><circle class="cls-35" cx="436.13" cy="258.4" r="2.39"/><circle class="cls-35" cx="441.59" cy="265.28" r="2.39"/><circle class="cls-35" cx="445.73" cy="256.39" r="2.39"/><circle class="cls-35" cx="451.6" cy="261.03" r="2.39"/><circle class="cls-35" cx="408.03" cy="258.29" r="2.39"/><circle class="cls-36" cx="389.02" cy="234.53" r="2.39"/><circle class="cls-36" cx="384.45" cy="224.04" r="2.39"/><circle class="cls-36" cx="390.76" cy="244.38" r="2.39"/><circle class="cls-36" cx="393.37" cy="225.83" r="2.39"/><circle class="cls-35" cx="456.38" cy="255.36" r="2.39"/><circle class="cls-36" cx="397.89" cy="236.92" r="2.39"/><circle class="cls-36" cx="389.55" cy="216.78" r="2.39"/><circle class="cls-36" cx="390.76" cy="196.54" r="2.39"/><circle class="cls-36" cx="386.91" cy="190.15" r="2.39"/><circle class="cls-36" cx="386.85" cy="208.54" r="2.39"/><circle class="cls-36" cx="394.7" cy="202.65" r="2.39"/><rect class="cls-33" x="507.52" y="225.92" width="49.39" height="49.39"/><rect class="cls-33" x="563.67" y="225.92" width="49.39" height="49.39"/><rect class="cls-33" x="619.82" y="225.92" width="49.39" height="49.39"/><rect class="cls-33" x="675.69" y="225.92" width="49.39" height="49.39"/><circle class="cls-11" cx="548.67" cy="172.91" r="1.64"/><circle class="cls-37" cx="545.77" cy="189.96" r="1.64"/><circle class="cls-37" cx="541.85" cy="182.87" r="1.64"/><path class="cls-37" d="M544.71,182.51a1.64,1.64,0,1,1,1.83,1.43A1.64,1.64,0,0,1,544.71,182.51Z"/><circle class="cls-11" cx="545.59" cy="176.34" r="1.64"/><circle class="cls-11" cx="543.36" cy="170.55" r="1.64"/><circle class="cls-37" cx="534.28" cy="194.29" r="1.64"/><circle class="cls-37" cx="523.39" cy="197.35" r="1.64"/><circle class="cls-37" cx="520.56" cy="200.21" r="1.64"/><circle class="cls-37" cx="536.92" cy="197.35" r="1.64"/><circle class="cls-37" cx="538.92" cy="190.27" r="1.64"/><circle class="cls-37" cx="544.37" cy="195.72" r="1.64"/><circle class="cls-37" cx="548.67" cy="197.35" r="1.64"/><circle class="cls-37" cx="547.74" cy="202.61" r="1.64"/><circle class="cls-37" cx="551.39" cy="207.4" r="1.64"/><circle class="cls-37" cx="546.41" cy="220.24" r="1.64"/><circle class="cls-37" cx="513.04" cy="201.72" r="1.64"/><circle class="cls-37" cx="531.1" cy="200.21" r="1.64"/><circle class="cls-37" cx="525.08" cy="201.72" r="1.64"/><circle class="cls-37" cx="545.59" cy="214.79" r="1.64"/><circle class="cls-37" cx="546.41" cy="209.34" r="1.64"/><circle class="cls-37" cx="540.56" cy="214.55" r="1.64"/><circle class="cls-37" cx="542.74" cy="218.8" r="1.64"/><circle class="cls-37" cx="550.28" cy="212.91" r="1.64"/><circle class="cls-37" cx="529.19" cy="196.06" r="1.64"/><circle class="cls-37" cx="518.68" cy="204.19" r="1.64"/><circle class="cls-37" cx="513.56" cy="206.16" r="1.64"/><circle class="cls-11" cx="550.28" cy="177.92" r="1.64"/><circle class="cls-37" cx="604.63" cy="172.91" r="1.64"/><circle class="cls-11" cx="601.74" cy="189.96" r="1.64"/><circle class="cls-11" cx="597.82" cy="182.87" r="1.64"/><path class="cls-11" d="M600.68,182.51a1.64,1.64,0,1,1,1.82,1.43A1.63,1.63,0,0,1,600.68,182.51Z"/><circle class="cls-37" cx="601.56" cy="176.34" r="1.64"/><circle class="cls-37" cx="599.32" cy="170.55" r="1.64"/><circle class="cls-37" cx="590.25" cy="194.29" r="1.64"/><circle class="cls-37" cx="579.36" cy="197.35" r="1.64"/><circle class="cls-37" cx="576.53" cy="200.21" r="1.64"/><circle class="cls-37" cx="592.88" cy="197.35" r="1.64"/><circle class="cls-11" cx="594.89" cy="190.27" r="1.64"/><circle class="cls-37" cx="600.34" cy="195.72" r="1.64"/><circle class="cls-37" cx="604.63" cy="197.35" r="1.64"/><circle class="cls-37" cx="603.71" cy="202.61" r="1.64"/><circle class="cls-37" cx="607.36" cy="207.4" r="1.64"/><circle class="cls-37" cx="602.38" cy="220.24" r="1.64"/><circle class="cls-37" cx="569.01" cy="201.72" r="1.64"/><circle class="cls-37" cx="587.07" cy="200.21" r="1.64"/><circle class="cls-37" cx="581.05" cy="201.72" r="1.64"/><circle class="cls-37" cx="601.56" cy="214.79" r="1.64"/><circle class="cls-37" cx="602.38" cy="209.34" r="1.64"/><circle class="cls-37" cx="596.52" cy="214.55" r="1.64"/><circle class="cls-37" cx="598.7" cy="218.8" r="1.64"/><circle class="cls-37" cx="606.25" cy="212.91" r="1.64"/><circle class="cls-37" cx="585.15" cy="196.06" r="1.64"/><circle class="cls-37" cx="574.65" cy="204.19" r="1.64"/><circle class="cls-37" cx="569.53" cy="206.16" r="1.64"/><circle class="cls-37" cx="606.25" cy="177.92" r="1.64"/><circle class="cls-37" cx="660.6" cy="172.91" r="1.64"/><circle class="cls-37" cx="657.71" cy="189.96" r="1.64"/><circle class="cls-37" cx="653.79" cy="182.87" r="1.64"/><path class="cls-37" d="M656.64,182.51a1.64,1.64,0,1,1,1.83,1.43A1.65,1.65,0,0,1,656.64,182.51Z"/><circle class="cls-37" cx="657.53" cy="176.34" r="1.64"/><circle class="cls-37" cx="655.29" cy="170.55" r="1.64"/><circle class="cls-11" cx="646.22" cy="194.29" r="1.64"/><circle class="cls-11" cx="635.33" cy="197.35" r="1.64"/><circle class="cls-37" cx="632.5" cy="200.21" r="1.64"/><circle class="cls-11" cx="648.85" cy="197.35" r="1.64"/><circle class="cls-11" cx="650.85" cy="190.27" r="1.64"/><circle class="cls-37" cx="656.31" cy="195.72" r="1.64"/><circle class="cls-37" cx="660.6" cy="197.35" r="1.64"/><circle class="cls-37" cx="659.68" cy="202.61" r="1.64"/><circle class="cls-37" cx="663.33" cy="207.4" r="1.64"/><circle class="cls-37" cx="658.35" cy="220.24" r="1.64"/><circle class="cls-37" cx="624.98" cy="201.72" r="1.64"/><circle class="cls-11" cx="643.03" cy="200.21" r="1.64"/><circle class="cls-11" cx="637.01" cy="201.72" r="1.64"/><circle class="cls-37" cx="657.53" cy="214.79" r="1.64"/><circle class="cls-37" cx="658.35" cy="209.34" r="1.64"/><circle class="cls-37" cx="652.49" cy="214.55" r="1.64"/><circle class="cls-37" cx="654.67" cy="218.8" r="1.64"/><circle class="cls-37" cx="662.22" cy="212.91" r="1.64"/><circle class="cls-11" cx="641.12" cy="196.06" r="1.64"/><circle class="cls-37" cx="630.62" cy="204.19" r="1.64"/><circle class="cls-37" cx="625.5" cy="206.16" r="1.64"/><circle class="cls-37" cx="662.22" cy="177.92" r="1.64"/><circle class="cls-37" cx="716.57" cy="172.91" r="1.64"/><circle class="cls-37" cx="713.67" cy="189.96" r="1.64"/><circle class="cls-37" cx="709.76" cy="182.87" r="1.64"/><path class="cls-37" d="M712.61,182.51a1.64,1.64,0,1,1,3.25-.4,1.64,1.64,0,1,1-3.25.4Z"/><circle class="cls-37" cx="713.5" cy="176.34" r="1.64"/><circle class="cls-37" cx="711.26" cy="170.55" r="1.64"/><circle class="cls-37" cx="702.18" cy="194.29" r="1.64"/><circle class="cls-37" cx="691.3" cy="197.35" r="1.64"/><circle class="cls-37" cx="688.47" cy="200.21" r="1.64"/><circle class="cls-37" cx="704.82" cy="197.35" r="1.64"/><circle class="cls-37" cx="706.82" cy="190.27" r="1.64"/><circle class="cls-11" cx="712.28" cy="195.72" r="1.64"/><circle class="cls-11" cx="716.57" cy="197.35" r="1.64"/><circle class="cls-11" cx="715.64" cy="202.61" r="1.64"/><circle class="cls-11" cx="719.29" cy="207.4" r="1.64"/><circle class="cls-37" cx="714.31" cy="220.24" r="1.64"/><circle class="cls-37" cx="680.94" cy="201.72" r="1.64"/><circle class="cls-37" cx="699" cy="200.21" r="1.64"/><circle class="cls-37" cx="692.98" cy="201.72" r="1.64"/><circle class="cls-37" cx="713.5" cy="214.79" r="1.64"/><circle class="cls-11" cx="714.31" cy="209.34" r="1.64"/><circle class="cls-37" cx="708.46" cy="214.55" r="1.64"/><circle class="cls-37" cx="710.64" cy="218.8" r="1.64"/><circle class="cls-37" cx="718.19" cy="212.91" r="1.64"/><circle class="cls-37" cx="697.09" cy="196.06" r="1.64"/><circle class="cls-37" cx="686.59" cy="204.19" r="1.64"/><circle class="cls-37" cx="681.47" cy="206.16" r="1.64"/><circle class="cls-37" cx="718.19" cy="177.92" r="1.64"/><line class="cls-38" x1="532.22" y1="226.34" x2="532.22" y2="227.3"/><line class="cls-39" x1="532.22" y1="229.18" x2="532.22" y2="273.41"/><line class="cls-38" x1="532.22" y1="274.35" x2="532.22" y2="275.31"/><line class="cls-38" x1="556.69" y1="250.82" x2="555.74" y2="250.82"/><line class="cls-40" x1="553.85" y1="250.82" x2="509.43" y2="250.82"/><line class="cls-38" x1="508.48" y1="250.82" x2="507.52" y2="250.82"/><line class="cls-38" x1="588.47" y1="226.34" x2="588.47" y2="227.3"/><line class="cls-39" x1="588.47" y1="229.18" x2="588.47" y2="273.41"/><line class="cls-38" x1="588.47" y1="274.35" x2="588.47" y2="275.31"/><line class="cls-38" x1="612.95" y1="250.82" x2="611.99" y2="250.82"/><line class="cls-40" x1="610.1" y1="250.82" x2="565.68" y2="250.82"/><line class="cls-38" x1="564.74" y1="250.82" x2="563.78" y2="250.82"/><line class="cls-38" x1="644.48" y1="226.13" x2="644.48" y2="227.09"/><line class="cls-39" x1="644.48" y1="228.97" x2="644.48" y2="273.2"/><line class="cls-38" x1="644.48" y1="274.14" x2="644.48" y2="275.1"/><line class="cls-38" x1="668.96" y1="250.62" x2="668" y2="250.62"/><line class="cls-40" x1="666.11" y1="250.62" x2="621.69" y2="250.62"/><line class="cls-38" x1="620.75" y1="250.62" x2="619.79" y2="250.62"/><line class="cls-38" x1="700.65" y1="226.34" x2="700.65" y2="227.3"/><line class="cls-39" x1="700.65" y1="229.18" x2="700.65" y2="273.41"/><line class="cls-38" x1="700.65" y1="274.35" x2="700.65" y2="275.31"/><line class="cls-38" x1="725.13" y1="250.82" x2="724.17" y2="250.82"/><line class="cls-40" x1="722.28" y1="250.82" x2="677.86" y2="250.82"/><line class="cls-38" x1="676.92" y1="250.82" x2="675.96" y2="250.82"/><circle class="cls-36" cx="533.96" cy="248.03" r="0.99"/><circle class="cls-36" cx="529.92" cy="248.62" r="0.99"/><circle class="cls-36" cx="530.13" cy="252.17" r="0.99"/><circle class="cls-36" cx="533.83" cy="252.17" r="0.99"/><circle class="cls-36" cx="533.83" cy="244.49" r="0.99"/><circle class="cls-36" cx="535.82" cy="250.02" r="0.99"/><circle class="cls-36" cx="531.94" cy="249.45" r="0.99"/><circle class="cls-35" cx="530.37" cy="247.17" r="0.99"/><circle class="cls-35" cx="536.36" cy="254.37" r="0.99"/><circle class="cls-35" cx="531.36" cy="251.01" r="0.99"/><circle class="cls-35" cx="533.21" cy="249.45" r="0.99"/><circle class="cls-35" cx="529.29" cy="249.45" r="0.99"/><circle class="cls-35" cx="603.2" cy="262.23" r="0.99"/><circle class="cls-35" cx="604.52" cy="265.67" r="0.99"/><circle class="cls-35" cx="599.43" cy="261.24" r="0.99"/><circle class="cls-35" cx="600.7" cy="263.3" r="0.99"/><circle class="cls-35" cx="602.08" cy="264.68" r="0.99"/><circle class="cls-36" cx="578.03" cy="242.34" r="0.99"/><circle class="cls-36" cx="574.51" cy="240.49" r="0.99"/><circle class="cls-36" cx="580.25" cy="244.83" r="0.99"/><circle class="cls-36" cx="575.22" cy="238.2" r="0.99"/><circle class="cls-36" cx="577.53" cy="239.77" r="0.99"/><circle class="cls-36" cx="580.7" cy="242.34" r="0.99"/><circle class="cls-36" cx="572.27" cy="238.59" r="0.99"/><circle class="cls-36" cx="572.92" cy="236.22" r="0.99"/><circle class="cls-35" cx="649.53" cy="253.72" r="0.99"/><circle class="cls-35" cx="650.85" cy="257.16" r="0.99"/><circle class="cls-35" cx="645.76" cy="252.73" r="0.99"/><circle class="cls-35" cx="647.03" cy="254.79" r="0.99"/><circle class="cls-35" cx="648.4" cy="256.17" r="0.99"/><circle class="cls-36" cx="637.76" cy="247.57" r="0.99"/><circle class="cls-36" cx="639.61" cy="244.05" r="0.99"/><circle class="cls-36" cx="641.91" cy="249.03" r="0.99"/><circle class="cls-36" cx="641.91" cy="244.76" r="0.99"/><circle class="cls-36" cx="640.33" cy="247.06" r="0.99"/><circle class="cls-36" cx="639.48" cy="249.34" r="0.99"/><circle class="cls-36" cx="643.84" cy="249.03" r="0.99"/><circle class="cls-36" cx="637.01" cy="244.05" r="0.99"/><circle class="cls-35" cx="704.5" cy="252.5" r="0.99"/><circle class="cls-35" cx="705.82" cy="255.94" r="0.99"/><circle class="cls-35" cx="700.73" cy="251.51" r="0.99"/><circle class="cls-35" cx="702" cy="253.57" r="0.99"/><circle class="cls-35" cx="703.37" cy="254.94" r="0.99"/><circle class="cls-36" cx="698.19" cy="250.69" r="0.99"/><circle class="cls-36" cx="700.04" cy="247.17" r="0.99"/><circle class="cls-36" cx="702.34" cy="252.14" r="0.99"/><circle class="cls-36" cx="702.34" cy="247.88" r="0.99"/><circle class="cls-36" cx="700.77" cy="250.18" r="0.99"/><circle class="cls-36" cx="699.91" cy="252.46" r="0.99"/><circle class="cls-36" cx="704.27" cy="252.14" r="0.99"/><circle class="cls-36" cx="697.45" cy="247.17" r="0.99"/><circle class="cls-35" cx="531.98" cy="253.41" r="0.99"/><circle class="cls-35" cx="535.82" cy="251.2" r="0.99"/><circle class="cls-35" cx="597.46" cy="258.6" r="0.99"/><circle class="cls-35" cx="600.84" cy="259.82" r="0.99"/><circle class="cls-35" cx="643.38" cy="251.43" r="0.99"/><circle class="cls-35" cx="646.03" cy="250.62" r="0.99"/><circle class="cls-35" cx="702.34" cy="250.18" r="0.99"/><circle class="cls-35" cx="701.1" cy="251.88" r="0.99"/><rect class="cls-41" x="439.73" y="32.85" width="42.68" height="10.22"/><rect class="cls-42" x="482.41" y="32.85" width="20.24" height="10.22"/><rect class="cls-43" x="502.64" y="32.85" width="18.77" height="10.22"/><rect class="cls-44" x="544.66" y="32.85" width="42.68" height="10.22"/><rect class="cls-45" x="587.34" y="32.85" width="20.24" height="10.22"/><rect class="cls-46" x="607.58" y="32.85" width="18.77" height="10.22"/><rect class="cls-47" x="648.84" y="32.52" width="42.68" height="10.22"/><rect class="cls-48" x="691.51" y="32.52" width="20.24" height="10.22"/><rect class="cls-49" x="711.75" y="32.52" width="18.77" height="10.22"/><line class="cls-50" x1="58.78" y1="245.46" x2="130.21" y2="245.46"/><polygon class="cls-51" points="128.81 250.24 137.09 245.46 128.81 240.68 128.81 250.24"/><line class="cls-50" x1="58.78" y1="245.46" x2="36.37" y2="267.87"/><polygon class="cls-51" points="33.98 263.5 31.5 272.74 40.74 270.26 33.98 263.5"/><circle class="cls-34" cx="109.6" cy="162.26" r="4.18"/><line class="cls-50" x1="58.78" y1="244.75" x2="58.78" y2="173.32"/><polygon class="cls-51" points="63.56 174.72 58.78 166.44 54 174.72 63.56 174.72"/><circle class="cls-34" cx="102.21" cy="205.76" r="4.18"/><circle class="cls-34" cx="92.23" cy="187.66" r="4.18"/><path class="cls-34" d="M99.5,186.76a4.18,4.18,0,1,1,4.67,3.63A4.18,4.18,0,0,1,99.5,186.76Z"/><circle class="cls-34" cx="101.76" cy="171.01" r="4.18"/><circle class="cls-34" cx="96.05" cy="156.25" r="4.18"/><circle class="cls-35" cx="72.91" cy="216.79" r="4.18"/><circle class="cls-35" cx="45.14" cy="224.61" r="4.18"/><circle class="cls-35" cx="37.93" cy="231.9" r="4.18"/><circle class="cls-35" cx="79.63" cy="224.61" r="4.18"/><circle class="cls-34" cx="84.73" cy="206.54" r="4.18"/><circle class="cls-36" cx="98.65" cy="220.43" r="4.18"/><circle class="cls-36" cx="109.6" cy="224.61" r="4.18"/><circle class="cls-36" cx="107.23" cy="238.01" r="4.18"/><circle class="cls-36" cx="116.54" cy="250.22" r="4.18"/><circle class="cls-36" cx="103.84" cy="282.98" r="4.18"/><circle class="cls-35" cx="18.74" cy="235.74" r="4.18"/><circle class="cls-35" cx="64.79" cy="231.9" r="4.18"/><circle class="cls-35" cx="49.44" cy="235.74" r="4.18"/><circle class="cls-36" cx="101.76" cy="269.08" r="4.18"/><circle class="cls-36" cx="103.84" cy="255.18" r="4.18"/><circle class="cls-36" cx="88.91" cy="268.46" r="4.18"/><circle class="cls-36" cx="94.47" cy="279.3" r="4.18"/><circle class="cls-36" cx="113.72" cy="264.28" r="4.18"/><circle class="cls-35" cx="59.92" cy="221.32" r="4.18"/><circle class="cls-35" cx="33.13" cy="242.05" r="4.18"/><circle class="cls-35" cx="20.07" cy="247.07" r="4.18"/><circle class="cls-34" cx="113.72" cy="175.06" r="4.18"/><text class="cls-31" transform="translate(33.75 136.15)"><tspan class="cls-52">T</tspan><tspan x="7.83" y="0">ree learning</tspan></text><path class="cls-53" d="M95.85,204.32a43.23,43.23,0,0,1,9.86,13.57c5.09,11.15,3.74,21.43,2.35,31.09a95.44,95.44,0,0,1-6.78,24"/><polygon class="cls-11" points="94.56 285.94 96.3 263.73 101.63 271.89 111.35 271.3 94.56 285.94"/><path class="cls-53" d="M15.91,237.05c17.51-8,30-10.44,38.76-11a53.56,53.56,0,0,0,21.77-5.32A52.2,52.2,0,0,0,91,209.71a47,47,0,0,0,4.15-5.33"/><polygon class="cls-11" points="24.53 241.51 18.25 236.03 17.84 227.7 4.81 242.53 24.53 241.51"/><path class="cls-53" d="M106.85,150.54a79.71,79.71,0,0,0-4.73,12.1c-2,6.73-2.39,11.21-4,22.87-.56,4.12-1.43,10.38-2.64,18.15"/><path class="cls-54" d="M95.85,204.32a43.23,43.23,0,0,1,9.86,13.57c5.09,11.15,3.74,21.43,2.35,31.09a95.48,95.48,0,0,1-7.22,25"/><polygon class="cls-55" points="94.56 285.94 96.28 265.39 101.18 272.96 110.18 272.47 94.56 285.94"/><path class="cls-56" d="M15.07,237.43c18-8.3,30.72-10.81,39.6-11.33a53.56,53.56,0,0,0,21.77-5.32A52.2,52.2,0,0,0,91,209.71a47,47,0,0,0,4.15-5.33"/><polygon class="cls-57" points="23.07 241.54 17.24 236.48 16.85 228.77 4.81 242.53 23.07 241.54"/><path class="cls-58" d="M106.85,150.54a79.71,79.71,0,0,0-4.73,12.1c-2,6.73-2.39,11.21-4,22.87-.56,4.12-1.43,10.38-2.64,18.15"/><line class="cls-59" x1="173.51" y1="68.99" x2="215.75" y2="68.99"/><polygon class="cls-11" points="213.66 76.17 226.08 68.99 213.66 61.82 213.66 76.17"/><line class="cls-59" x1="146.27" y1="208.05" x2="215.75" y2="208.05"/><polygon class="cls-11" points="213.66 215.22 226.08 208.05 213.66 200.87 213.66 215.22"/><line class="cls-59" x1="173.51" y1="359.38" x2="215.75" y2="359.38"/><polygon class="cls-11" points="213.66 366.56 226.08 359.38 213.66 352.21 213.66 366.56"/><text class="cls-31" transform="translate(246.29 300.99)">Quasi-potential landscape <tspan class="cls-60" x="178.04" y="0">e</tspan><tspan class="cls-61" x="185.62" y="0">xplo</tspan><tspan class="cls-32" x="214.3" y="0">r</tspan><tspan x="220.19" y="0">ation prior to bifurcation</tspan></text><line class="cls-10" x1="263.36" y1="332.48" x2="263.36" y2="406.04"/><polygon class="cls-11" points="260.97 333.18 263.36 329.04 265.75 333.18 260.97 333.18"/><line class="cls-10" x1="428.2" y1="406.91" x2="263.36" y2="406.91"/><polygon class="cls-11" points="427.5 404.52 431.64 406.91 427.5 409.31 427.5 404.52"/><path class="cls-10" d="M273.12,401.75a219.28,219.28,0,0,1,23.56-2c12.71-.37,17.2.6,28.15.66,21.28.11,31.92.16,38.62-4.59,10.59-7.5,5.93-16.81,20.29-38.61,7-10.67,13.4-20.36,22.25-20.29,12.33.08,20.42,19,20.95,20.29"/><text class="cls-62" transform="translate(246.72 376.27)">CI</text><circle class="cls-63" cx="291.04" cy="379.95" r="10.44"/><text class="cls-62" transform="translate(287.65 383.41)">1</text><circle class="cls-63" cx="366.78" cy="346.11" r="10.44"/><text class="cls-62" transform="translate(363.39 349.57)">2</text><circle class="cls-63" cx="436.13" cy="333.18" r="10.44"/><text class="cls-62" transform="translate(432.74 336.63)">3</text><circle class="cls-63" cx="505.11" cy="392.21" r="10.44"/><text class="cls-62" transform="translate(501.72 395.66)">1</text><path class="cls-63" d="M465.1,346.85a16.67,16.67,0,0,1,7.2-1.74c3.88,0,4.79,1.49,8.35,2,5.64.75,7.51-2.46,10.49-2.45a3.49,3.49,0,0,1,2,.49c5.41,3.43-4.32,25.53.15,28,1.89,1,17.06,1.73,19.64-1,4.14-4.36-2.08-10.84,1.67-20,.68-1.67,3-6.47,7.48-8.51,4.16-1.9,6.51.76,13.54.65a29.61,29.61,0,0,0,7.34-1.09"/><circle class="cls-63" cx="595.13" cy="392.21" r="10.44"/><text class="cls-62" transform="translate(591.74 395.66)">2</text><path class="cls-63" d="M555.11,346.85a16.71,16.71,0,0,1,7.2-1.74c3.89,0,4.79,1.49,8.35,2,4.73.63,7.49-4,10.49-2.45,1,.53.72,1.11,1.92,2.14,2.25,2,5.06,1.43,9.45,1.39,8-.09,8,1.58,11.56.5,4.49-1.35,3.8-3.78,8-5.07,4.42-1.34,6.49.9,13.53.65a32.21,32.21,0,0,0,7.35-1.09"/><circle class="cls-63" cx="691.94" cy="392.21" r="10.44"/><text class="cls-62" transform="translate(688.55 395.66)">3</text><path class="cls-63" d="M651.92,346.85a16.71,16.71,0,0,1,7.2-1.74,6.3,6.3,0,0,1,2.36.22c5,2.11-.19,18,6.1,21.94.13.08,2.49,1.53,4.5.66,5.95-2.57,1.41-22,5.88-23.31.69-.2,1.24.14,2,.49,8.15,3.56,15.11-3,19.86-.5,6.62,3.44.88,20.09,7.64,23.32,2.44,1.16,5.73.22,7.7-1.25,6.66-5,1-18,7.28-22.45,2.09-1.49,4.81-1.54,7.34-1.09"/><circle class="cls-34" cx="496.16" cy="369.62" r="2.39"/><circle class="cls-34" cx="500.55" cy="360.84" r="2.39"/><circle class="cls-34" cx="504.94" cy="369.62" r="2.39"/><circle class="cls-34" cx="498.55" cy="370.19" r="2.39"/><circle class="cls-34" cx="500.55" cy="365.44" r="2.39"/><circle class="cls-34" cx="499.48" cy="362.5" r="2.39"/><circle class="cls-34" cx="508.26" cy="362.5" r="2.39"/><circle class="cls-34" cx="497.09" cy="362.5" r="2.39"/><circle class="cls-34" cx="578.58" cy="341.49" r="2.39"/><circle class="cls-34" cx="590.35" cy="345.28" r="2.39"/><circle class="cls-34" cx="598.9" cy="343.88" r="2.39"/><circle class="cls-34" cx="584.69" cy="343.88" r="2.39"/><circle class="cls-34" cx="611.01" cy="340.5" r="2.39"/><circle class="cls-34" cx="572.88" cy="342.06" r="2.39"/><circle class="cls-34" cx="606.83" cy="343.88" r="2.39"/><circle class="cls-34" cx="595.13" cy="345.28" r="2.39"/><circle class="cls-35" cx="706.62" cy="362.55" r="2.39"/><circle class="cls-35" cx="714.57" cy="355.44" r="2.39"/><circle class="cls-35" cx="711.01" cy="364.54" r="2.39"/><circle class="cls-35" cx="711.01" cy="358.37" r="2.39"/><circle class="cls-35" cx="714.57" cy="361.34" r="2.39"/><circle class="cls-35" cx="707.56" cy="355.44" r="2.39"/><circle class="cls-36" cx="669.92" cy="362.5" r="2.39"/><circle class="cls-36" cx="666.82" cy="350.76" r="2.39"/><circle class="cls-36" cx="672.01" cy="361.21" r="2.39"/><circle class="cls-36" cx="672.46" cy="351.41" r="2.39"/><circle class="cls-36" cx="670.07" cy="355.98" r="2.39"/><circle class="cls-36" cx="668.23" cy="358.37" r="2.39"/><line class="cls-64" x1="401.53" y1="406.91" x2="401.53" y2="403.91"/><line class="cls-65" x1="401.53" y1="398.1" x2="401.53" y2="319.65"/><line class="cls-64" x1="401.53" y1="316.75" x2="401.53" y2="313.75"/><text class="cls-62" transform="translate(336.72 321.22)">bifurcation</text><text class="cls-62" transform="translate(306.14 420.38)">pseudotime</text><text class="cls-62" transform="translate(296.43 129.7)">pseudotime</text><line class="cls-64" x1="643.82" y1="407.8" x2="643.82" y2="404.8"/><line class="cls-65" x1="643.82" y1="398.98" x2="643.82" y2="320.53"/><line class="cls-64" x1="643.82" y1="317.63" x2="643.82" y2="314.63"/><line class="cls-59" x1="173.51" y1="68.99" x2="173.51" y2="357.83"/></svg>
