<svg id="Calque_1" data-name="Calque 1" xmlns="http://www.w3.org/2000/svg" xmlns:xlink="http://www.w3.org/1999/xlink" viewBox="0 0 243.78 63.25"><defs><style>.cls-1,.cls-3,.cls-6,.cls-7{fill:none;stroke-linecap:round;stroke-miterlimit:10;stroke-width:5px;}.cls-1{stroke:#3aaa35;}.cls-2{fill:#3aaa35;}.cls-3{stroke:#e94e1b;}.cls-4{fill:#e94e1b;}.cls-5{fill:#b0aaa9;}.cls-6{stroke:url(#Dégradé_sans_nom_42);}.cls-7{stroke:url(#Dégradé_sans_nom_41);}</style><linearGradient id="Dégradé_sans_nom_42" x1="32.46" y1="63.51" x2="32.46" y2="23.62" gradientUnits="userSpaceOnUse"><stop offset="0" stop-color="#e30613" stop-opacity="0"/><stop offset="0.9" stop-color="#e94e1b"/></linearGradient><linearGradient id="Dégradé_sans_nom_41" x1="26.12" y1="63.51" x2="26.12" y2="23.62" gradientUnits="userSpaceOnUse"><stop offset="0" stop-color="#009640" stop-opacity="0"/><stop offset="0.9" stop-color="#3aaa35"/></linearGradient></defs><title>scFates</title><line class="cls-1" x1="26.12" y1="26.12" x2="12.48" y2="12.48"/><polygon class="cls-2" points="0 0 24.77 10.4 13.41 13.41 10.4 24.77 0 0"/><line class="cls-3" x1="32.46" y1="26.12" x2="46.09" y2="12.48"/><polygon class="cls-4" points="58.57 0 48.17 24.77 45.16 13.41 33.8 10.4 58.57 0"/><path class="cls-5" d="M51.18,58.35l1.87-3a14.73,14.73,0,0,0,8.14,2.81c3.46,0,7.56-1.58,7.42-5.55-.07-3.09-2.88-4-5.26-5-.93-.36-1.94-.8-3-1.08a20.22,20.22,0,0,1-5.62-2.74,6.82,6.82,0,0,1-3-6c0-6,5.4-9.36,11-9.36a18.88,18.88,0,0,1,9.14,2.67L70,34.22a14.52,14.52,0,0,0-6.92-2.08c-3,0-6.33,1.58-6.41,5,0,1.8,1.08,2.81,2.74,3.53s3.74,1.59,5.76,2.38a22.57,22.57,0,0,1,5.62,2.81,7.37,7.37,0,0,1,3,6.12c-.07,6.77-6.48,9.93-12.53,9.93A17.16,17.16,0,0,1,51.18,58.35Z"/><path class="cls-5" d="M78.83,45.6c0-5.9,2.45-11.74,6.84-14.76s11.09-2.81,16.06.29l-1.52,2.81a17,17,0,0,0-7.56-1.73c-5.68.28-8.49,7.41-8.49,13.39,0,5.69,3,12.46,9,12.53,3.38.07,5.83-1.15,8.71-2.52l1.37,2.74a21,21,0,0,1-11.59,3.31C83.58,61.59,78.83,53.52,78.83,45.6Z"/><path class="cls-5" d="M135.13,15.65l-1.87,3.67H115.12V34.8h15.19l-1.94,3.6H115.19V61h-5.26V15.65Z"/><path class="cls-5" d="M147.37,61.59a10.31,10.31,0,0,1-10.22-10.45C137.22,45,142,41.28,148,41.35h8.57V38.26c0-3.6-3.31-6-6.84-6a16.79,16.79,0,0,0-8.28,2.23l-1.3-3a20.72,20.72,0,0,1,11-2.73c5.25,0,10.44,3.46,10.44,9.29V56.19A19.62,19.62,0,0,1,147.37,61.59Zm9.08-16.93c-1.66,0-4.32,0-6.92.08-4,0-7.05,2.3-7.05,6.26a7.19,7.19,0,0,0,7.2,7.06,10.13,10.13,0,0,0,6.77-2.59Z"/><path class="cls-5" d="M167.53,32.86V29.47h3.6V20.69l5.26-1.88V29.47h5.9v3.39h-5.9V53.38c0,4.17,2.23,5.18,5.9,5.33v2.73c-7,.65-11.16-2.52-11.16-7.92V32.86Z"/><path class="cls-5" d="M208.14,60.79c-4.53,1.3-10.44,1.37-14.18-1.8-3.46-3-5.55-7.92-5.55-13.25.07-8.28,3.46-16.85,12.68-16.85,8.78,0,12,6,12.16,15.77H194c-.58,8.21,3.6,13.76,9.5,13.54,3.6-.07,6.19-1.29,8.86-2.59l1.22,2.52A20.6,20.6,0,0,1,208.14,60.79ZM208,41.64c0-4.61-2-9.5-6.7-9.5-5,0-6.84,4.89-7.2,9.43h13.83Z"/><path class="cls-5" d="M219.08,58.35l1.88-3a14.7,14.7,0,0,0,8.13,2.81c3.46,0,7.56-1.58,7.42-5.55-.07-3.09-2.88-4-5.26-5-.93-.36-1.94-.8-2.95-1.08a20.35,20.35,0,0,1-5.62-2.74,6.84,6.84,0,0,1-3-6c0-6,5.4-9.36,11-9.36a18.88,18.88,0,0,1,9.14,2.67l-1.94,3.09A14.52,14.52,0,0,0,231,32.14c-3,0-6.33,1.58-6.4,5,0,1.8,1.08,2.81,2.73,3.53S231,42.22,233.05,43a22.57,22.57,0,0,1,5.62,2.81,7.37,7.37,0,0,1,3,6.12c-.07,6.77-6.48,9.93-12.53,9.93A17.16,17.16,0,0,1,219.08,58.35Z"/><line class="cls-6" x1="32.46" y1="61.01" x2="32.46" y2="26.12"/><line class="cls-7" x1="26.12" y1="61.01" x2="26.12" y2="26.12"/></svg>
