<svg id="Calque_1" data-name="Calque 1" xmlns="http://www.w3.org/2000/svg" xmlns:xlink="http://www.w3.org/1999/xlink" viewBox="0 0 197.5 78.11"><defs><linearGradient id="Dégradé_sans_nom_92" x1="116.75" y1="27.47" x2="127.87" y2="27.47" gradientUnits="userSpaceOnUse"><stop offset="0.33" stop-color="#a01929"/><stop offset="0.59" stop-color="#fff"/><stop offset="0.84" stop-color="#1b3a6a"/></linearGradient><linearGradient id="Dégradé_sans_nom_23" x1="160.48" y1="16.92" x2="165.38" y2="16.92" gradientUnits="userSpaceOnUse"><stop offset="0" stop-color="#1b3a6a"/><stop offset="0.13" stop-color="#fff"/><stop offset="1" stop-color="#a01929"/></linearGradient><linearGradient id="Dégradé_sans_nom_34" x1="160.48" y1="19.56" x2="165.38" y2="19.56" gradientUnits="userSpaceOnUse"><stop offset="0" stop-color="#1b3a6a"/><stop offset="0.28" stop-color="#fff"/><stop offset="1" stop-color="#a01929"/></linearGradient><linearGradient id="Dégradé_sans_nom_43" x1="160.48" y1="22.2" x2="165.38" y2="22.2" gradientUnits="userSpaceOnUse"><stop offset="0.04" stop-color="#1b3a6a"/><stop offset="0.19" stop-color="#fff"/><stop offset="0.78" stop-color="#a01929"/></linearGradient><linearGradient id="Dégradé_sans_nom_46" x1="160.48" y1="24.83" x2="165.38" y2="24.83" gradientUnits="userSpaceOnUse"><stop offset="0.24" stop-color="#1b3a6a"/><stop offset="0.43" stop-color="#fff"/><stop offset="0.85" stop-color="#a01929"/></linearGradient><linearGradient id="Dégradé_sans_nom_53" x1="160.48" y1="27.47" x2="165.38" y2="27.47" gradientUnits="userSpaceOnUse"><stop offset="0.42" stop-color="#1b3a6a"/><stop offset="0.62" stop-color="#fff"/><stop offset="1" stop-color="#a01929"/></linearGradient><linearGradient id="Dégradé_sans_nom_51" x1="160.48" y1="30.11" x2="165.38" y2="30.11" gradientUnits="userSpaceOnUse"><stop offset="0.52" stop-color="#1b3a6a"/><stop offset="0.7" stop-color="#fff"/><stop offset="1" stop-color="#a01929"/></linearGradient><linearGradient id="Dégradé_sans_nom_57" x1="160.48" y1="32.71" x2="165.38" y2="32.71" gradientUnits="userSpaceOnUse"><stop offset="0.51" stop-color="#1b3a6a"/><stop offset="0.8" stop-color="#fff"/><stop offset="1" stop-color="#a01929"/></linearGradient><linearGradient id="Dégradé_sans_nom_60" x1="182.3" y1="16.92" x2="187.69" y2="16.92" gradientUnits="userSpaceOnUse"><stop offset="0" stop-color="#1b3a6a"/><stop offset="0.21" stop-color="#fff"/><stop offset="0.39" stop-color="#a4242e"/><stop offset="1" stop-color="#a01929"/></linearGradient><linearGradient id="Dégradé_sans_nom_62" x1="182.3" y1="19.56" x2="187.69" y2="19.56" gradientUnits="userSpaceOnUse"><stop offset="0" stop-color="#1b3a6a"/><stop offset="0.28" stop-color="#fff"/><stop offset="0.6" stop-color="#a4242e"/><stop offset="1" stop-color="#a01929"/></linearGradient><linearGradient id="Dégradé_sans_nom_64" x1="182.3" y1="22.2" x2="187.69" y2="22.2" gradientUnits="userSpaceOnUse"><stop offset="0" stop-color="#1b3a6a"/><stop offset="0.28" stop-color="#fff"/><stop offset="0.53" stop-color="#a4242e"/><stop offset="1" stop-color="#a01929"/></linearGradient><linearGradient id="Dégradé_sans_nom_67" x1="182.3" y1="24.83" x2="187.69" y2="24.83" gradientUnits="userSpaceOnUse"><stop offset="0.15" stop-color="#1b3a6a"/><stop offset="0.37" stop-color="#fff"/><stop offset="0.62" stop-color="#a4242e"/><stop offset="1" stop-color="#a01929"/></linearGradient><linearGradient id="Dégradé_sans_nom_67-2" x1="182.3" y1="27.47" x2="187.69" y2="27.47" xlink:href="#Dégradé_sans_nom_67"/><linearGradient id="Dégradé_sans_nom_67-3" x1="182.3" y1="30.11" x2="187.69" y2="30.11" xlink:href="#Dégradé_sans_nom_67"/><linearGradient id="Dégradé_sans_nom_70" x1="182.3" y1="32.71" x2="187.69" y2="32.71" gradientUnits="userSpaceOnUse"><stop offset="0.37" stop-color="#1b3a6a"/><stop offset="0.72" stop-color="#fff"/><stop offset="0.89" stop-color="#a4242e"/><stop offset="1" stop-color="#a01929"/></linearGradient><linearGradient id="Dégradé_sans_nom_97" x1="116.75" y1="22.2" x2="127.87" y2="22.2" gradientUnits="userSpaceOnUse"><stop offset="0.16" stop-color="#a01929"/><stop offset="0.55" stop-color="#fff"/><stop offset="0.76" stop-color="#1b3a6a"/></linearGradient><linearGradient id="Dégradé_sans_nom_90" x1="116.75" y1="32.71" x2="127.87" y2="32.71" gradientUnits="userSpaceOnUse"><stop offset="0.49" stop-color="#a01929"/><stop offset="0.67" stop-color="#fff"/><stop offset="0.89" stop-color="#1b3a6a"/></linearGradient><linearGradient id="Dégradé_sans_nom_91" x1="116.75" y1="30.11" x2="127.87" y2="30.11" gradientUnits="userSpaceOnUse"><stop offset="0.33" stop-color="#a01929"/><stop offset="0.61" stop-color="#fff"/><stop offset="0.84" stop-color="#1b3a6a"/></linearGradient><linearGradient id="Dégradé_sans_nom_93" x1="116.75" y1="24.83" x2="127.87" y2="24.83" gradientUnits="userSpaceOnUse"><stop offset="0.33" stop-color="#a01929"/><stop offset="0.55" stop-color="#fff"/><stop offset="0.75" stop-color="#1b3a6a"/></linearGradient><linearGradient id="Dégradé_sans_nom_100" x1="116.75" y1="19.56" x2="127.87" y2="19.56" gradientUnits="userSpaceOnUse"><stop offset="0.11" stop-color="#a01929"/><stop offset="0.35" stop-color="#fff"/><stop offset="0.7" stop-color="#1b3a6a"/></linearGradient><linearGradient id="Dégradé_sans_nom_77" x1="116.75" y1="16.92" x2="127.87" y2="16.92" gradientUnits="userSpaceOnUse"><stop offset="0" stop-color="#a01929"/><stop offset="0.25" stop-color="#fff"/><stop offset="0.59" stop-color="#1b3a6a"/></linearGradient><linearGradient id="Dégradé_sans_nom_114" x1="116.75" y1="11.7" x2="127.87" y2="11.7" gradientUnits="userSpaceOnUse"><stop offset="0" stop-color="#3e1f51"/><stop offset="1" stop-color="#20a784"/></linearGradient><linearGradient id="Dégradé_sans_nom_152" x1="127.87" y1="11.7" x2="133.14" y2="11.7" gradientUnits="userSpaceOnUse"><stop offset="0" stop-color="#20a784"/><stop offset="1" stop-color="#fee824"/></linearGradient><linearGradient id="Dégradé_sans_nom_125" x1="133.14" y1="11.7" x2="138.03" y2="11.7" xlink:href="#Dégradé_sans_nom_152"/><linearGradient id="Dégradé_sans_nom_114-2" x1="144.09" y1="11.7" x2="155.21" y2="11.7" xlink:href="#Dégradé_sans_nom_114"/><linearGradient id="Dégradé_sans_nom_152-2" x1="155.21" y1="11.7" x2="160.48" y2="11.7" xlink:href="#Dégradé_sans_nom_152"/><linearGradient id="Dégradé_sans_nom_125-2" x1="160.48" y1="11.7" x2="165.38" y2="11.7" xlink:href="#Dégradé_sans_nom_152"/><linearGradient id="Dégradé_sans_nom_114-3" x1="171.24" y1="11.61" x2="182.36" y2="11.61" xlink:href="#Dégradé_sans_nom_114"/><linearGradient id="Dégradé_sans_nom_152-3" x1="182.36" y1="11.61" x2="187.63" y2="11.61" xlink:href="#Dégradé_sans_nom_152"/><linearGradient id="Dégradé_sans_nom_125-3" x1="187.63" y1="11.61" x2="192.52" y2="11.61" xlink:href="#Dégradé_sans_nom_152"/><linearGradient id="Dégradé_sans_nom_149" x1="29.99" y1="56.71" x2="29.99" y2="34.44" gradientUnits="userSpaceOnUse"><stop offset="0.01" stop-color="#fee824"/><stop offset="0.95" stop-color="#20a784"/></linearGradient><linearGradient id="Dégradé_sans_nom_149-2" x1="29.92" y1="56.71" x2="29.92" y2="34.44" xlink:href="#Dégradé_sans_nom_149"/><linearGradient id="Dégradé_sans_nom_150" x1="5.23" y1="47.15" x2="28.06" y2="33.97" gradientUnits="userSpaceOnUse"><stop offset="0" stop-color="#fee824"/><stop offset="1" stop-color="#20a784"/></linearGradient><linearGradient id="Dégradé_sans_nom_150-2" x1="4.25" y1="45.44" x2="27.08" y2="32.26" xlink:href="#Dégradé_sans_nom_150"/><linearGradient id="Dégradé_sans_nom_137" x1="29.62" y1="35.27" x2="29.62" y2="20.42" gradientUnits="userSpaceOnUse"><stop offset="0" stop-color="#20a784"/><stop offset="0.96" stop-color="#3e1f51"/></linearGradient></defs><title>scFates_summary</title><rect x="116.75" y="26.07" width="11.12" height="2.81" fill="url(#Dégradé_sans_nom_92)"/><rect x="144.09" y="26.07" width="11.12" height="2.81" fill="#1b3a6a"/><rect x="171.24" y="26.07" width="11.12" height="2.81" fill="#1b3a6a"/><rect x="144.09" y="15.52" width="11.12" height="2.81" fill="#1b3a6a"/><rect x="160.48" y="15.52" width="4.89" height="2.81" fill="url(#Dégradé_sans_nom_23)"/><rect x="155.15" y="15.52" width="5.39" height="2.81" fill="#1b3a6a"/><rect x="144.09" y="18.16" width="11.12" height="2.81" fill="#1b3a6a"/><rect x="160.48" y="18.16" width="4.89" height="2.81" fill="url(#Dégradé_sans_nom_34)"/><rect x="155.15" y="18.16" width="5.39" height="2.81" fill="#1b3a6a"/><rect x="144.09" y="20.79" width="11.12" height="2.81" fill="#1b3a6a"/><rect x="160.48" y="20.79" width="4.89" height="2.81" fill="url(#Dégradé_sans_nom_43)"/><rect x="155.15" y="20.79" width="5.39" height="2.81" fill="#1b3a6a"/><rect x="144.09" y="23.43" width="11.12" height="2.81" fill="#1b3a6a"/><rect x="160.48" y="23.43" width="4.89" height="2.81" fill="url(#Dégradé_sans_nom_46)"/><rect x="155.15" y="23.43" width="5.39" height="2.81" fill="#1b3a6a"/><rect x="160.48" y="26.07" width="4.89" height="2.81" fill="url(#Dégradé_sans_nom_53)"/><rect x="155.15" y="26.07" width="5.39" height="2.81" fill="#1b3a6a"/><rect x="144.09" y="28.71" width="11.12" height="2.81" fill="#1b3a6a"/><rect x="160.48" y="28.71" width="4.89" height="2.81" fill="url(#Dégradé_sans_nom_51)"/><rect x="155.15" y="28.71" width="5.39" height="2.81" fill="#1b3a6a"/><rect x="144.09" y="31.3" width="11.12" height="2.81" fill="#1b3a6a"/><rect x="160.48" y="31.3" width="4.89" height="2.81" fill="url(#Dégradé_sans_nom_57)"/><rect x="155.15" y="31.3" width="5.39" height="2.81" fill="#1b3a6a"/><line x1="18.57" y1="45.66" x2="37.19" y2="45.66" fill="none" stroke="#706f6f" stroke-miterlimit="10" stroke-width="0.5"/><polygon points="36.82 46.91 38.98 45.66 36.82 44.41 36.82 46.91" fill="#706f6f"/><line x1="18.57" y1="45.66" x2="12.73" y2="51.5" fill="none" stroke="#706f6f" stroke-miterlimit="10" stroke-width="0.5"/><polygon points="12.11 50.36 11.46 52.77 13.87 52.12 12.11 50.36" fill="#706f6f"/><circle cx="31.81" cy="23.98" r="1.09" fill="#009640"/><line x1="18.57" y1="45.47" x2="18.57" y2="26.86" fill="none" stroke="#706f6f" stroke-miterlimit="10" stroke-width="0.5"/><polygon points="19.82 27.23 18.57 25.07 17.32 27.23 19.82 27.23" fill="#706f6f"/><circle cx="29.89" cy="35.31" r="1.09" fill="#009640"/><circle cx="27.29" cy="30.6" r="1.09" fill="#009640"/><path d="M29.18,30.36a1.09,1.09,0,1,1,1.22.95A1.1,1.1,0,0,1,29.18,30.36Z" fill="#009640"/><circle cx="29.77" cy="26.26" r="1.09" fill="#009640"/><circle cx="28.28" cy="22.41" r="1.09" fill="#009640"/><circle cx="22.25" cy="38.19" r="1.09" fill="#e30613"/><circle cx="15.02" cy="40.22" r="1.09" fill="#e30613"/><circle cx="13.14" cy="42.13" r="1.09" fill="#e30613"/><circle cx="24.01" cy="40.22" r="1.09" fill="#e30613"/><circle cx="25.33" cy="35.52" r="1.09" fill="#009640"/><circle cx="28.96" cy="39.14" r="1.09" fill="#009fe3"/><circle cx="31.81" cy="40.22" r="1.09" fill="#009fe3"/><circle cx="31.2" cy="43.72" r="1.09" fill="#009fe3"/><circle cx="33.62" cy="46.9" r="1.09" fill="#009fe3"/><circle cx="30.31" cy="55.44" r="1.09" fill="#009fe3"/><circle cx="8.14" cy="43.13" r="1.09" fill="#e30613"/><circle cx="20.14" cy="42.13" r="1.09" fill="#e30613"/><circle cx="16.14" cy="43.13" r="1.09" fill="#e30613"/><circle cx="29.77" cy="51.81" r="1.09" fill="#009fe3"/><circle cx="30.31" cy="48.19" r="1.09" fill="#009fe3"/><circle cx="26.42" cy="51.65" r="1.09" fill="#009fe3"/><circle cx="27.87" cy="54.48" r="1.09" fill="#009fe3"/><circle cx="32.89" cy="50.56" r="1.09" fill="#009fe3"/><circle cx="18.87" cy="39.37" r="1.09" fill="#e30613"/><circle cx="11.89" cy="44.77" r="1.09" fill="#e30613"/><circle cx="8.49" cy="46.08" r="1.09" fill="#e30613"/><circle cx="32.89" cy="27.31" r="1.09" fill="#009640"/><line x1="68.47" y1="12.73" x2="68.47" y2="31.9" fill="none" stroke="#1d1d1b" stroke-linecap="round" stroke-miterlimit="10" stroke-width="0.25"/><polygon points="67.85 12.91 68.47 11.83 69.1 12.91 67.85 12.91" fill="#1d1d1b"/><line x1="105.83" y1="32.12" x2="68.47" y2="32.12" fill="none" stroke="#1d1d1b" stroke-linecap="round" stroke-miterlimit="10" stroke-width="0.25"/><polygon points="105.65 31.5 106.73 32.12 105.65 32.75 105.65 31.5" fill="#1d1d1b"/><path d="M72.22,30c2.79-.06,4.81-.12,6.27-.17,1.06,0,2.33-.08,4.07,0,1,.05,1.8.12,2.37.17" fill="none" stroke="#009640" stroke-linecap="round" stroke-miterlimit="10" stroke-width="0.5"/><path d="M85.13,29.79h0a53.1,53.1,0,0,1,2.2-5.08c1.81-3.67,2.75-5.52,4.41-6.44,1.13-.63,2.79-.71,6.09-.85,2.06-.09,3.76-.05,4.92,0" fill="none" stroke="#e30613" stroke-linecap="round" stroke-miterlimit="10" stroke-width="0.5"/><path d="M100.48,29.12a34.56,34.56,0,0,0-4.5.35c-1.54.22-2.3.45-3.33,0s-1.09-1.06-2-1.21a5,5,0,0,0-2.75.69h0c-.58.4-2.23.65-2.81,1.05" fill="none" stroke="#009fe3" stroke-linecap="round" stroke-miterlimit="10" stroke-width="0.5"/><rect x="144.09" y="12.05" width="21.29" height="22.01" fill="none" stroke="#1d1d1b" stroke-linecap="round" stroke-miterlimit="10" stroke-width="0.25"/><rect x="144.09" y="12.94" width="11.12" height="2.66" fill="#009640" stroke="#1d1d1b" stroke-linecap="round" stroke-miterlimit="10" stroke-width="0.25"/><rect x="155.21" y="12.94" width="5.27" height="2.66" fill="#e30613" stroke="#1d1d1b" stroke-linecap="round" stroke-miterlimit="10" stroke-width="0.25"/><rect x="160.48" y="12.94" width="4.89" height="2.66" fill="#009fe3" stroke="#1d1d1b" stroke-linecap="round" stroke-miterlimit="10" stroke-width="0.25"/><rect x="171.24" y="15.52" width="11.12" height="2.81" fill="#1b3a6a"/><rect x="187.63" y="15.52" width="4.89" height="2.81" fill="#1b3a6a"/><rect x="182.3" y="15.52" width="5.39" height="2.81" fill="url(#Dégradé_sans_nom_60)"/><rect x="171.24" y="18.16" width="11.12" height="2.81" fill="#1b3a6a"/><rect x="187.63" y="18.16" width="4.89" height="2.81" fill="#1b3a6a"/><rect x="182.3" y="18.16" width="5.39" height="2.81" fill="url(#Dégradé_sans_nom_62)"/><rect x="171.24" y="20.79" width="11.12" height="2.81" fill="#1b3a6a"/><rect x="187.63" y="20.79" width="4.89" height="2.81" fill="#1b3a6a"/><rect x="182.3" y="20.79" width="5.39" height="2.81" fill="url(#Dégradé_sans_nom_64)"/><rect x="171.24" y="23.43" width="11.12" height="2.81" fill="#1b3a6a"/><rect x="187.63" y="23.43" width="4.89" height="2.81" fill="#1b3a6a"/><rect x="182.3" y="23.43" width="5.39" height="2.81" fill="url(#Dégradé_sans_nom_67)"/><rect x="187.63" y="26.07" width="4.89" height="2.81" fill="#1b3a6a"/><rect x="182.3" y="26.07" width="5.39" height="2.81" fill="url(#Dégradé_sans_nom_67-2)"/><rect x="171.24" y="28.71" width="11.12" height="2.81" fill="#1b3a6a"/><rect x="187.63" y="28.71" width="4.89" height="2.81" fill="#1b3a6a"/><rect x="182.3" y="28.71" width="5.39" height="2.81" fill="url(#Dégradé_sans_nom_67-3)"/><rect x="171.24" y="31.3" width="11.12" height="2.81" fill="#1b3a6a"/><rect x="187.63" y="31.3" width="4.89" height="2.81" fill="#1b3a6a"/><rect x="182.3" y="31.3" width="5.39" height="2.81" fill="url(#Dégradé_sans_nom_70)"/><rect x="171.24" y="12.05" width="21.29" height="22.01" fill="none" stroke="#1d1d1b" stroke-linecap="round" stroke-miterlimit="10" stroke-width="0.25"/><rect x="171.24" y="12.94" width="11.12" height="2.66" fill="#009640" stroke="#1d1d1b" stroke-linecap="round" stroke-miterlimit="10" stroke-width="0.25"/><rect x="182.36" y="12.94" width="5.27" height="2.66" fill="#e30613" stroke="#1d1d1b" stroke-linecap="round" stroke-miterlimit="10" stroke-width="0.25"/><rect x="187.63" y="12.94" width="4.89" height="2.66" fill="#009fe3" stroke="#1d1d1b" stroke-linecap="round" stroke-miterlimit="10" stroke-width="0.25"/><rect x="116.75" y="20.79" width="11.12" height="2.81" fill="url(#Dégradé_sans_nom_97)"/><rect x="116.75" y="31.3" width="11.12" height="2.81" fill="url(#Dégradé_sans_nom_90)"/><rect x="133.14" y="15.52" width="4.89" height="2.81" fill="#1b3a6a"/><rect x="127.81" y="15.52" width="5.39" height="2.81" fill="#1b3a6a"/><rect x="116.75" y="28.71" width="11.12" height="2.81" fill="url(#Dégradé_sans_nom_91)"/><rect x="133.14" y="18.16" width="4.89" height="2.81" fill="#1b3a6a"/><rect x="127.81" y="18.16" width="5.39" height="2.81" fill="#1b3a6a"/><rect x="133.14" y="20.79" width="4.89" height="2.81" fill="#1b3a6a"/><rect x="127.81" y="20.79" width="5.39" height="2.81" fill="#1b3a6a"/><rect x="116.75" y="23.43" width="11.12" height="2.81" fill="url(#Dégradé_sans_nom_93)"/><rect x="133.14" y="23.43" width="4.89" height="2.81" fill="#1b3a6a"/><rect x="127.81" y="23.43" width="5.39" height="2.81" fill="#1b3a6a"/><rect x="133.14" y="26.07" width="4.89" height="2.81" fill="#1b3a6a"/><rect x="127.81" y="26.07" width="5.39" height="2.81" fill="#1b3a6a"/><rect x="116.75" y="18.16" width="11.12" height="2.81" fill="url(#Dégradé_sans_nom_100)"/><rect x="133.14" y="28.71" width="4.89" height="2.81" fill="#1b3a6a"/><rect x="127.81" y="28.71" width="5.39" height="2.81" fill="#1b3a6a"/><rect x="116.75" y="15.52" width="11.12" height="2.81" fill="url(#Dégradé_sans_nom_77)"/><rect x="133.14" y="31.3" width="4.89" height="2.81" fill="#1b3a6a"/><rect x="127.81" y="31.3" width="5.39" height="2.81" fill="#1b3a6a"/><rect x="116.75" y="12.05" width="21.29" height="22.01" fill="none" stroke="#1d1d1b" stroke-linecap="round" stroke-miterlimit="10" stroke-width="0.25"/><rect x="116.75" y="12.94" width="11.12" height="2.66" fill="#009640" stroke="#1d1d1b" stroke-linecap="round" stroke-miterlimit="10" stroke-width="0.25"/><rect x="127.87" y="12.94" width="5.27" height="2.66" fill="#e30613" stroke="#1d1d1b" stroke-linecap="round" stroke-miterlimit="10" stroke-width="0.25"/><rect x="133.14" y="12.94" width="4.89" height="2.66" fill="#009fe3" stroke="#1d1d1b" stroke-linecap="round" stroke-miterlimit="10" stroke-width="0.25"/><rect x="68.34" y="42.5" width="24.51" height="24.51" fill="none" stroke="#1d1d1b" stroke-miterlimit="10" stroke-width="0.25"/><circle cx="70.52" cy="65.2" r="0.62" fill="#009640"/><circle cx="71.67" cy="62.92" r="0.62" fill="#009640"/><circle cx="72.81" cy="65.2" r="0.62" fill="#009640"/><circle cx="73.96" cy="62.92" r="0.62" fill="#009640"/><circle cx="73.72" cy="61.2" r="0.62" fill="#009640"/><circle cx="75.78" cy="61.83" r="0.62" fill="#009640"/><circle cx="74.01" cy="59.43" r="0.62" fill="#009640"/><circle cx="76.02" cy="59.82" r="0.62" fill="#009640"/><circle cx="76.02" cy="57.54" r="0.62" fill="#009640"/><circle cx="78.31" cy="59.82" r="0.62" fill="#009640"/><circle cx="78.31" cy="57.54" r="0.62" fill="#009640"/><circle cx="78.31" cy="55.25" r="0.62" fill="#009640"/><circle cx="80.59" cy="57.54" r="0.62" fill="#e30613"/><circle cx="82.88" cy="57.54" r="0.62" fill="#e30613"/><circle cx="81.74" cy="58.68" r="0.62" fill="#e30613"/><circle cx="84.03" cy="59.82" r="0.62" fill="#e30613"/><circle cx="85.17" cy="57.54" r="0.62" fill="#e30613"/><circle cx="86.31" cy="59.82" r="0.62" fill="#e30613"/><circle cx="86.31" cy="62.11" r="0.62" fill="#e30613"/><circle cx="88.6" cy="60.97" r="0.62" fill="#e30613"/><circle cx="87.46" cy="58.68" r="0.62" fill="#e30613"/><circle cx="80.59" cy="55.25" r="0.62" fill="#e30613"/><circle cx="77.16" cy="52.59" r="0.62" fill="#009fe3"/><circle cx="74.88" cy="50.68" r="0.62" fill="#009fe3"/><circle cx="79.45" cy="52.96" r="0.62" fill="#009fe3"/><circle cx="77.16" cy="50.05" r="0.62" fill="#009fe3"/><circle cx="82.88" cy="55.25" r="0.62" fill="#e30613"/><circle cx="78.83" cy="50.99" r="0.62" fill="#009fe3"/><circle cx="75.22" cy="48.39" r="0.62" fill="#009fe3"/><circle cx="78.5" cy="48.69" r="0.62" fill="#009fe3"/><circle cx="76.64" cy="47.22" r="0.62" fill="#009fe3"/><circle cx="73.63" cy="46.78" r="0.62" fill="#009fe3"/><circle cx="74.77" cy="44.5" r="0.62" fill="#009fe3"/><rect x="102" y="42.5" width="24.51" height="24.51" fill="none" stroke="#1d1d1b" stroke-miterlimit="10" stroke-width="0.25"/><circle cx="104.19" cy="65.2" r="0.62" fill="#009640"/><circle cx="105.33" cy="62.92" r="0.62" fill="#009640"/><circle cx="106.48" cy="65.2" r="0.62" fill="#009640"/><circle cx="107.62" cy="62.92" r="0.62" fill="#009640"/><circle cx="107.38" cy="61.2" r="0.62" fill="#009640"/><circle cx="104.81" cy="65.35" r="0.62" fill="#009640"/><circle cx="105.33" cy="64.11" r="0.62" fill="#009640"/><circle cx="105.06" cy="63.35" r="0.62" fill="#009640"/><circle cx="105.06" cy="61.06" r="0.62" fill="#009640"/><circle cx="107.34" cy="63.35" r="0.62" fill="#009640"/><circle cx="106.3" cy="62.29" r="0.62" fill="#009640"/><circle cx="104.43" cy="63.35" r="0.62" fill="#009640"/><circle cx="111.36" cy="64.62" r="0.62" fill="#e30613"/><circle cx="113.15" cy="63.2" r="0.62" fill="#e30613"/><circle cx="112.96" cy="64.8" r="0.62" fill="#e30613"/><circle cx="115.47" cy="64.28" r="0.62" fill="#e30613"/><circle cx="123.16" cy="64.65" r="0.62" fill="#e30613"/><circle cx="117.26" cy="62.86" r="0.62" fill="#e30613"/><circle cx="118.68" cy="64.65" r="0.62" fill="#e30613"/><circle cx="119.76" cy="62.33" r="0.62" fill="#e30613"/><circle cx="121.29" cy="63.54" r="0.62" fill="#e30613"/><circle cx="109.94" cy="62.83" r="0.62" fill="#e30613"/><circle cx="104.98" cy="56.63" r="0.62" fill="#009fe3"/><circle cx="103.79" cy="53.9" r="0.62" fill="#009fe3"/><circle cx="105.44" cy="59.2" r="0.62" fill="#009fe3"/><circle cx="106.12" cy="54.37" r="0.62" fill="#009fe3"/><circle cx="122.54" cy="62.06" r="0.62" fill="#e30613"/><circle cx="107.29" cy="57.26" r="0.62" fill="#009fe3"/><circle cx="105.12" cy="52.01" r="0.62" fill="#009fe3"/><circle cx="105.44" cy="46.73" r="0.62" fill="#009fe3"/><circle cx="104.43" cy="45.07" r="0.62" fill="#009fe3"/><circle cx="104.42" cy="49.86" r="0.62" fill="#009fe3"/><circle cx="106.46" cy="48.33" r="0.62" fill="#009fe3"/><text transform="translate(66.34 6.51)" font-size="4" fill="#1d1d1b" font-family="Lato-Regular, Lato">Fitted features clustering &amp; visualisation</text><text transform="translate(66.34 74.27)" font-size="4" fill="#1d1d1b" font-family="Lato-Regular, Lato">B<tspan x="2.59" y="0" letter-spacing="-0.02em">r</tspan><tspan x="4.12" y="0">anch specific feature &amp; bifurcation analyis</tspan></text><line x1="44.02" y1="32.68" x2="57.52" y2="24.88" fill="none" stroke="#1d1d1b" stroke-miterlimit="10" stroke-width="0.75"/><polygon points="57.98 26.78 59.85 23.54 56.11 23.54 57.98 26.78" fill="#1d1d1b"/><rect x="135.86" y="54.39" width="12.87" height="12.87" fill="none" stroke="#1d1d1b" stroke-miterlimit="10" stroke-width="0.25"/><rect x="150.5" y="54.39" width="12.87" height="12.87" fill="none" stroke="#1d1d1b" stroke-miterlimit="10" stroke-width="0.25"/><rect x="165.13" y="54.39" width="12.87" height="12.87" fill="none" stroke="#1d1d1b" stroke-miterlimit="10" stroke-width="0.25"/><rect x="179.68" y="54.39" width="12.87" height="12.87" fill="none" stroke="#1d1d1b" stroke-miterlimit="10" stroke-width="0.25"/><circle cx="146.58" cy="40.58" r="0.43" fill="#1d1d1b"/><circle cx="145.83" cy="45.02" r="0.43" fill="#c6c6c6"/><circle cx="144.81" cy="43.17" r="0.43" fill="#c6c6c6"/><path d="M145.55,43.08a.43.43,0,0,1,.37-.48.43.43,0,0,1,.11.85A.43.43,0,0,1,145.55,43.08Z" fill="#c6c6c6"/><circle cx="145.78" cy="41.47" r="0.43" fill="#1d1d1b"/><circle cx="145.2" cy="39.96" r="0.43" fill="#1d1d1b"/><circle cx="142.84" cy="46.15" r="0.43" fill="#c6c6c6"/><circle cx="140" cy="46.95" r="0.43" fill="#c6c6c6"/><circle cx="139.26" cy="47.69" r="0.43" fill="#c6c6c6"/><circle cx="143.52" cy="46.95" r="0.43" fill="#c6c6c6"/><circle cx="144.04" cy="45.1" r="0.43" fill="#c6c6c6"/><circle cx="145.47" cy="46.52" r="0.43" fill="#c6c6c6"/><circle cx="146.58" cy="46.95" r="0.43" fill="#c6c6c6"/><circle cx="146.34" cy="48.32" r="0.43" fill="#c6c6c6"/><circle cx="147.29" cy="49.56" r="0.43" fill="#c6c6c6"/><circle cx="146" cy="52.91" r="0.43" fill="#c6c6c6"/><circle cx="137.3" cy="48.08" r="0.43" fill="#c6c6c6"/><circle cx="142.01" cy="47.69" r="0.43" fill="#c6c6c6"/><circle cx="140.44" cy="48.08" r="0.43" fill="#c6c6c6"/><circle cx="145.78" cy="51.49" r="0.43" fill="#c6c6c6"/><circle cx="146" cy="50.07" r="0.43" fill="#c6c6c6"/><circle cx="144.47" cy="51.43" r="0.43" fill="#c6c6c6"/><circle cx="145.04" cy="52.54" r="0.43" fill="#c6c6c6"/><circle cx="147.01" cy="51" r="0.43" fill="#c6c6c6"/><circle cx="141.51" cy="46.61" r="0.43" fill="#c6c6c6"/><circle cx="138.77" cy="48.73" r="0.43" fill="#c6c6c6"/><circle cx="137.44" cy="49.24" r="0.43" fill="#c6c6c6"/><circle cx="147.01" cy="41.88" r="0.43" fill="#1d1d1b"/><circle cx="161.17" cy="40.58" r="0.43" fill="#c6c6c6"/><circle cx="160.41" cy="45.02" r="0.43" fill="#1d1d1b"/><circle cx="159.39" cy="43.17" r="0.43" fill="#1d1d1b"/><path d="M160.14,43.08a.43.43,0,0,1,.37-.48.43.43,0,1,1,.1.85A.43.43,0,0,1,160.14,43.08Z" fill="#1d1d1b"/><circle cx="160.37" cy="41.47" r="0.43" fill="#c6c6c6"/><circle cx="159.79" cy="39.96" r="0.43" fill="#c6c6c6"/><circle cx="157.42" cy="46.15" r="0.43" fill="#c6c6c6"/><circle cx="154.58" cy="46.95" r="0.43" fill="#c6c6c6"/><circle cx="153.85" cy="47.69" r="0.43" fill="#c6c6c6"/><circle cx="158.11" cy="46.95" r="0.43" fill="#c6c6c6"/><circle cx="158.63" cy="45.1" r="0.43" fill="#1d1d1b"/><circle cx="160.05" cy="46.52" r="0.43" fill="#c6c6c6"/><circle cx="161.17" cy="46.95" r="0.43" fill="#c6c6c6"/><circle cx="160.93" cy="48.32" r="0.43" fill="#c6c6c6"/><circle cx="161.88" cy="49.56" r="0.43" fill="#c6c6c6"/><circle cx="160.58" cy="52.91" r="0.43" fill="#c6c6c6"/><circle cx="151.89" cy="48.08" r="0.43" fill="#c6c6c6"/><circle cx="156.59" cy="47.69" r="0.43" fill="#c6c6c6"/><circle cx="155.02" cy="48.08" r="0.43" fill="#c6c6c6"/><circle cx="160.37" cy="51.49" r="0.43" fill="#c6c6c6"/><circle cx="160.58" cy="50.07" r="0.43" fill="#c6c6c6"/><circle cx="159.06" cy="51.43" r="0.43" fill="#c6c6c6"/><circle cx="159.62" cy="52.54" r="0.43" fill="#c6c6c6"/><circle cx="161.59" cy="51" r="0.43" fill="#c6c6c6"/><circle cx="156.09" cy="46.61" r="0.43" fill="#c6c6c6"/><circle cx="153.36" cy="48.73" r="0.43" fill="#c6c6c6"/><circle cx="152.02" cy="49.24" r="0.43" fill="#c6c6c6"/><circle cx="161.59" cy="41.88" r="0.43" fill="#c6c6c6"/><circle cx="175.75" cy="40.58" r="0.43" fill="#c6c6c6"/><circle cx="175" cy="45.02" r="0.43" fill="#c6c6c6"/><circle cx="173.98" cy="43.17" r="0.43" fill="#c6c6c6"/><path d="M174.72,43.08a.43.43,0,0,1,.37-.48.43.43,0,1,1-.37.48Z" fill="#c6c6c6"/><circle cx="174.95" cy="41.47" r="0.43" fill="#c6c6c6"/><circle cx="174.37" cy="39.96" r="0.43" fill="#c6c6c6"/><circle cx="172" cy="46.15" r="0.43" fill="#1d1d1b"/><circle cx="169.17" cy="46.95" r="0.43" fill="#1d1d1b"/><circle cx="168.43" cy="47.69" r="0.43" fill="#c6c6c6"/><circle cx="172.69" cy="46.95" r="0.43" fill="#1d1d1b"/><circle cx="173.21" cy="45.1" r="0.43" fill="#1d1d1b"/><circle cx="174.64" cy="46.52" r="0.43" fill="#c6c6c6"/><circle cx="175.75" cy="46.95" r="0.43" fill="#c6c6c6"/><circle cx="175.51" cy="48.32" r="0.43" fill="#c6c6c6"/><circle cx="176.46" cy="49.56" r="0.43" fill="#c6c6c6"/><circle cx="175.17" cy="52.91" r="0.43" fill="#c6c6c6"/><circle cx="166.47" cy="48.08" r="0.43" fill="#c6c6c6"/><circle cx="171.18" cy="47.69" r="0.43" fill="#1d1d1b"/><circle cx="169.61" cy="48.08" r="0.43" fill="#1d1d1b"/><circle cx="174.95" cy="51.49" r="0.43" fill="#c6c6c6"/><circle cx="175.17" cy="50.07" r="0.43" fill="#c6c6c6"/><circle cx="173.64" cy="51.43" r="0.43" fill="#c6c6c6"/><circle cx="174.21" cy="52.54" r="0.43" fill="#c6c6c6"/><circle cx="176.18" cy="51" r="0.43" fill="#c6c6c6"/><circle cx="170.68" cy="46.61" r="0.43" fill="#1d1d1b"/><circle cx="167.94" cy="48.73" r="0.43" fill="#c6c6c6"/><circle cx="166.61" cy="49.24" r="0.43" fill="#c6c6c6"/><circle cx="176.18" cy="41.88" r="0.43" fill="#c6c6c6"/><circle cx="190.34" cy="40.58" r="0.43" fill="#c6c6c6"/><circle cx="189.58" cy="45.02" r="0.43" fill="#c6c6c6"/><circle cx="188.56" cy="43.17" r="0.43" fill="#c6c6c6"/><path d="M189.31,43.08a.42.42,0,1,1,.84-.11.42.42,0,1,1-.84.11Z" fill="#c6c6c6"/><circle cx="189.54" cy="41.47" r="0.43" fill="#c6c6c6"/><circle cx="188.95" cy="39.96" r="0.43" fill="#c6c6c6"/><circle cx="186.59" cy="46.15" r="0.43" fill="#c6c6c6"/><circle cx="183.75" cy="46.95" r="0.43" fill="#c6c6c6"/><circle cx="183.01" cy="47.69" r="0.43" fill="#c6c6c6"/><circle cx="187.28" cy="46.95" r="0.43" fill="#c6c6c6"/><circle cx="187.8" cy="45.1" r="0.43" fill="#c6c6c6"/><circle cx="189.22" cy="46.52" r="0.43" fill="#1d1d1b"/><circle cx="190.34" cy="46.95" r="0.43" fill="#1d1d1b"/><circle cx="190.1" cy="48.32" r="0.43" fill="#1d1d1b"/><circle cx="191.05" cy="49.56" r="0.43" fill="#1d1d1b"/><circle cx="189.75" cy="52.91" r="0.43" fill="#c6c6c6"/><circle cx="181.05" cy="48.08" r="0.43" fill="#c6c6c6"/><circle cx="185.76" cy="47.69" r="0.43" fill="#c6c6c6"/><circle cx="184.19" cy="48.08" r="0.43" fill="#c6c6c6"/><circle cx="189.54" cy="51.49" r="0.43" fill="#c6c6c6"/><circle cx="189.75" cy="50.07" r="0.43" fill="#1d1d1b"/><circle cx="188.22" cy="51.43" r="0.43" fill="#c6c6c6"/><circle cx="188.79" cy="52.54" r="0.43" fill="#c6c6c6"/><circle cx="190.76" cy="51" r="0.43" fill="#c6c6c6"/><circle cx="185.26" cy="46.61" r="0.43" fill="#c6c6c6"/><circle cx="182.52" cy="48.73" r="0.43" fill="#c6c6c6"/><circle cx="181.19" cy="49.24" r="0.43" fill="#c6c6c6"/><circle cx="190.76" cy="41.88" r="0.43" fill="#c6c6c6"/><line x1="142.3" y1="54.5" x2="142.3" y2="54.75" fill="none" stroke="#1d1d1b" stroke-linecap="square" stroke-miterlimit="10" stroke-width="0.15"/><line x1="142.3" y1="55.24" x2="142.3" y2="66.77" fill="none" stroke="#1d1d1b" stroke-linecap="square" stroke-miterlimit="10" stroke-width="0.15" stroke-dasharray="0.49 0.49"/><line x1="142.3" y1="67.01" x2="142.3" y2="67.26" fill="none" stroke="#1d1d1b" stroke-linecap="square" stroke-miterlimit="10" stroke-width="0.15"/><line x1="148.68" y1="60.88" x2="148.43" y2="60.88" fill="none" stroke="#1d1d1b" stroke-linecap="square" stroke-miterlimit="10" stroke-width="0.15"/><line x1="147.93" y1="60.88" x2="136.36" y2="60.88" fill="none" stroke="#1d1d1b" stroke-linecap="square" stroke-miterlimit="10" stroke-width="0.15" stroke-dasharray="0.49 0.49"/><line x1="136.11" y1="60.88" x2="135.86" y2="60.88" fill="none" stroke="#1d1d1b" stroke-linecap="square" stroke-miterlimit="10" stroke-width="0.15"/><line x1="156.96" y1="54.5" x2="156.96" y2="54.75" fill="none" stroke="#1d1d1b" stroke-linecap="square" stroke-miterlimit="10" stroke-width="0.15"/><line x1="156.96" y1="55.24" x2="156.96" y2="66.77" fill="none" stroke="#1d1d1b" stroke-linecap="square" stroke-miterlimit="10" stroke-width="0.15" stroke-dasharray="0.49 0.49"/><line x1="156.96" y1="67.01" x2="156.96" y2="67.26" fill="none" stroke="#1d1d1b" stroke-linecap="square" stroke-miterlimit="10" stroke-width="0.15"/><line x1="163.34" y1="60.88" x2="163.09" y2="60.88" fill="none" stroke="#1d1d1b" stroke-linecap="square" stroke-miterlimit="10" stroke-width="0.15"/><line x1="162.59" y1="60.88" x2="151.02" y2="60.88" fill="none" stroke="#1d1d1b" stroke-linecap="square" stroke-miterlimit="10" stroke-width="0.15" stroke-dasharray="0.49 0.49"/><line x1="150.77" y1="60.88" x2="150.52" y2="60.88" fill="none" stroke="#1d1d1b" stroke-linecap="square" stroke-miterlimit="10" stroke-width="0.15"/><line x1="171.55" y1="54.45" x2="171.55" y2="54.7" fill="none" stroke="#1d1d1b" stroke-linecap="square" stroke-miterlimit="10" stroke-width="0.15"/><line x1="171.55" y1="55.19" x2="171.55" y2="66.71" fill="none" stroke="#1d1d1b" stroke-linecap="square" stroke-miterlimit="10" stroke-width="0.15" stroke-dasharray="0.49 0.49"/><line x1="171.55" y1="66.96" x2="171.55" y2="67.21" fill="none" stroke="#1d1d1b" stroke-linecap="square" stroke-miterlimit="10" stroke-width="0.15"/><line x1="177.93" y1="60.83" x2="177.68" y2="60.83" fill="none" stroke="#1d1d1b" stroke-linecap="square" stroke-miterlimit="10" stroke-width="0.15"/><line x1="177.19" y1="60.83" x2="165.61" y2="60.83" fill="none" stroke="#1d1d1b" stroke-linecap="square" stroke-miterlimit="10" stroke-width="0.15" stroke-dasharray="0.49 0.49"/><line x1="165.37" y1="60.83" x2="165.12" y2="60.83" fill="none" stroke="#1d1d1b" stroke-linecap="square" stroke-miterlimit="10" stroke-width="0.15"/><line x1="186.19" y1="54.5" x2="186.19" y2="54.75" fill="none" stroke="#1d1d1b" stroke-linecap="square" stroke-miterlimit="10" stroke-width="0.15"/><line x1="186.19" y1="55.24" x2="186.19" y2="66.77" fill="none" stroke="#1d1d1b" stroke-linecap="square" stroke-miterlimit="10" stroke-width="0.15" stroke-dasharray="0.49 0.49"/><line x1="186.19" y1="67.01" x2="186.19" y2="67.26" fill="none" stroke="#1d1d1b" stroke-linecap="square" stroke-miterlimit="10" stroke-width="0.15"/><line x1="192.57" y1="60.88" x2="192.32" y2="60.88" fill="none" stroke="#1d1d1b" stroke-linecap="square" stroke-miterlimit="10" stroke-width="0.15"/><line x1="191.83" y1="60.88" x2="180.25" y2="60.88" fill="none" stroke="#1d1d1b" stroke-linecap="square" stroke-miterlimit="10" stroke-width="0.15" stroke-dasharray="0.49 0.49"/><line x1="180.01" y1="60.88" x2="179.76" y2="60.88" fill="none" stroke="#1d1d1b" stroke-linecap="square" stroke-miterlimit="10" stroke-width="0.15"/><circle cx="142.75" cy="60.15" r="0.26" fill="#009fe3"/><circle cx="141.7" cy="60.31" r="0.26" fill="#009fe3"/><circle cx="141.76" cy="61.23" r="0.26" fill="#009fe3"/><circle cx="142.72" cy="61.23" r="0.26" fill="#009fe3"/><circle cx="142.72" cy="59.23" r="0.26" fill="#009fe3"/><circle cx="143.24" cy="60.67" r="0.26" fill="#009fe3"/><circle cx="142.23" cy="60.52" r="0.26" fill="#009fe3"/><circle cx="141.82" cy="59.93" r="0.26" fill="#e30613"/><circle cx="143.38" cy="61.8" r="0.26" fill="#e30613"/><circle cx="142.08" cy="60.93" r="0.26" fill="#e30613"/><circle cx="142.56" cy="60.52" r="0.26" fill="#e30613"/><circle cx="141.53" cy="60.52" r="0.26" fill="#e30613"/><circle cx="160.79" cy="63.85" r="0.26" fill="#e30613"/><circle cx="161.14" cy="64.75" r="0.26" fill="#e30613"/><circle cx="159.81" cy="63.59" r="0.26" fill="#e30613"/><circle cx="160.14" cy="64.13" r="0.26" fill="#e30613"/><circle cx="160.5" cy="64.49" r="0.26" fill="#e30613"/><circle cx="154.24" cy="58.67" r="0.26" fill="#009fe3"/><circle cx="153.32" cy="58.19" r="0.26" fill="#009fe3"/><circle cx="154.82" cy="59.32" r="0.26" fill="#009fe3"/><circle cx="153.5" cy="57.59" r="0.26" fill="#009fe3"/><circle cx="154.11" cy="58" r="0.26" fill="#009fe3"/><circle cx="154.93" cy="58.67" r="0.26" fill="#009fe3"/><circle cx="152.73" cy="57.69" r="0.26" fill="#009fe3"/><circle cx="152.9" cy="57.07" r="0.26" fill="#009fe3"/><circle cx="172.87" cy="61.64" r="0.26" fill="#e30613"/><circle cx="173.21" cy="62.53" r="0.26" fill="#e30613"/><circle cx="171.88" cy="61.38" r="0.26" fill="#e30613"/><circle cx="172.22" cy="61.91" r="0.26" fill="#e30613"/><circle cx="172.58" cy="62.27" r="0.26" fill="#e30613"/><circle cx="169.8" cy="60.03" r="0.26" fill="#009fe3"/><circle cx="170.28" cy="59.11" r="0.26" fill="#009fe3"/><circle cx="170.88" cy="60.41" r="0.26" fill="#009fe3"/><circle cx="170.88" cy="59.3" r="0.26" fill="#009fe3"/><circle cx="170.47" cy="59.9" r="0.26" fill="#009fe3"/><circle cx="170.25" cy="60.49" r="0.26" fill="#009fe3"/><circle cx="171.39" cy="60.41" r="0.26" fill="#009fe3"/><circle cx="169.61" cy="59.11" r="0.26" fill="#009fe3"/><circle cx="187.19" cy="61.32" r="0.26" fill="#e30613"/><circle cx="187.54" cy="62.21" r="0.26" fill="#e30613"/><circle cx="186.21" cy="61.06" r="0.26" fill="#e30613"/><circle cx="186.54" cy="61.6" r="0.26" fill="#e30613"/><circle cx="186.9" cy="61.95" r="0.26" fill="#e30613"/><circle cx="185.55" cy="60.85" r="0.26" fill="#009fe3"/><circle cx="186.03" cy="59.93" r="0.26" fill="#009fe3"/><circle cx="186.63" cy="61.22" r="0.26" fill="#009fe3"/><circle cx="186.63" cy="60.11" r="0.26" fill="#009fe3"/><circle cx="186.22" cy="60.71" r="0.26" fill="#009fe3"/><circle cx="186" cy="61.31" r="0.26" fill="#009fe3"/><circle cx="187.13" cy="61.22" r="0.26" fill="#009fe3"/><circle cx="185.35" cy="59.93" r="0.26" fill="#009fe3"/><circle cx="142.24" cy="61.55" r="0.26" fill="#e30613"/><circle cx="143.24" cy="60.98" r="0.26" fill="#e30613"/><circle cx="159.3" cy="62.91" r="0.26" fill="#e30613"/><circle cx="160.18" cy="63.23" r="0.26" fill="#e30613"/><circle cx="171.27" cy="61.04" r="0.26" fill="#e30613"/><circle cx="171.96" cy="60.83" r="0.26" fill="#e30613"/><circle cx="186.63" cy="60.71" r="0.26" fill="#e30613"/><circle cx="186.31" cy="61.16" r="0.26" fill="#e30613"/><line x1="44.02" y1="43.5" x2="57.52" y2="51.29" fill="none" stroke="#1d1d1b" stroke-miterlimit="10" stroke-width="0.75"/><polygon points="56.11 52.64 59.85 52.64 57.98 49.4 56.11 52.64" fill="#1d1d1b"/><text transform="translate(12.05 14.83)" font-size="4" fill="#1d1d1b" font-family="Lato-Regular, Lato"><tspan letter-spacing="-0.08em">T</tspan><tspan x="2.04" y="0">ree learning</tspan></text><rect x="116.75" y="10.36" width="11.12" height="2.66" stroke="#1d1d1b" stroke-linecap="round" stroke-miterlimit="10" stroke-width="0.25" fill="url(#Dégradé_sans_nom_114)"/><rect x="127.87" y="10.36" width="5.27" height="2.66" stroke="#1d1d1b" stroke-linecap="round" stroke-miterlimit="10" stroke-width="0.25" fill="url(#Dégradé_sans_nom_152)"/><rect x="133.14" y="10.36" width="4.89" height="2.66" stroke="#1d1d1b" stroke-linecap="round" stroke-miterlimit="10" stroke-width="0.25" fill="url(#Dégradé_sans_nom_125)"/><rect x="144.09" y="10.36" width="11.12" height="2.66" stroke="#1d1d1b" stroke-linecap="round" stroke-miterlimit="10" stroke-width="0.25" fill="url(#Dégradé_sans_nom_114-2)"/><rect x="155.21" y="10.36" width="5.27" height="2.66" stroke="#1d1d1b" stroke-linecap="round" stroke-miterlimit="10" stroke-width="0.25" fill="url(#Dégradé_sans_nom_152-2)"/><rect x="160.48" y="10.36" width="4.89" height="2.66" stroke="#1d1d1b" stroke-linecap="round" stroke-miterlimit="10" stroke-width="0.25" fill="url(#Dégradé_sans_nom_125-2)"/><rect x="171.24" y="10.28" width="11.12" height="2.66" stroke="#1d1d1b" stroke-linecap="round" stroke-miterlimit="10" stroke-width="0.25" fill="url(#Dégradé_sans_nom_114-3)"/><rect x="182.36" y="10.28" width="5.27" height="2.66" stroke="#1d1d1b" stroke-linecap="round" stroke-miterlimit="10" stroke-width="0.25" fill="url(#Dégradé_sans_nom_152-3)"/><rect x="187.63" y="10.28" width="4.89" height="2.66" stroke="#1d1d1b" stroke-linecap="round" stroke-miterlimit="10" stroke-width="0.25" fill="url(#Dégradé_sans_nom_125-3)"/><path d="M28.23,34.94a11.19,11.19,0,0,1,2.57,3.53c1.33,2.91,1,5.59.61,8.11a24.63,24.63,0,0,1-1.76,6.24" fill="none" stroke="#1d1d1b" stroke-linecap="round" stroke-miterlimit="10" stroke-width="2"/><polygon points="27.9 56.21 28.31 50.42 29.71 52.53 32.25 52.37 27.9 56.21" fill="#1d1d1b"/><path d="M7.4,43.47a28.41,28.41,0,0,1,10.1-2.86,13.86,13.86,0,0,0,5.67-1.38A13.52,13.52,0,0,0,27,36.34,12.23,12.23,0,0,0,28.05,35" fill="none" stroke="#1d1d1b" stroke-linecap="round" stroke-miterlimit="10" stroke-width="2"/><polygon points="9.65 44.66 8.02 43.22 7.93 41.05 4.51 44.89 9.65 44.66" fill="#1d1d1b"/><path d="M31.1,20.92a21.4,21.4,0,0,0-1.24,3.16,36.34,36.34,0,0,0-1,6c-.14,1.07-.37,2.7-.69,4.73" fill="none" stroke="#1d1d1b" stroke-linecap="round" stroke-miterlimit="10" stroke-width="2"/><path d="M28.23,34.94a11.19,11.19,0,0,1,2.57,3.53c1.33,2.91,1,5.59.61,8.11a24.78,24.78,0,0,1-1.88,6.49" fill="none" stroke-linecap="round" stroke-miterlimit="10" stroke="url(#Dégradé_sans_nom_149)"/><polygon points="27.9 56.21 28.32 50.85 29.6 52.82 31.95 52.68 27.9 56.21" fill="url(#Dégradé_sans_nom_149-2)"/><path d="M7.19,43.56a28.75,28.75,0,0,1,10.31-3,13.86,13.86,0,0,0,5.67-1.38A13.52,13.52,0,0,0,27,36.34,12.23,12.23,0,0,0,28.05,35" fill="none" stroke-linecap="round" stroke-miterlimit="10" stroke="url(#Dégradé_sans_nom_150)"/><polygon points="9.27 44.68 7.76 43.34 7.67 41.34 4.51 44.89 9.27 44.68" fill="url(#Dégradé_sans_nom_150-2)"/><path d="M31.1,20.92a21.4,21.4,0,0,0-1.24,3.16,36.34,36.34,0,0,0-1,6c-.14,1.07-.37,2.7-.69,4.73" fill="none" stroke-linecap="round" stroke-miterlimit="10" stroke="url(#Dégradé_sans_nom_137)"/></svg>